{"glyphs":{"a":{"x_min":0,"x_max":272,"ha":272,"o":"m 161 278 q 177 277 189 269 q 195 275 208 278 q 222 281 236 281 q 249 281 260 279 q 270 277 270 274 q 268 269 262 250 q 255 231 246 204 q 238 178 229 148 q 220 119 214 93 q 207 67 204 48 q 200 30 203 27 q 212 32 228 55 q 243 78 260 107 q 277 136 294 164 q 310 193 320 209 q 323 213 328 215 q 333 217 338 217 q 344 217 347 214 q 350 212 348 207 q 336 185 323 161 q 310 137 296 114 q 283 91 272 71 q 260 51 251 37 q 249 34 244 26 q 238 19 230 12 q 222 4 213 -2 q 204 -7 195 -7 q 165 -5 154 12 q 142 29 140 56 q 126 33 106 13 q 87 -7 58 -8 q 26 -9 12 6 q -3 20 -8 40 q -12 60 -9 80 q -6 100 -3 110 q 4 137 19 168 q 34 198 55 224 q 76 249 103 264 q 130 280 161 278 z m 177 251 q 171 262 162 260 q 154 257 144 246 q 133 235 122 218 q 110 201 100 183 q 90 165 82 148 q 74 131 70 121 q 52 76 51 48 q 50 20 68 22 q 76 22 84 28 q 92 33 98 40 q 105 47 110 54 q 114 60 116 63 q 124 77 136 104 q 149 130 160 159 q 171 188 177 214 q 183 239 177 251 z"},"L":{"x_min":0,"x_max":219,"ha":219,"o":"m 3 -117 q -4 -118 -6 -109 q -7 -100 -5 -88 q -3 -76 2 -65 q 7 -54 12 -51 q 16 -48 20 -46 q 23 -44 28 -42 q 42 94 76 228 q 110 363 178 488 q 180 492 194 498 q 208 505 223 510 q 238 515 250 517 q 261 519 259 515 q 227 439 198 368 q 168 298 145 232 q 122 165 108 103 q 93 41 90 -18 q 150 -4 210 -12 q 271 -21 319 -51 q 328 -57 334 -66 q 341 -75 343 -82 q 345 -90 341 -93 q 337 -96 325 -90 q 288 -70 244 -66 q 200 -61 156 -67 q 112 -73 72 -86 q 32 -100 3 -117 z"},"3":{"x_min":0,"x_max":1219,"ha":1219,"o":"m 876 781 l 739 657 l 775 471 l 615 565 l 450 471 l 489 652 l 351 781 l 537 801 l 615 972 l 690 802 z m 682 576 l 639 834 l 586 834 l 541 576 l 564 562 l 583 576 l 592 634 l 631 634 l 642 576 l 663 562 z m 628 672 l 598 672 l 612 774 z m 610 21 l 631 21 l 624 39 q 622 42 622 44 q 622 46 619 49 q 619 45 616 39 z m 352 -5 l 352 3 l 363 3 l 363 -5 z m 844 -5 l 844 58 l 852 58 l 852 1 l 883 1 l 883 -5 z m 787 -5 l 787 58 l 832 58 l 832 49 l 795 49 l 795 30 l 829 30 l 829 22 l 795 22 l 795 1 l 832 1 l 832 -5 z m 565 -5 l 565 21 l 541 58 l 552 58 l 564 39 q 567 30 570 28 q 571 30 572 33 q 574 36 577 39 l 589 58 l 598 58 l 573 21 l 573 -5 z m 376 -5 l 376 58 l 400 58 q 403 58 406 56 q 408 55 409 55 q 415 54 417 49 q 420 46 420 40 q 420 36 417 34 q 415 28 411 28 q 415 27 420 22 q 423 16 423 13 q 423 10 422 8 q 421 7 421 6 q 420 0 415 0 q 414 -3 412 -3 q 411 -3 409 -5 l 400 -5 z m 205 -5 l 187 58 l 196 58 l 205 16 q 207 12 207 9 q 207 6 208 3 q 210 10 210 15 l 222 58 l 232 58 l 241 25 q 243 18 244 14 q 246 9 246 3 q 247 6 247 9 q 247 12 249 16 l 259 58 l 267 58 l 249 -5 l 241 -5 l 229 42 q 228 46 228 49 q 226 46 226 42 l 213 -5 z m 123 -5 l 105 58 l 115 58 l 123 16 q 123 9 127 3 q 129 10 129 15 l 141 58 l 150 58 l 160 25 q 162 18 162 14 q 163 9 163 3 q 166 6 166 9 q 166 12 168 16 l 177 58 l 186 58 l 168 -5 l 160 -5 l 148 42 q 147 46 147 49 q 144 46 144 42 l 130 -5 z m 384 30 l 397 30 q 403 30 405 33 q 409 33 409 34 q 411 36 411 40 q 411 45 409 46 l 408 46 q 406 46 406 47 q 406 48 405 48 q 403 49 396 49 l 384 49 z m 285 -5 l 268 58 l 277 58 l 286 16 q 288 12 288 9 q 288 6 291 3 q 291 9 292 11 q 292 13 292 15 l 304 58 l 313 58 l 324 25 q 325 18 326 14 q 327 9 327 3 q 330 6 330 9 q 330 12 331 16 l 342 58 l 349 58 l 331 -5 l 324 -5 l 312 42 q 310 46 310 49 q 307 46 307 42 l 294 -5 z m 664 28 l 682 28 q 685 28 688 29 q 690 30 693 30 q 696 30 696 34 q 697 36 697 40 q 697 45 694 48 q 693 49 684 49 l 664 49 z m 384 1 l 400 1 q 403 1 405 3 l 409 3 q 411 6 414 7 l 414 13 q 414 16 411 19 q 411 22 408 22 l 397 22 l 384 22 z m 435 -5 l 435 58 l 442 58 l 442 -5 z m 985 25 q 985 12 990 7 q 996 1 1006 1 q 1017 1 1021 7 q 1027 12 1027 27 q 1027 34 1026 39 q 1023 46 1018 48 q 1014 49 1006 49 q 997 49 993 45 q 985 39 985 25 z m 976 25 q 976 42 985 49 q 991 58 1006 58 q 1011 58 1014 56 q 1018 55 1021 54 q 1026 52 1028 49 q 1030 46 1033 42 q 1035 39 1035 27 q 1035 13 1032 9 q 1027 1 1021 -3 q 1015 -6 1006 -6 q 1002 -6 998 -6 q 994 -5 990 -3 q 987 0 984 3 q 982 6 981 9 q 979 13 978 17 q 976 21 976 25 z m 592 -5 l 616 58 l 625 58 l 651 -5 l 642 -5 l 634 13 l 609 13 l 600 -5 z m 459 -5 l 459 58 l 466 58 l 466 1 l 495 1 l 495 -5 z m 892 -5 l 892 3 l 903 3 l 903 -5 z m 748 19 l 748 27 l 774 27 l 774 3 q 768 -3 762 -5 q 759 -5 755 -6 q 751 -6 748 -6 q 739 -6 733 -3 q 729 0 726 2 q 723 4 721 9 q 720 13 718 17 q 717 21 717 25 q 717 31 718 34 q 720 37 721 42 q 724 51 732 54 q 735 55 740 56 q 744 58 748 58 q 756 58 760 55 q 766 54 768 49 q 772 45 774 40 l 766 39 q 766 40 762 45 q 762 48 756 49 l 748 49 l 739 49 q 735 48 732 45 q 732 43 727 39 q 727 36 726 33 q 726 30 726 27 q 726 16 729 13 q 735 4 736 3 q 741 1 748 1 q 754 1 759 3 q 762 6 764 6 q 765 6 766 7 l 766 19 z m 657 -5 l 657 58 l 684 58 q 688 58 691 56 q 694 55 697 55 q 702 54 703 49 q 706 46 706 40 q 706 33 702 28 q 700 27 696 26 q 693 25 688 22 q 691 22 692 22 q 693 21 694 21 q 696 18 696 16 q 697 13 700 10 l 712 -5 l 702 -5 l 693 7 q 690 10 689 12 q 688 15 687 16 q 687 19 686 19 q 684 19 682 21 l 681 21 q 679 21 679 22 q 679 22 678 22 l 675 22 l 664 22 l 664 -5 z m 505 -5 l 505 58 l 514 58 l 514 1 l 544 1 l 544 -5 z m 961 16 l 969 15 q 966 3 960 0 q 954 -6 943 -6 q 934 -6 928 -3 q 924 0 922 3 q 921 6 918 9 q 915 21 915 27 q 915 33 918 45 q 925 52 928 54 q 933 55 936 56 q 939 58 943 58 q 948 58 952 56 q 957 55 960 54 q 963 51 965 48 q 967 45 969 40 l 960 39 q 960 45 954 48 q 951 49 943 49 q 934 49 931 48 q 928 46 928 44 q 927 42 924 39 q 924 36 923 33 q 922 30 922 27 q 922 18 927 13 q 927 10 928 8 q 930 6 931 3 q 936 1 943 1 q 951 1 955 6 q 960 10 961 16 z m 1047 -5 l 1047 58 l 1059 58 l 1074 13 q 1074 10 1076 8 q 1077 6 1077 3 q 1077 4 1080 13 l 1093 58 l 1105 58 l 1105 -5 l 1098 -5 l 1098 46 l 1080 -5 l 1072 -5 l 1054 48 l 1054 -5 z m 610 21 l 631 21 l 624 39 q 622 42 622 44 q 622 46 619 49 q 619 45 616 39 z m 352 -5 l 352 3 l 363 3 l 363 -5 z m 844 -5 l 844 58 l 852 58 l 852 1 l 883 1 l 883 -5 z m 787 -5 l 787 58 l 832 58 l 832 49 l 795 49 l 795 30 l 829 30 l 829 22 l 795 22 l 795 1 l 832 1 l 832 -5 z m 565 -5 l 565 21 l 541 58 l 552 58 l 564 39 q 567 30 570 28 q 571 30 572 33 q 574 36 577 39 l 589 58 l 598 58 l 573 21 l 573 -5 z m 376 -5 l 376 58 l 400 58 q 403 58 406 56 q 408 55 409 55 q 415 54 417 49 q 420 46 420 40 q 420 36 417 34 q 415 28 411 28 q 415 27 420 22 q 423 16 423 13 q 423 10 422 8 q 421 7 421 6 q 420 0 415 0 q 414 -3 412 -3 q 411 -3 409 -5 l 400 -5 z m 205 -5 l 187 58 l 196 58 l 205 16 q 207 12 207 9 q 207 6 208 3 q 210 10 210 15 l 222 58 l 232 58 l 241 25 q 243 18 244 14 q 246 9 246 3 q 247 6 247 9 q 247 12 249 16 l 259 58 l 267 58 l 249 -5 l 241 -5 l 229 42 q 228 46 228 49 q 226 46 226 42 l 213 -5 z m 123 -5 l 105 58 l 115 58 l 123 16 q 123 9 127 3 q 129 10 129 15 l 141 58 l 150 58 l 160 25 q 162 18 162 14 q 163 9 163 3 q 166 6 166 9 q 166 12 168 16 l 177 58 l 186 58 l 168 -5 l 160 -5 l 148 42 q 147 46 147 49 q 144 46 144 42 l 130 -5 z m 384 30 l 397 30 q 403 30 405 33 q 409 33 409 34 q 411 36 411 40 q 411 45 409 46 l 408 46 q 406 46 406 47 q 406 48 405 48 q 403 49 396 49 l 384 49 z m 285 -5 l 268 58 l 277 58 l 286 16 q 288 12 288 9 q 288 6 291 3 q 291 9 292 11 q 292 13 292 15 l 304 58 l 313 58 l 324 25 q 325 18 326 14 q 327 9 327 3 q 330 6 330 9 q 330 12 331 16 l 342 58 l 349 58 l 331 -5 l 324 -5 l 312 42 q 310 46 310 49 q 307 46 307 42 l 294 -5 z m 664 28 l 682 28 q 685 28 688 29 q 690 30 693 30 q 696 30 696 34 q 697 36 697 40 q 697 45 694 48 q 693 49 684 49 l 664 49 z m 384 1 l 400 1 q 403 1 405 3 l 409 3 q 411 6 414 7 l 414 13 q 414 16 411 19 q 411 22 408 22 l 397 22 l 384 22 z m 435 -5 l 435 58 l 442 58 l 442 -5 z m 985 25 q 985 12 990 7 q 996 1 1006 1 q 1017 1 1021 7 q 1027 12 1027 27 q 1027 34 1026 39 q 1023 46 1018 48 q 1014 49 1006 49 q 997 49 993 45 q 985 39 985 25 z m 976 25 q 976 42 985 49 q 991 58 1006 58 q 1011 58 1014 56 q 1018 55 1021 54 q 1026 52 1028 49 q 1030 46 1033 42 q 1035 39 1035 27 q 1035 13 1032 9 q 1027 1 1021 -3 q 1015 -6 1006 -6 q 1002 -6 998 -6 q 994 -5 990 -3 q 987 0 984 3 q 982 6 981 9 q 979 13 978 17 q 976 21 976 25 z m 592 -5 l 616 58 l 625 58 l 651 -5 l 642 -5 l 634 13 l 609 13 l 600 -5 z m 459 -5 l 459 58 l 466 58 l 466 1 l 495 1 l 495 -5 z m 892 -5 l 892 3 l 903 3 l 903 -5 z m 748 19 l 748 27 l 774 27 l 774 3 q 768 -3 762 -5 q 759 -5 755 -6 q 751 -6 748 -6 q 739 -6 733 -3 q 729 0 726 2 q 723 4 721 9 q 720 13 718 17 q 717 21 717 25 q 717 31 718 34 q 720 37 721 42 q 724 51 732 54 q 735 55 740 56 q 744 58 748 58 q 756 58 760 55 q 766 54 768 49 q 772 45 774 40 l 766 39 q 766 40 762 45 q 762 48 756 49 l 748 49 l 739 49 q 735 48 732 45 q 732 43 727 39 q 727 36 726 33 q 726 30 726 27 q 726 16 729 13 q 735 4 736 3 q 741 1 748 1 q 754 1 759 3 q 762 6 764 6 q 765 6 766 7 l 766 19 z m 657 -5 l 657 58 l 684 58 q 688 58 691 56 q 694 55 697 55 q 702 54 703 49 q 706 46 706 40 q 706 33 702 28 q 700 27 696 26 q 693 25 688 22 q 691 22 692 22 q 693 21 694 21 q 696 18 696 16 q 697 13 700 10 l 712 -5 l 702 -5 l 693 7 q 690 10 689 12 q 688 15 687 16 q 687 19 686 19 q 684 19 682 21 l 681 21 q 679 21 679 22 q 679 22 678 22 l 675 22 l 664 22 l 664 -5 z m 505 -5 l 505 58 l 514 58 l 514 1 l 544 1 l 544 -5 z m 961 16 l 969 15 q 966 3 960 0 q 954 -6 943 -6 q 934 -6 928 -3 q 924 0 922 3 q 921 6 918 9 q 915 21 915 27 q 915 33 918 45 q 925 52 928 54 q 933 55 936 56 q 939 58 943 58 q 948 58 952 56 q 957 55 960 54 q 963 51 965 48 q 967 45 969 40 l 960 39 q 960 45 954 48 q 951 49 943 49 q 934 49 931 48 q 928 46 928 44 q 927 42 924 39 q 924 36 923 33 q 922 30 922 27 q 922 18 927 13 q 927 10 928 8 q 930 6 931 3 q 936 1 943 1 q 951 1 955 6 q 960 10 961 16 z m 1047 -5 l 1047 58 l 1059 58 l 1074 13 q 1074 10 1076 8 q 1077 6 1077 3 q 1077 4 1080 13 l 1093 58 l 1105 58 l 1105 -5 l 1098 -5 l 1098 46 l 1080 -5 l 1072 -5 l 1054 48 l 1054 -5 z m 610 21 l 631 21 l 624 39 q 622 42 622 44 q 622 46 619 49 q 619 45 616 39 z m 352 -5 l 352 3 l 363 3 l 363 -5 z m 844 -5 l 844 58 l 852 58 l 852 1 l 883 1 l 883 -5 z m 787 -5 l 787 58 l 832 58 l 832 49 l 795 49 l 795 30 l 829 30 l 829 22 l 795 22 l 795 1 l 832 1 l 832 -5 z m 565 -5 l 565 21 l 541 58 l 552 58 l 564 39 q 567 30 570 28 q 571 30 572 33 q 574 36 577 39 l 589 58 l 598 58 l 573 21 l 573 -5 z m 376 -5 l 376 58 l 400 58 q 403 58 406 56 q 408 55 409 55 q 415 54 417 49 q 420 46 420 40 q 420 36 417 34 q 415 28 411 28 q 415 27 420 22 q 423 16 423 13 q 423 10 422 8 q 421 7 421 6 q 420 0 415 0 q 414 -3 412 -3 q 411 -3 409 -5 l 400 -5 z m 205 -5 l 187 58 l 196 58 l 205 16 q 207 12 207 9 q 207 6 208 3 q 210 10 210 15 l 222 58 l 232 58 l 241 25 q 243 18 244 14 q 246 9 246 3 q 247 6 247 9 q 247 12 249 16 l 259 58 l 267 58 l 249 -5 l 241 -5 l 229 42 q 228 46 228 49 q 226 46 226 42 l 213 -5 z m 123 -5 l 105 58 l 115 58 l 123 16 q 123 9 127 3 q 129 10 129 15 l 141 58 l 150 58 l 160 25 q 162 18 162 14 q 163 9 163 3 q 166 6 166 9 q 166 12 168 16 l 177 58 l 186 58 l 168 -5 l 160 -5 l 148 42 q 147 46 147 49 q 144 46 144 42 l 130 -5 z m 384 30 l 397 30 q 403 30 405 33 q 409 33 409 34 q 411 36 411 40 q 411 45 409 46 l 408 46 q 406 46 406 47 q 406 48 405 48 q 403 49 396 49 l 384 49 z m 285 -5 l 268 58 l 277 58 l 286 16 q 288 12 288 9 q 288 6 291 3 q 291 9 292 11 q 292 13 292 15 l 304 58 l 313 58 l 324 25 q 325 18 326 14 q 327 9 327 3 q 330 6 330 9 q 330 12 331 16 l 342 58 l 349 58 l 331 -5 l 324 -5 l 312 42 q 310 46 310 49 q 307 46 307 42 l 294 -5 z m 664 28 l 682 28 q 685 28 688 29 q 690 30 693 30 q 696 30 696 34 q 697 36 697 40 q 697 45 694 48 q 693 49 684 49 l 664 49 z m 384 1 l 400 1 q 403 1 405 3 l 409 3 q 411 6 414 7 l 414 13 q 414 16 411 19 q 411 22 408 22 l 397 22 l 384 22 z m 435 -5 l 435 58 l 442 58 l 442 -5 z m 985 25 q 985 12 990 7 q 996 1 1006 1 q 1017 1 1021 7 q 1027 12 1027 27 q 1027 34 1026 39 q 1023 46 1018 48 q 1014 49 1006 49 q 997 49 993 45 q 985 39 985 25 z m 976 25 q 976 42 985 49 q 991 58 1006 58 q 1011 58 1014 56 q 1018 55 1021 54 q 1026 52 1028 49 q 1030 46 1033 42 q 1035 39 1035 27 q 1035 13 1032 9 q 1027 1 1021 -3 q 1015 -6 1006 -6 q 1002 -6 998 -6 q 994 -5 990 -3 q 987 0 984 3 q 982 6 981 9 q 979 13 978 17 q 976 21 976 25 z m 592 -5 l 616 58 l 625 58 l 651 -5 l 642 -5 l 634 13 l 609 13 l 600 -5 z m 459 -5 l 459 58 l 466 58 l 466 1 l 495 1 l 495 -5 z m 892 -5 l 892 3 l 903 3 l 903 -5 z m 748 19 l 748 27 l 774 27 l 774 3 q 768 -3 762 -5 q 759 -5 755 -6 q 751 -6 748 -6 q 739 -6 733 -3 q 729 0 726 2 q 723 4 721 9 q 720 13 718 17 q 717 21 717 25 q 717 31 718 34 q 720 37 721 42 q 724 51 732 54 q 735 55 740 56 q 744 58 748 58 q 756 58 760 55 q 766 54 768 49 q 772 45 774 40 l 766 39 q 766 40 762 45 q 762 48 756 49 l 748 49 l 739 49 q 735 48 732 45 q 732 43 727 39 q 727 36 726 33 q 726 30 726 27 q 726 16 729 13 q 735 4 736 3 q 741 1 748 1 q 754 1 759 3 q 762 6 764 6 q 765 6 766 7 l 766 19 z m 657 -5 l 657 58 l 684 58 q 688 58 691 56 q 694 55 697 55 q 702 54 703 49 q 706 46 706 40 q 706 33 702 28 q 700 27 696 26 q 693 25 688 22 q 691 22 692 22 q 693 21 694 21 q 696 18 696 16 q 697 13 700 10 l 712 -5 l 702 -5 l 693 7 q 690 10 689 12 q 688 15 687 16 q 687 19 686 19 q 684 19 682 21 l 681 21 q 679 21 679 22 q 679 22 678 22 l 675 22 l 664 22 l 664 -5 z m 505 -5 l 505 58 l 514 58 l 514 1 l 544 1 l 544 -5 z m 961 16 l 969 15 q 966 3 960 0 q 954 -6 943 -6 q 934 -6 928 -3 q 924 0 922 3 q 921 6 918 9 q 915 21 915 27 q 915 33 918 45 q 925 52 928 54 q 933 55 936 56 q 939 58 943 58 q 948 58 952 56 q 957 55 960 54 q 963 51 965 48 q 967 45 969 40 l 960 39 q 960 45 954 48 q 951 49 943 49 q 934 49 931 48 q 928 46 928 44 q 927 42 924 39 q 924 36 923 33 q 922 30 922 27 q 922 18 927 13 q 927 10 928 8 q 930 6 931 3 q 936 1 943 1 q 951 1 955 6 q 960 10 961 16 z m 1047 -5 l 1047 58 l 1059 58 l 1074 13 q 1074 10 1076 8 q 1077 6 1077 3 q 1077 4 1080 13 l 1093 58 l 1105 58 l 1105 -5 l 1098 -5 l 1098 46 l 1080 -5 l 1072 -5 l 1054 48 l 1054 -5 z m 175 111 l 187 106 q 184 93 174 84 q 162 75 148 75 q 135 75 123 81 q 111 90 109 99 q 103 109 103 124 q 103 141 109 151 q 114 162 124 166 q 135 172 148 172 q 165 172 171 165 q 181 162 186 145 l 174 144 q 168 156 163 157 q 157 163 148 163 q 136 163 130 157 q 121 151 118 144 q 117 138 117 124 q 117 111 121 105 q 124 94 130 91 q 138 85 147 85 q 159 85 166 93 q 169 96 172 100 q 174 105 175 111 z m 199 123 q 199 135 202 144 q 205 153 213 159 q 219 166 227 169 q 235 172 244 172 q 258 172 268 166 q 277 162 285 150 q 291 135 291 124 q 291 117 290 111 q 288 105 285 99 q 277 87 267 81 q 255 75 244 75 q 237 75 232 76 q 226 78 220 81 q 210 87 205 99 q 199 109 199 123 z m 213 123 q 213 105 220 94 q 231 85 244 85 q 259 85 267 97 q 277 108 277 124 q 277 130 276 134 q 274 139 273 144 q 270 154 261 157 q 256 163 244 163 q 232 163 222 153 q 213 145 213 123 z m 306 78 l 306 171 l 324 171 l 346 105 q 351 96 351 91 q 354 94 357 106 l 381 171 l 396 171 l 396 78 l 384 78 l 384 156 l 357 78 l 345 78 l 318 157 l 318 78 z m 417 78 l 417 171 l 453 171 l 466 171 q 474 171 478 166 q 480 165 486 157 q 487 154 488 151 q 489 148 489 144 q 489 135 481 124 q 474 117 453 117 l 429 117 l 429 78 z m 429 126 l 454 126 q 468 126 469 132 q 475 133 475 144 q 475 151 474 153 q 468 159 463 159 q 462 162 453 162 l 429 162 z m 505 78 l 505 171 l 517 171 l 517 87 l 564 87 l 564 78 z m 579 78 l 579 171 l 648 171 l 648 162 l 591 162 l 591 132 l 643 132 l 643 120 l 591 120 l 591 87 l 649 87 l 649 78 z m 690 78 l 690 162 l 658 162 l 658 171 l 735 171 l 735 162 l 703 162 l 703 78 z m 748 78 l 748 171 l 817 171 l 817 162 l 760 162 l 760 132 l 813 132 l 813 120 l 760 120 l 760 87 l 819 87 l 819 78 z m 870 106 l 882 108 q 882 100 885 97 q 888 91 895 88 q 898 87 909 87 q 912 87 916 87 q 919 87 922 88 q 927 88 930 94 q 931 97 931 103 q 931 108 930 111 q 928 112 926 113 q 924 114 921 117 q 919 117 904 120 q 897 123 892 124 q 888 124 885 126 q 879 129 876 136 q 873 138 872 141 q 871 144 871 147 q 871 156 877 162 q 879 165 882 166 q 885 168 889 171 q 892 172 907 172 q 918 172 924 169 q 928 166 931 164 q 934 163 936 159 q 942 154 942 145 l 930 144 q 927 156 922 157 q 918 162 907 162 q 892 162 889 157 q 885 153 885 147 q 885 142 889 139 q 889 139 907 132 q 915 130 920 128 q 925 127 928 126 q 933 124 935 122 q 937 120 940 117 q 943 112 943 103 q 943 93 940 88 q 934 82 928 79 q 924 78 920 76 q 915 75 909 75 q 903 75 897 76 q 891 78 888 79 q 880 81 873 91 q 870 97 870 106 z m 961 78 l 961 171 l 1029 171 l 1029 162 l 975 162 l 975 132 l 1027 132 l 1027 120 l 975 120 l 975 87 l 1032 87 l 1032 78 z m 1074 78 l 1074 162 l 1044 162 l 1044 171 l 1117 171 l 1117 162 l 1086 162 l 1086 78 z m 112 190 l 112 283 l 150 283 l 163 283 q 166 283 175 280 q 177 279 179 276 q 181 273 183 270 q 186 267 186 259 q 186 246 177 237 q 172 229 150 229 l 127 229 l 127 190 z m 127 241 l 150 241 q 163 241 168 244 q 174 250 174 256 q 174 259 172 262 q 171 265 169 268 q 165 273 162 273 q 160 274 150 274 l 127 274 z m 201 190 l 201 283 l 268 283 l 268 274 l 214 274 l 214 244 l 265 244 l 265 234 l 214 234 l 214 202 l 271 202 l 271 190 z m 288 190 l 288 283 l 331 283 q 345 283 351 282 q 358 279 361 274 q 364 262 364 259 q 364 249 358 243 q 352 237 337 234 q 340 231 342 231 q 343 231 345 229 q 352 222 355 216 l 372 190 l 357 190 l 343 210 q 342 214 340 217 q 337 220 336 223 q 333 225 332 227 q 331 229 330 229 q 327 231 324 231 q 322 234 316 234 l 303 234 l 303 190 z m 303 243 l 327 243 q 339 243 342 244 q 346 249 349 250 q 351 253 351 259 q 351 265 346 270 q 342 274 331 274 l 303 274 z m 381 222 l 391 222 q 391 219 392 216 q 394 213 396 210 q 397 208 400 206 q 402 204 405 204 q 414 201 420 201 q 423 201 426 201 q 429 201 430 202 q 439 205 441 208 q 441 210 442 212 q 442 214 442 216 q 442 222 441 223 q 436 226 430 229 q 429 231 425 231 q 421 231 415 234 q 402 235 396 240 q 388 246 385 249 q 384 253 384 261 q 384 264 384 268 q 385 271 388 274 q 390 280 400 283 q 403 286 417 286 q 429 286 435 283 q 444 279 447 273 q 453 264 453 259 l 441 256 q 438 267 433 270 q 427 276 417 276 q 405 276 400 270 q 396 267 396 261 q 396 255 400 253 q 402 250 417 247 q 430 241 439 241 q 442 238 445 236 q 448 234 450 231 q 454 226 454 217 q 454 210 450 204 q 447 199 444 197 q 442 195 439 192 q 427 189 420 189 q 409 189 397 192 q 393 195 390 197 q 387 199 384 204 q 382 208 382 212 q 381 216 381 222 z m 468 237 q 468 258 480 273 q 493 286 513 286 q 519 286 524 284 q 529 283 537 280 q 543 277 546 272 q 549 268 552 262 q 558 252 558 237 q 558 223 552 211 q 546 201 537 195 q 525 189 513 189 q 499 189 489 196 q 475 204 474 214 q 468 222 468 237 z m 480 237 q 480 219 489 210 q 498 201 513 201 q 528 201 537 210 q 544 220 544 237 q 544 243 544 249 q 543 255 540 259 q 535 267 531 270 q 523 276 513 276 q 505 276 500 274 q 496 271 489 267 q 480 258 480 237 z m 573 190 l 573 283 l 586 283 l 636 211 l 636 283 l 648 283 l 648 190 l 636 190 l 585 264 l 585 190 z m 658 190 l 694 283 l 708 283 l 747 190 l 732 190 l 721 220 l 682 220 l 670 190 z m 684 229 l 717 229 l 708 255 q 705 261 704 266 q 702 271 700 274 q 700 270 698 266 q 697 261 696 256 z m 754 190 l 754 283 l 768 283 l 768 202 l 814 202 l 814 190 z m 922 283 l 934 283 l 934 231 q 934 214 931 208 q 928 199 921 195 q 913 189 898 189 q 883 189 877 195 q 873 196 870 200 q 867 204 864 208 q 862 211 862 231 l 862 283 l 873 283 l 873 231 q 873 216 876 211 q 879 205 883 204 q 886 202 889 202 q 892 201 897 201 q 909 201 916 205 q 922 211 922 231 z m 951 222 l 963 222 q 963 219 964 216 q 966 213 967 210 q 969 208 971 206 q 973 204 976 204 q 985 201 990 201 q 1000 201 1005 202 q 1008 204 1012 208 q 1014 210 1014 216 q 1014 222 1012 223 q 1009 225 1008 226 q 1008 228 1005 229 q 1002 231 998 231 q 993 231 987 234 q 981 235 976 236 q 970 237 969 240 q 961 243 960 249 q 955 253 955 261 q 955 267 960 274 q 961 280 970 283 q 976 286 988 286 q 993 286 998 286 q 1003 286 1006 283 q 1015 279 1020 273 q 1021 270 1022 266 q 1024 262 1024 259 l 1012 256 q 1009 261 1008 264 q 1008 268 1005 270 q 1000 276 988 276 q 975 276 973 270 q 967 268 967 261 q 967 256 970 253 q 973 250 988 247 q 1005 241 1009 241 q 1014 238 1017 236 q 1020 234 1021 231 q 1026 228 1026 217 q 1026 208 1021 204 q 1018 199 1016 197 q 1014 195 1009 192 q 1000 189 993 189 q 985 189 980 190 q 975 190 970 192 q 967 195 964 197 q 960 199 957 204 q 954 208 952 212 q 951 216 951 222 z m 1044 190 l 1044 283 l 1111 283 l 1111 274 l 1057 274 l 1057 244 l 1107 244 l 1107 234 l 1057 234 l 1057 202 l 1113 202 l 1113 190 z m 307 388 q 307 403 285 406 q 282 406 278 407 q 273 408 267 408 l 258 397 l 234 372 q 228 364 222 358 q 217 352 210 348 q 219 345 232 343 q 235 343 240 343 q 246 343 250 345 q 273 346 285 357 q 307 375 307 388 z m 324 433 q 324 439 316 439 q 313 439 291 432 l 274 417 q 271 414 268 408 l 294 412 q 300 412 310 420 q 324 429 324 433 z m 343 460 q 343 457 339 457 q 336 457 335 458 q 334 459 331 459 q 316 456 297 436 q 300 439 304 440 q 307 442 310 444 q 321 445 330 444 q 336 444 336 436 l 336 430 q 328 417 294 409 q 321 406 321 391 q 321 373 292 354 q 282 348 270 344 q 259 340 247 339 q 228 334 217 336 q 208 336 198 340 q 189 334 181 334 l 178 334 q 169 337 163 339 l 168 339 q 180 339 187 345 l 187 346 q 177 340 165 340 q 148 340 139 349 q 124 360 124 381 q 124 387 126 392 q 127 397 130 405 q 141 427 166 444 q 174 451 182 454 q 190 456 198 457 q 214 457 220 451 q 213 456 205 456 q 196 456 186 450 q 171 444 169 441 q 154 433 139 415 q 126 394 126 379 q 126 372 128 368 q 129 363 132 358 q 138 349 148 346 q 153 345 156 344 q 159 343 162 343 q 168 343 172 344 q 177 346 183 349 q 166 361 166 382 q 169 402 190 417 l 187 412 q 184 412 181 406 q 172 397 172 387 q 172 367 195 354 q 207 361 207 363 q 210 367 213 370 q 216 373 219 376 q 222 379 222 384 q 223 388 226 393 l 226 391 q 226 384 225 379 l 243 400 q 289 453 319 462 q 306 466 298 466 q 279 465 256 453 q 229 439 229 420 q 229 414 234 409 q 235 408 235 406 q 226 412 226 421 q 226 438 246 454 q 270 472 297 469 q 306 469 324 463 l 330 463 q 337 463 342 460 z m 346 363 q 345 357 334 346 q 324 340 316 340 q 309 340 309 349 q 309 357 318 369 l 316 369 q 315 367 310 367 q 310 367 309 369 q 313 369 324 379 l 325 379 l 330 385 q 334 390 334 393 l 339 393 q 343 393 343 391 q 343 385 334 375 l 324 364 q 315 351 315 346 q 315 342 321 342 q 328 342 339 357 q 340 358 342 359 q 343 360 346 363 z m 354 405 q 348 396 339 396 q 334 396 328 400 l 333 400 q 343 400 346 411 l 346 414 l 354 411 q 355 409 354 405 z m 406 433 q 406 426 360 370 l 358 370 q 345 354 345 345 q 345 340 349 340 q 358 340 369 355 q 370 357 372 358 q 373 358 375 361 q 375 354 363 345 q 355 339 346 339 q 337 340 337 348 q 336 355 367 394 l 385 417 l 394 426 q 399 432 402 441 q 406 438 406 433 z m 432 433 q 432 427 384 370 q 369 352 369 345 q 369 340 375 340 q 381 340 394 355 l 400 361 q 399 354 387 345 q 379 339 370 339 q 361 340 361 348 q 361 357 391 394 l 409 417 l 418 426 q 426 435 427 441 q 432 438 432 433 z m 403 333 q 379 328 366 315 q 355 301 355 298 q 355 292 361 292 q 363 291 372 294 q 375 297 378 300 q 382 304 387 309 z m 447 430 q 444 409 427 393 q 427 391 426 391 q 426 391 426 390 q 421 384 416 378 q 411 373 406 366 q 403 363 403 360 q 402 363 405 369 q 396 355 396 348 q 396 343 400 343 q 402 343 408 346 q 430 364 439 397 l 439 393 l 439 388 q 442 385 442 381 q 442 378 435 366 l 423 346 l 409 328 q 414 331 426 337 l 424 336 q 421 333 416 329 q 411 325 406 318 l 394 303 l 388 295 q 379 286 369 283 q 360 283 355 289 q 346 292 352 303 q 354 304 356 307 q 357 310 360 313 l 361 315 l 351 313 q 376 331 393 333 q 394 333 396 334 q 397 334 399 334 l 400 334 l 403 334 l 412 348 q 406 342 402 341 q 397 340 394 340 q 387 340 387 348 q 387 366 418 394 l 421 396 l 436 411 q 439 417 442 422 q 445 426 447 430 z m 618 453 q 609 456 603 456 q 588 456 575 452 q 562 448 549 441 q 543 438 539 434 q 535 430 531 427 q 549 426 579 408 q 612 441 636 450 z m 649 447 q 643 445 636 443 q 630 441 622 433 q 618 430 600 412 l 589 402 l 604 393 q 607 397 613 404 q 619 411 627 420 z m 663 472 q 663 471 661 469 q 661 459 657 448 l 658 447 l 657 447 q 649 429 637 417 l 613 388 q 616 387 618 387 q 619 387 622 385 q 622 382 621 382 q 618 382 616 383 q 615 384 612 385 q 594 366 592 349 q 589 343 589 340 q 589 334 595 334 q 607 334 621 354 l 627 363 q 642 384 646 400 l 646 405 q 646 403 648 402 l 648 400 q 645 379 633 361 l 613 322 q 613 328 618 342 q 600 328 591 328 q 577 328 580 346 q 580 355 586 366 q 592 378 601 391 l 586 399 l 573 385 q 568 379 560 370 q 552 361 540 346 q 516 322 498 322 l 493 322 q 489 322 480 327 q 480 327 483 327 q 496 324 510 337 q 498 331 481 331 q 465 331 454 339 l 456 339 q 441 349 441 370 q 441 385 447 393 q 456 417 481 433 q 490 441 498 443 q 507 445 516 447 q 531 447 537 441 l 535 441 q 532 444 522 444 q 507 444 484 430 q 468 418 456 405 q 442 384 442 367 q 442 343 465 336 q 474 333 478 333 q 510 334 547 375 l 576 405 q 553 418 525 418 l 523 418 q 520 412 520 405 q 522 405 528 396 q 517 402 517 411 q 517 415 519 418 q 504 415 499 412 q 472 402 475 381 q 475 367 484 357 l 487 354 q 469 372 469 385 q 469 405 487 418 q 502 429 525 429 q 546 453 577 457 q 585 459 601 459 q 609 459 624 456 l 642 451 l 651 451 l 652 450 q 658 460 661 475 l 663 475 z m 682 375 q 682 370 681 367 q 673 360 668 354 q 663 348 658 340 l 660 340 l 661 340 q 660 339 658 339 q 657 339 657 337 q 649 337 649 340 q 649 346 663 360 q 673 373 673 376 q 675 381 669 385 q 651 360 637 354 l 631 351 l 628 352 q 634 352 648 367 q 661 379 666 387 q 666 388 665 388 q 664 388 664 390 q 664 391 675 400 q 675 402 676 402 l 678 400 q 678 399 670 388 q 682 384 682 375 z m 726 379 q 726 388 720 385 q 714 385 711 382 q 706 379 697 367 q 688 355 688 348 q 687 345 691 345 q 700 348 706 355 q 712 367 712 372 q 712 375 711 375 q 717 375 717 367 l 715 364 q 718 367 720 371 q 723 375 726 378 z m 754 393 q 748 393 741 385 q 735 378 729 369 q 723 360 715 348 q 708 333 702 324 q 696 316 694 313 q 675 289 664 289 q 655 288 651 295 q 651 303 651 303 q 651 310 657 316 q 654 315 649 315 q 664 330 682 334 q 684 334 684 335 q 685 336 688 336 l 690 334 q 661 325 655 307 q 654 304 654 300 q 654 298 655 297 q 655 295 657 295 q 669 294 685 318 l 696 333 l 702 342 q 697 340 694 340 q 682 340 682 352 q 682 366 702 384 q 711 393 718 393 q 729 393 729 381 l 730 381 l 738 390 q 745 397 751 397 q 756 397 759 393 z m 781 382 q 781 373 765 364 q 763 363 762 363 l 760 363 q 756 363 751 370 q 754 367 759 367 q 769 373 772 384 l 772 387 l 772 388 l 772 390 q 766 390 753 376 l 753 375 q 748 369 748 365 q 747 361 747 358 q 745 360 745 367 q 742 361 741 357 q 738 351 738 346 q 738 345 739 343 q 739 340 745 340 q 760 346 771 355 q 774 358 778 361 q 775 357 772 353 q 769 349 762 345 q 750 337 741 340 q 741 339 739 340 q 730 340 730 349 q 730 364 747 379 q 756 393 771 393 q 774 393 775 391 q 781 387 781 382 z m 841 433 q 841 427 793 370 q 780 354 780 345 q 780 340 784 340 q 793 340 804 355 q 805 357 806 358 q 808 358 810 361 q 810 354 798 345 q 790 339 780 339 q 772 342 772 348 q 772 360 801 394 l 819 417 l 828 426 q 837 435 837 441 q 841 438 841 433 z m 922 387 q 897 396 895 415 q 888 411 880 407 q 873 403 868 399 q 840 372 840 349 q 840 340 844 339 l 847 339 l 850 339 q 873 339 892 354 q 898 360 906 368 q 915 375 922 387 z m 952 430 l 940 430 q 922 429 897 417 q 900 396 925 391 l 936 405 z m 979 457 q 960 457 944 454 q 928 451 916 444 q 924 451 935 456 q 946 460 960 463 q 930 465 907 445 q 903 442 897 430 q 907 433 917 434 q 927 436 939 435 q 942 435 946 435 q 951 435 958 433 q 961 438 966 444 q 972 450 979 457 z m 1074 459 q 1071 454 1067 450 q 1063 447 1056 444 q 1044 436 1033 436 l 1030 436 q 1029 436 1027 438 q 1029 439 1029 440 q 1029 442 1032 445 q 1018 456 994 456 l 988 448 l 973 430 q 985 429 996 428 q 1006 426 1015 426 q 1036 426 1044 430 q 1038 424 1021 421 q 1008 418 994 423 l 970 427 q 964 420 959 414 q 954 409 951 403 l 940 388 l 948 388 q 985 391 991 406 l 993 406 q 988 397 973 390 q 966 387 959 386 q 952 384 946 384 l 939 384 q 928 372 922 363 q 915 354 909 348 q 889 327 873 327 q 865 328 856 328 q 871 328 888 343 q 867 334 855 334 l 846 336 l 858 324 q 846 330 838 337 q 837 337 831 340 q 813 354 811 375 q 811 382 811 388 q 811 394 814 400 q 819 414 826 424 q 834 433 844 444 q 870 466 889 466 q 900 466 907 460 l 906 459 q 901 463 892 463 q 873 460 852 444 q 834 429 825 414 q 813 393 813 375 q 816 348 837 340 q 834 349 835 358 q 838 381 852 397 q 868 418 897 430 q 900 433 900 439 l 913 453 q 933 469 964 469 q 972 469 977 469 q 982 469 990 468 l 991 468 q 1002 475 1010 479 q 1018 483 1027 481 q 1033 481 1036 478 q 1020 475 1020 475 q 1017 474 1013 472 q 1009 471 1005 468 q 1011 466 1017 466 q 1023 465 1030 462 q 1045 457 1054 457 q 1068 457 1074 459 z m 982 354 q 978 358 978 364 q 978 367 978 370 q 979 372 979 375 q 964 355 966 346 q 966 343 969 343 q 972 343 982 354 z m 1002 385 q 1002 388 999 388 q 996 388 993 387 q 991 385 988 379 q 981 364 981 360 q 981 355 982 354 l 987 358 l 987 360 l 987 358 q 988 360 988 360 q 988 361 990 363 q 993 372 993 375 q 993 376 991 378 q 994 372 994 370 q 999 375 1002 385 z m 1008 381 q 1008 373 997 358 q 984 345 978 340 l 966 340 q 957 340 957 348 q 957 360 973 379 q 984 393 997 393 q 1008 393 1008 381 z m 1057 384 q 1059 381 1051 367 q 1042 355 1039 352 l 1021 336 q 1011 325 1008 313 q 1009 331 1021 345 q 1027 351 1030 356 q 1033 360 1036 366 q 1038 367 1039 372 l 1039 367 q 1039 367 1038 364 q 1041 367 1047 379 q 1047 381 1048 382 q 1048 382 1048 384 q 1048 391 1041 388 q 1041 388 1029 379 q 1026 372 1020 366 q 1015 361 1009 354 q 1002 345 1000 340 q 999 339 993 327 q 993 330 992 334 q 991 337 993 340 q 996 351 1006 361 l 1015 372 q 1023 382 1023 388 q 1023 390 1022 392 q 1021 393 1021 394 q 1030 391 1030 385 q 1039 393 1050 393 q 1056 390 1057 384 z m 1116 405 l 1093 405 q 1092 402 1084 393 q 1075 384 1063 367 q 1060 367 1057 360 q 1051 352 1051 345 q 1051 340 1054 340 q 1062 340 1075 355 l 1077 357 q 1078 358 1078 359 q 1078 360 1080 361 q 1080 354 1069 345 q 1062 339 1051 339 q 1044 342 1042 348 q 1042 351 1048 363 l 1066 384 l 1083 405 l 1057 408 q 1051 409 1042 409 l 1029 409 q 1011 409 993 402 l 991 402 q 1006 417 1038 417 q 1039 417 1050 414 q 1062 412 1083 409 l 1087 408 q 1092 415 1096 420 q 1099 426 1102 430 q 1105 429 1105 423 q 1105 418 1102 415 l 1096 406 l 1108 405 l 1117 405 l 1119 405 l 1123 405 z m 1126 385 q 1126 381 1116 376 l 1114 375 q 1119 379 1119 387 l 1119 393 l 1114 393 q 1107 393 1105 387 q 1105 384 1110 361 q 1111 340 1086 340 q 1072 340 1069 349 q 1068 351 1068 354 q 1068 366 1086 369 l 1092 367 l 1089 367 q 1083 367 1080 364 q 1075 357 1075 354 q 1075 342 1087 342 q 1099 342 1099 358 q 1099 366 1098 370 q 1096 375 1096 381 q 1096 396 1110 396 q 1113 396 1114 395 q 1116 394 1119 394 q 1125 391 1125 390 q 1126 388 1126 385 z"},"J":{"x_min":0,"x_max":398,"ha":398,"o":"m 215 308 q 207 297 198 306 q 189 314 182 329 q 174 344 169 360 q 164 375 165 380 q 174 421 194 449 q 215 477 240 494 q 264 511 290 518 q 316 525 337 524 q 364 522 378 500 q 393 479 400 451 q 406 423 407 396 q 408 368 407 355 q 405 307 394 254 q 384 201 366 149 q 347 97 322 50 q 296 2 264 -34 q 231 -70 192 -92 q 153 -113 109 -113 q 77 -113 52 -102 q 27 -91 12 -72 q -4 -52 -8 -24 q -12 3 -2 36 q 6 65 22 91 q 38 117 62 136 q 85 154 116 163 q 146 172 184 167 q 193 166 203 162 q 213 159 219 154 q 225 150 224 145 q 222 140 209 134 q 159 140 119 110 q 79 81 63 27 q 57 9 54 -12 q 52 -33 56 -51 q 61 -69 74 -80 q 87 -92 111 -91 q 143 -89 172 -65 q 201 -41 226 -3 q 250 35 270 83 q 290 131 304 180 q 319 230 327 277 q 335 324 336 359 q 338 418 333 448 q 328 479 320 483 q 312 486 301 481 q 290 476 278 464 q 266 453 255 436 q 244 420 238 401 q 229 375 226 360 q 224 345 224 336 q 223 327 222 321 q 221 315 215 308 z"},"V":{"x_min":0,"x_max":263,"ha":263,"o":"m 100 10 q 98 80 86 149 q 75 218 59 274 q 43 330 27 368 q 11 406 2 414 q -4 421 2 438 q 9 456 20 472 q 31 489 43 498 q 55 508 60 501 q 75 480 88 438 q 100 396 110 344 q 120 292 128 234 q 136 177 141 124 q 152 164 170 208 q 189 252 210 296 q 231 340 254 380 q 278 421 300 454 q 322 486 341 508 q 360 530 373 537 q 380 541 392 546 q 403 550 413 552 q 423 555 429 554 q 435 552 432 543 q 401 520 372 482 q 343 443 316 395 q 289 347 264 292 q 240 237 219 182 q 198 126 180 73 q 163 20 150 -24 l 150 -33 q 150 -43 142 -42 q 134 -41 125 -34 q 116 -26 108 -14 q 100 -2 100 10 z"},"7":{"x_min":0,"x_max":1219,"ha":1219,"o":"m 876 781 l 739 657 l 775 471 l 615 565 l 450 471 l 489 652 l 351 781 l 537 801 l 615 972 l 690 802 z m 682 576 l 639 834 l 586 834 l 541 576 l 564 562 l 583 576 l 592 634 l 631 634 l 642 576 l 663 562 z m 628 672 l 598 672 l 612 774 z m 610 21 l 631 21 l 624 39 q 622 42 622 44 q 622 46 619 49 q 619 45 616 39 z m 352 -5 l 352 3 l 363 3 l 363 -5 z m 844 -5 l 844 58 l 852 58 l 852 1 l 883 1 l 883 -5 z m 787 -5 l 787 58 l 832 58 l 832 49 l 795 49 l 795 30 l 829 30 l 829 22 l 795 22 l 795 1 l 832 1 l 832 -5 z m 565 -5 l 565 21 l 541 58 l 552 58 l 564 39 q 567 30 570 28 q 571 30 572 33 q 574 36 577 39 l 589 58 l 598 58 l 573 21 l 573 -5 z m 376 -5 l 376 58 l 400 58 q 403 58 406 56 q 408 55 409 55 q 415 54 417 49 q 420 46 420 40 q 420 36 417 34 q 415 28 411 28 q 415 27 420 22 q 423 16 423 13 q 423 10 422 8 q 421 7 421 6 q 420 0 415 0 q 414 -3 412 -3 q 411 -3 409 -5 l 400 -5 z m 205 -5 l 187 58 l 196 58 l 205 16 q 207 12 207 9 q 207 6 208 3 q 210 10 210 15 l 222 58 l 232 58 l 241 25 q 243 18 244 14 q 246 9 246 3 q 247 6 247 9 q 247 12 249 16 l 259 58 l 267 58 l 249 -5 l 241 -5 l 229 42 q 228 46 228 49 q 226 46 226 42 l 213 -5 z m 123 -5 l 105 58 l 115 58 l 123 16 q 123 9 127 3 q 129 10 129 15 l 141 58 l 150 58 l 160 25 q 162 18 162 14 q 163 9 163 3 q 166 6 166 9 q 166 12 168 16 l 177 58 l 186 58 l 168 -5 l 160 -5 l 148 42 q 147 46 147 49 q 144 46 144 42 l 130 -5 z m 384 30 l 397 30 q 403 30 405 33 q 409 33 409 34 q 411 36 411 40 q 411 45 409 46 l 408 46 q 406 46 406 47 q 406 48 405 48 q 403 49 396 49 l 384 49 z m 285 -5 l 268 58 l 277 58 l 286 16 q 288 12 288 9 q 288 6 291 3 q 291 9 292 11 q 292 13 292 15 l 304 58 l 313 58 l 324 25 q 325 18 326 14 q 327 9 327 3 q 330 6 330 9 q 330 12 331 16 l 342 58 l 349 58 l 331 -5 l 324 -5 l 312 42 q 310 46 310 49 q 307 46 307 42 l 294 -5 z m 664 28 l 682 28 q 685 28 688 29 q 690 30 693 30 q 696 30 696 34 q 697 36 697 40 q 697 45 694 48 q 693 49 684 49 l 664 49 z m 384 1 l 400 1 q 403 1 405 3 l 409 3 q 411 6 414 7 l 414 13 q 414 16 411 19 q 411 22 408 22 l 397 22 l 384 22 z m 435 -5 l 435 58 l 442 58 l 442 -5 z m 985 25 q 985 12 990 7 q 996 1 1006 1 q 1017 1 1021 7 q 1027 12 1027 27 q 1027 34 1026 39 q 1023 46 1018 48 q 1014 49 1006 49 q 997 49 993 45 q 985 39 985 25 z m 976 25 q 976 42 985 49 q 991 58 1006 58 q 1011 58 1014 56 q 1018 55 1021 54 q 1026 52 1028 49 q 1030 46 1033 42 q 1035 39 1035 27 q 1035 13 1032 9 q 1027 1 1021 -3 q 1015 -6 1006 -6 q 1002 -6 998 -6 q 994 -5 990 -3 q 987 0 984 3 q 982 6 981 9 q 979 13 978 17 q 976 21 976 25 z m 592 -5 l 616 58 l 625 58 l 651 -5 l 642 -5 l 634 13 l 609 13 l 600 -5 z m 459 -5 l 459 58 l 466 58 l 466 1 l 495 1 l 495 -5 z m 892 -5 l 892 3 l 903 3 l 903 -5 z m 748 19 l 748 27 l 774 27 l 774 3 q 768 -3 762 -5 q 759 -5 755 -6 q 751 -6 748 -6 q 739 -6 733 -3 q 729 0 726 2 q 723 4 721 9 q 720 13 718 17 q 717 21 717 25 q 717 31 718 34 q 720 37 721 42 q 724 51 732 54 q 735 55 740 56 q 744 58 748 58 q 756 58 760 55 q 766 54 768 49 q 772 45 774 40 l 766 39 q 766 40 762 45 q 762 48 756 49 l 748 49 l 739 49 q 735 48 732 45 q 732 43 727 39 q 727 36 726 33 q 726 30 726 27 q 726 16 729 13 q 735 4 736 3 q 741 1 748 1 q 754 1 759 3 q 762 6 764 6 q 765 6 766 7 l 766 19 z m 657 -5 l 657 58 l 684 58 q 688 58 691 56 q 694 55 697 55 q 702 54 703 49 q 706 46 706 40 q 706 33 702 28 q 700 27 696 26 q 693 25 688 22 q 691 22 692 22 q 693 21 694 21 q 696 18 696 16 q 697 13 700 10 l 712 -5 l 702 -5 l 693 7 q 690 10 689 12 q 688 15 687 16 q 687 19 686 19 q 684 19 682 21 l 681 21 q 679 21 679 22 q 679 22 678 22 l 675 22 l 664 22 l 664 -5 z m 505 -5 l 505 58 l 514 58 l 514 1 l 544 1 l 544 -5 z m 961 16 l 969 15 q 966 3 960 0 q 954 -6 943 -6 q 934 -6 928 -3 q 924 0 922 3 q 921 6 918 9 q 915 21 915 27 q 915 33 918 45 q 925 52 928 54 q 933 55 936 56 q 939 58 943 58 q 948 58 952 56 q 957 55 960 54 q 963 51 965 48 q 967 45 969 40 l 960 39 q 960 45 954 48 q 951 49 943 49 q 934 49 931 48 q 928 46 928 44 q 927 42 924 39 q 924 36 923 33 q 922 30 922 27 q 922 18 927 13 q 927 10 928 8 q 930 6 931 3 q 936 1 943 1 q 951 1 955 6 q 960 10 961 16 z m 1047 -5 l 1047 58 l 1059 58 l 1074 13 q 1074 10 1076 8 q 1077 6 1077 3 q 1077 4 1080 13 l 1093 58 l 1105 58 l 1105 -5 l 1098 -5 l 1098 46 l 1080 -5 l 1072 -5 l 1054 48 l 1054 -5 z m 610 21 l 631 21 l 624 39 q 622 42 622 44 q 622 46 619 49 q 619 45 616 39 z m 352 -5 l 352 3 l 363 3 l 363 -5 z m 844 -5 l 844 58 l 852 58 l 852 1 l 883 1 l 883 -5 z m 787 -5 l 787 58 l 832 58 l 832 49 l 795 49 l 795 30 l 829 30 l 829 22 l 795 22 l 795 1 l 832 1 l 832 -5 z m 565 -5 l 565 21 l 541 58 l 552 58 l 564 39 q 567 30 570 28 q 571 30 572 33 q 574 36 577 39 l 589 58 l 598 58 l 573 21 l 573 -5 z m 376 -5 l 376 58 l 400 58 q 403 58 406 56 q 408 55 409 55 q 415 54 417 49 q 420 46 420 40 q 420 36 417 34 q 415 28 411 28 q 415 27 420 22 q 423 16 423 13 q 423 10 422 8 q 421 7 421 6 q 420 0 415 0 q 414 -3 412 -3 q 411 -3 409 -5 l 400 -5 z m 205 -5 l 187 58 l 196 58 l 205 16 q 207 12 207 9 q 207 6 208 3 q 210 10 210 15 l 222 58 l 232 58 l 241 25 q 243 18 244 14 q 246 9 246 3 q 247 6 247 9 q 247 12 249 16 l 259 58 l 267 58 l 249 -5 l 241 -5 l 229 42 q 228 46 228 49 q 226 46 226 42 l 213 -5 z m 123 -5 l 105 58 l 115 58 l 123 16 q 123 9 127 3 q 129 10 129 15 l 141 58 l 150 58 l 160 25 q 162 18 162 14 q 163 9 163 3 q 166 6 166 9 q 166 12 168 16 l 177 58 l 186 58 l 168 -5 l 160 -5 l 148 42 q 147 46 147 49 q 144 46 144 42 l 130 -5 z m 384 30 l 397 30 q 403 30 405 33 q 409 33 409 34 q 411 36 411 40 q 411 45 409 46 l 408 46 q 406 46 406 47 q 406 48 405 48 q 403 49 396 49 l 384 49 z m 285 -5 l 268 58 l 277 58 l 286 16 q 288 12 288 9 q 288 6 291 3 q 291 9 292 11 q 292 13 292 15 l 304 58 l 313 58 l 324 25 q 325 18 326 14 q 327 9 327 3 q 330 6 330 9 q 330 12 331 16 l 342 58 l 349 58 l 331 -5 l 324 -5 l 312 42 q 310 46 310 49 q 307 46 307 42 l 294 -5 z m 664 28 l 682 28 q 685 28 688 29 q 690 30 693 30 q 696 30 696 34 q 697 36 697 40 q 697 45 694 48 q 693 49 684 49 l 664 49 z m 384 1 l 400 1 q 403 1 405 3 l 409 3 q 411 6 414 7 l 414 13 q 414 16 411 19 q 411 22 408 22 l 397 22 l 384 22 z m 435 -5 l 435 58 l 442 58 l 442 -5 z m 985 25 q 985 12 990 7 q 996 1 1006 1 q 1017 1 1021 7 q 1027 12 1027 27 q 1027 34 1026 39 q 1023 46 1018 48 q 1014 49 1006 49 q 997 49 993 45 q 985 39 985 25 z m 976 25 q 976 42 985 49 q 991 58 1006 58 q 1011 58 1014 56 q 1018 55 1021 54 q 1026 52 1028 49 q 1030 46 1033 42 q 1035 39 1035 27 q 1035 13 1032 9 q 1027 1 1021 -3 q 1015 -6 1006 -6 q 1002 -6 998 -6 q 994 -5 990 -3 q 987 0 984 3 q 982 6 981 9 q 979 13 978 17 q 976 21 976 25 z m 592 -5 l 616 58 l 625 58 l 651 -5 l 642 -5 l 634 13 l 609 13 l 600 -5 z m 459 -5 l 459 58 l 466 58 l 466 1 l 495 1 l 495 -5 z m 892 -5 l 892 3 l 903 3 l 903 -5 z m 748 19 l 748 27 l 774 27 l 774 3 q 768 -3 762 -5 q 759 -5 755 -6 q 751 -6 748 -6 q 739 -6 733 -3 q 729 0 726 2 q 723 4 721 9 q 720 13 718 17 q 717 21 717 25 q 717 31 718 34 q 720 37 721 42 q 724 51 732 54 q 735 55 740 56 q 744 58 748 58 q 756 58 760 55 q 766 54 768 49 q 772 45 774 40 l 766 39 q 766 40 762 45 q 762 48 756 49 l 748 49 l 739 49 q 735 48 732 45 q 732 43 727 39 q 727 36 726 33 q 726 30 726 27 q 726 16 729 13 q 735 4 736 3 q 741 1 748 1 q 754 1 759 3 q 762 6 764 6 q 765 6 766 7 l 766 19 z m 657 -5 l 657 58 l 684 58 q 688 58 691 56 q 694 55 697 55 q 702 54 703 49 q 706 46 706 40 q 706 33 702 28 q 700 27 696 26 q 693 25 688 22 q 691 22 692 22 q 693 21 694 21 q 696 18 696 16 q 697 13 700 10 l 712 -5 l 702 -5 l 693 7 q 690 10 689 12 q 688 15 687 16 q 687 19 686 19 q 684 19 682 21 l 681 21 q 679 21 679 22 q 679 22 678 22 l 675 22 l 664 22 l 664 -5 z m 505 -5 l 505 58 l 514 58 l 514 1 l 544 1 l 544 -5 z m 961 16 l 969 15 q 966 3 960 0 q 954 -6 943 -6 q 934 -6 928 -3 q 924 0 922 3 q 921 6 918 9 q 915 21 915 27 q 915 33 918 45 q 925 52 928 54 q 933 55 936 56 q 939 58 943 58 q 948 58 952 56 q 957 55 960 54 q 963 51 965 48 q 967 45 969 40 l 960 39 q 960 45 954 48 q 951 49 943 49 q 934 49 931 48 q 928 46 928 44 q 927 42 924 39 q 924 36 923 33 q 922 30 922 27 q 922 18 927 13 q 927 10 928 8 q 930 6 931 3 q 936 1 943 1 q 951 1 955 6 q 960 10 961 16 z m 1047 -5 l 1047 58 l 1059 58 l 1074 13 q 1074 10 1076 8 q 1077 6 1077 3 q 1077 4 1080 13 l 1093 58 l 1105 58 l 1105 -5 l 1098 -5 l 1098 46 l 1080 -5 l 1072 -5 l 1054 48 l 1054 -5 z m 610 21 l 631 21 l 624 39 q 622 42 622 44 q 622 46 619 49 q 619 45 616 39 z m 352 -5 l 352 3 l 363 3 l 363 -5 z m 844 -5 l 844 58 l 852 58 l 852 1 l 883 1 l 883 -5 z m 787 -5 l 787 58 l 832 58 l 832 49 l 795 49 l 795 30 l 829 30 l 829 22 l 795 22 l 795 1 l 832 1 l 832 -5 z m 565 -5 l 565 21 l 541 58 l 552 58 l 564 39 q 567 30 570 28 q 571 30 572 33 q 574 36 577 39 l 589 58 l 598 58 l 573 21 l 573 -5 z m 376 -5 l 376 58 l 400 58 q 403 58 406 56 q 408 55 409 55 q 415 54 417 49 q 420 46 420 40 q 420 36 417 34 q 415 28 411 28 q 415 27 420 22 q 423 16 423 13 q 423 10 422 8 q 421 7 421 6 q 420 0 415 0 q 414 -3 412 -3 q 411 -3 409 -5 l 400 -5 z m 205 -5 l 187 58 l 196 58 l 205 16 q 207 12 207 9 q 207 6 208 3 q 210 10 210 15 l 222 58 l 232 58 l 241 25 q 243 18 244 14 q 246 9 246 3 q 247 6 247 9 q 247 12 249 16 l 259 58 l 267 58 l 249 -5 l 241 -5 l 229 42 q 228 46 228 49 q 226 46 226 42 l 213 -5 z m 123 -5 l 105 58 l 115 58 l 123 16 q 123 9 127 3 q 129 10 129 15 l 141 58 l 150 58 l 160 25 q 162 18 162 14 q 163 9 163 3 q 166 6 166 9 q 166 12 168 16 l 177 58 l 186 58 l 168 -5 l 160 -5 l 148 42 q 147 46 147 49 q 144 46 144 42 l 130 -5 z m 384 30 l 397 30 q 403 30 405 33 q 409 33 409 34 q 411 36 411 40 q 411 45 409 46 l 408 46 q 406 46 406 47 q 406 48 405 48 q 403 49 396 49 l 384 49 z m 285 -5 l 268 58 l 277 58 l 286 16 q 288 12 288 9 q 288 6 291 3 q 291 9 292 11 q 292 13 292 15 l 304 58 l 313 58 l 324 25 q 325 18 326 14 q 327 9 327 3 q 330 6 330 9 q 330 12 331 16 l 342 58 l 349 58 l 331 -5 l 324 -5 l 312 42 q 310 46 310 49 q 307 46 307 42 l 294 -5 z m 664 28 l 682 28 q 685 28 688 29 q 690 30 693 30 q 696 30 696 34 q 697 36 697 40 q 697 45 694 48 q 693 49 684 49 l 664 49 z m 384 1 l 400 1 q 403 1 405 3 l 409 3 q 411 6 414 7 l 414 13 q 414 16 411 19 q 411 22 408 22 l 397 22 l 384 22 z m 435 -5 l 435 58 l 442 58 l 442 -5 z m 985 25 q 985 12 990 7 q 996 1 1006 1 q 1017 1 1021 7 q 1027 12 1027 27 q 1027 34 1026 39 q 1023 46 1018 48 q 1014 49 1006 49 q 997 49 993 45 q 985 39 985 25 z m 976 25 q 976 42 985 49 q 991 58 1006 58 q 1011 58 1014 56 q 1018 55 1021 54 q 1026 52 1028 49 q 1030 46 1033 42 q 1035 39 1035 27 q 1035 13 1032 9 q 1027 1 1021 -3 q 1015 -6 1006 -6 q 1002 -6 998 -6 q 994 -5 990 -3 q 987 0 984 3 q 982 6 981 9 q 979 13 978 17 q 976 21 976 25 z m 592 -5 l 616 58 l 625 58 l 651 -5 l 642 -5 l 634 13 l 609 13 l 600 -5 z m 459 -5 l 459 58 l 466 58 l 466 1 l 495 1 l 495 -5 z m 892 -5 l 892 3 l 903 3 l 903 -5 z m 748 19 l 748 27 l 774 27 l 774 3 q 768 -3 762 -5 q 759 -5 755 -6 q 751 -6 748 -6 q 739 -6 733 -3 q 729 0 726 2 q 723 4 721 9 q 720 13 718 17 q 717 21 717 25 q 717 31 718 34 q 720 37 721 42 q 724 51 732 54 q 735 55 740 56 q 744 58 748 58 q 756 58 760 55 q 766 54 768 49 q 772 45 774 40 l 766 39 q 766 40 762 45 q 762 48 756 49 l 748 49 l 739 49 q 735 48 732 45 q 732 43 727 39 q 727 36 726 33 q 726 30 726 27 q 726 16 729 13 q 735 4 736 3 q 741 1 748 1 q 754 1 759 3 q 762 6 764 6 q 765 6 766 7 l 766 19 z m 657 -5 l 657 58 l 684 58 q 688 58 691 56 q 694 55 697 55 q 702 54 703 49 q 706 46 706 40 q 706 33 702 28 q 700 27 696 26 q 693 25 688 22 q 691 22 692 22 q 693 21 694 21 q 696 18 696 16 q 697 13 700 10 l 712 -5 l 702 -5 l 693 7 q 690 10 689 12 q 688 15 687 16 q 687 19 686 19 q 684 19 682 21 l 681 21 q 679 21 679 22 q 679 22 678 22 l 675 22 l 664 22 l 664 -5 z m 505 -5 l 505 58 l 514 58 l 514 1 l 544 1 l 544 -5 z m 961 16 l 969 15 q 966 3 960 0 q 954 -6 943 -6 q 934 -6 928 -3 q 924 0 922 3 q 921 6 918 9 q 915 21 915 27 q 915 33 918 45 q 925 52 928 54 q 933 55 936 56 q 939 58 943 58 q 948 58 952 56 q 957 55 960 54 q 963 51 965 48 q 967 45 969 40 l 960 39 q 960 45 954 48 q 951 49 943 49 q 934 49 931 48 q 928 46 928 44 q 927 42 924 39 q 924 36 923 33 q 922 30 922 27 q 922 18 927 13 q 927 10 928 8 q 930 6 931 3 q 936 1 943 1 q 951 1 955 6 q 960 10 961 16 z m 1047 -5 l 1047 58 l 1059 58 l 1074 13 q 1074 10 1076 8 q 1077 6 1077 3 q 1077 4 1080 13 l 1093 58 l 1105 58 l 1105 -5 l 1098 -5 l 1098 46 l 1080 -5 l 1072 -5 l 1054 48 l 1054 -5 z m 175 111 l 187 106 q 184 93 174 84 q 162 75 148 75 q 135 75 123 81 q 111 90 109 99 q 103 109 103 124 q 103 141 109 151 q 114 162 124 166 q 135 172 148 172 q 165 172 171 165 q 181 162 186 145 l 174 144 q 168 156 163 157 q 157 163 148 163 q 136 163 130 157 q 121 151 118 144 q 117 138 117 124 q 117 111 121 105 q 124 94 130 91 q 138 85 147 85 q 159 85 166 93 q 169 96 172 100 q 174 105 175 111 z m 199 123 q 199 135 202 144 q 205 153 213 159 q 219 166 227 169 q 235 172 244 172 q 258 172 268 166 q 277 162 285 150 q 291 135 291 124 q 291 117 290 111 q 288 105 285 99 q 277 87 267 81 q 255 75 244 75 q 237 75 232 76 q 226 78 220 81 q 210 87 205 99 q 199 109 199 123 z m 213 123 q 213 105 220 94 q 231 85 244 85 q 259 85 267 97 q 277 108 277 124 q 277 130 276 134 q 274 139 273 144 q 270 154 261 157 q 256 163 244 163 q 232 163 222 153 q 213 145 213 123 z m 306 78 l 306 171 l 324 171 l 346 105 q 351 96 351 91 q 354 94 357 106 l 381 171 l 396 171 l 396 78 l 384 78 l 384 156 l 357 78 l 345 78 l 318 157 l 318 78 z m 417 78 l 417 171 l 453 171 l 466 171 q 474 171 478 166 q 480 165 486 157 q 487 154 488 151 q 489 148 489 144 q 489 135 481 124 q 474 117 453 117 l 429 117 l 429 78 z m 429 126 l 454 126 q 468 126 469 132 q 475 133 475 144 q 475 151 474 153 q 468 159 463 159 q 462 162 453 162 l 429 162 z m 505 78 l 505 171 l 517 171 l 517 87 l 564 87 l 564 78 z m 579 78 l 579 171 l 648 171 l 648 162 l 591 162 l 591 132 l 643 132 l 643 120 l 591 120 l 591 87 l 649 87 l 649 78 z m 690 78 l 690 162 l 658 162 l 658 171 l 735 171 l 735 162 l 703 162 l 703 78 z m 748 78 l 748 171 l 817 171 l 817 162 l 760 162 l 760 132 l 813 132 l 813 120 l 760 120 l 760 87 l 819 87 l 819 78 z m 870 106 l 882 108 q 882 100 885 97 q 888 91 895 88 q 898 87 909 87 q 912 87 916 87 q 919 87 922 88 q 927 88 930 94 q 931 97 931 103 q 931 108 930 111 q 928 112 926 113 q 924 114 921 117 q 919 117 904 120 q 897 123 892 124 q 888 124 885 126 q 879 129 876 136 q 873 138 872 141 q 871 144 871 147 q 871 156 877 162 q 879 165 882 166 q 885 168 889 171 q 892 172 907 172 q 918 172 924 169 q 928 166 931 164 q 934 163 936 159 q 942 154 942 145 l 930 144 q 927 156 922 157 q 918 162 907 162 q 892 162 889 157 q 885 153 885 147 q 885 142 889 139 q 889 139 907 132 q 915 130 920 128 q 925 127 928 126 q 933 124 935 122 q 937 120 940 117 q 943 112 943 103 q 943 93 940 88 q 934 82 928 79 q 924 78 920 76 q 915 75 909 75 q 903 75 897 76 q 891 78 888 79 q 880 81 873 91 q 870 97 870 106 z m 961 78 l 961 171 l 1029 171 l 1029 162 l 975 162 l 975 132 l 1027 132 l 1027 120 l 975 120 l 975 87 l 1032 87 l 1032 78 z m 1074 78 l 1074 162 l 1044 162 l 1044 171 l 1117 171 l 1117 162 l 1086 162 l 1086 78 z m 112 190 l 112 283 l 150 283 l 163 283 q 166 283 175 280 q 177 279 179 276 q 181 273 183 270 q 186 267 186 259 q 186 246 177 237 q 172 229 150 229 l 127 229 l 127 190 z m 127 241 l 150 241 q 163 241 168 244 q 174 250 174 256 q 174 259 172 262 q 171 265 169 268 q 165 273 162 273 q 160 274 150 274 l 127 274 z m 201 190 l 201 283 l 268 283 l 268 274 l 214 274 l 214 244 l 265 244 l 265 234 l 214 234 l 214 202 l 271 202 l 271 190 z m 288 190 l 288 283 l 331 283 q 345 283 351 282 q 358 279 361 274 q 364 262 364 259 q 364 249 358 243 q 352 237 337 234 q 340 231 342 231 q 343 231 345 229 q 352 222 355 216 l 372 190 l 357 190 l 343 210 q 342 214 340 217 q 337 220 336 223 q 333 225 332 227 q 331 229 330 229 q 327 231 324 231 q 322 234 316 234 l 303 234 l 303 190 z m 303 243 l 327 243 q 339 243 342 244 q 346 249 349 250 q 351 253 351 259 q 351 265 346 270 q 342 274 331 274 l 303 274 z m 381 222 l 391 222 q 391 219 392 216 q 394 213 396 210 q 397 208 400 206 q 402 204 405 204 q 414 201 420 201 q 423 201 426 201 q 429 201 430 202 q 439 205 441 208 q 441 210 442 212 q 442 214 442 216 q 442 222 441 223 q 436 226 430 229 q 429 231 425 231 q 421 231 415 234 q 402 235 396 240 q 388 246 385 249 q 384 253 384 261 q 384 264 384 268 q 385 271 388 274 q 390 280 400 283 q 403 286 417 286 q 429 286 435 283 q 444 279 447 273 q 453 264 453 259 l 441 256 q 438 267 433 270 q 427 276 417 276 q 405 276 400 270 q 396 267 396 261 q 396 255 400 253 q 402 250 417 247 q 430 241 439 241 q 442 238 445 236 q 448 234 450 231 q 454 226 454 217 q 454 210 450 204 q 447 199 444 197 q 442 195 439 192 q 427 189 420 189 q 409 189 397 192 q 393 195 390 197 q 387 199 384 204 q 382 208 382 212 q 381 216 381 222 z m 468 237 q 468 258 480 273 q 493 286 513 286 q 519 286 524 284 q 529 283 537 280 q 543 277 546 272 q 549 268 552 262 q 558 252 558 237 q 558 223 552 211 q 546 201 537 195 q 525 189 513 189 q 499 189 489 196 q 475 204 474 214 q 468 222 468 237 z m 480 237 q 480 219 489 210 q 498 201 513 201 q 528 201 537 210 q 544 220 544 237 q 544 243 544 249 q 543 255 540 259 q 535 267 531 270 q 523 276 513 276 q 505 276 500 274 q 496 271 489 267 q 480 258 480 237 z m 573 190 l 573 283 l 586 283 l 636 211 l 636 283 l 648 283 l 648 190 l 636 190 l 585 264 l 585 190 z m 658 190 l 694 283 l 708 283 l 747 190 l 732 190 l 721 220 l 682 220 l 670 190 z m 684 229 l 717 229 l 708 255 q 705 261 704 266 q 702 271 700 274 q 700 270 698 266 q 697 261 696 256 z m 754 190 l 754 283 l 768 283 l 768 202 l 814 202 l 814 190 z m 922 283 l 934 283 l 934 231 q 934 214 931 208 q 928 199 921 195 q 913 189 898 189 q 883 189 877 195 q 873 196 870 200 q 867 204 864 208 q 862 211 862 231 l 862 283 l 873 283 l 873 231 q 873 216 876 211 q 879 205 883 204 q 886 202 889 202 q 892 201 897 201 q 909 201 916 205 q 922 211 922 231 z m 951 222 l 963 222 q 963 219 964 216 q 966 213 967 210 q 969 208 971 206 q 973 204 976 204 q 985 201 990 201 q 1000 201 1005 202 q 1008 204 1012 208 q 1014 210 1014 216 q 1014 222 1012 223 q 1009 225 1008 226 q 1008 228 1005 229 q 1002 231 998 231 q 993 231 987 234 q 981 235 976 236 q 970 237 969 240 q 961 243 960 249 q 955 253 955 261 q 955 267 960 274 q 961 280 970 283 q 976 286 988 286 q 993 286 998 286 q 1003 286 1006 283 q 1015 279 1020 273 q 1021 270 1022 266 q 1024 262 1024 259 l 1012 256 q 1009 261 1008 264 q 1008 268 1005 270 q 1000 276 988 276 q 975 276 973 270 q 967 268 967 261 q 967 256 970 253 q 973 250 988 247 q 1005 241 1009 241 q 1014 238 1017 236 q 1020 234 1021 231 q 1026 228 1026 217 q 1026 208 1021 204 q 1018 199 1016 197 q 1014 195 1009 192 q 1000 189 993 189 q 985 189 980 190 q 975 190 970 192 q 967 195 964 197 q 960 199 957 204 q 954 208 952 212 q 951 216 951 222 z m 1044 190 l 1044 283 l 1111 283 l 1111 274 l 1057 274 l 1057 244 l 1107 244 l 1107 234 l 1057 234 l 1057 202 l 1113 202 l 1113 190 z m 307 388 q 307 403 285 406 q 282 406 278 407 q 273 408 267 408 l 258 397 l 234 372 q 228 364 222 358 q 217 352 210 348 q 219 345 232 343 q 235 343 240 343 q 246 343 250 345 q 273 346 285 357 q 307 375 307 388 z m 324 433 q 324 439 316 439 q 313 439 291 432 l 274 417 q 271 414 268 408 l 294 412 q 300 412 310 420 q 324 429 324 433 z m 343 460 q 343 457 339 457 q 336 457 335 458 q 334 459 331 459 q 316 456 297 436 q 300 439 304 440 q 307 442 310 444 q 321 445 330 444 q 336 444 336 436 l 336 430 q 328 417 294 409 q 321 406 321 391 q 321 373 292 354 q 282 348 270 344 q 259 340 247 339 q 228 334 217 336 q 208 336 198 340 q 189 334 181 334 l 178 334 q 169 337 163 339 l 168 339 q 180 339 187 345 l 187 346 q 177 340 165 340 q 148 340 139 349 q 124 360 124 381 q 124 387 126 392 q 127 397 130 405 q 141 427 166 444 q 174 451 182 454 q 190 456 198 457 q 214 457 220 451 q 213 456 205 456 q 196 456 186 450 q 171 444 169 441 q 154 433 139 415 q 126 394 126 379 q 126 372 128 368 q 129 363 132 358 q 138 349 148 346 q 153 345 156 344 q 159 343 162 343 q 168 343 172 344 q 177 346 183 349 q 166 361 166 382 q 169 402 190 417 l 187 412 q 184 412 181 406 q 172 397 172 387 q 172 367 195 354 q 207 361 207 363 q 210 367 213 370 q 216 373 219 376 q 222 379 222 384 q 223 388 226 393 l 226 391 q 226 384 225 379 l 243 400 q 289 453 319 462 q 306 466 298 466 q 279 465 256 453 q 229 439 229 420 q 229 414 234 409 q 235 408 235 406 q 226 412 226 421 q 226 438 246 454 q 270 472 297 469 q 306 469 324 463 l 330 463 q 337 463 342 460 z m 346 363 q 345 357 334 346 q 324 340 316 340 q 309 340 309 349 q 309 357 318 369 l 316 369 q 315 367 310 367 q 310 367 309 369 q 313 369 324 379 l 325 379 l 330 385 q 334 390 334 393 l 339 393 q 343 393 343 391 q 343 385 334 375 l 324 364 q 315 351 315 346 q 315 342 321 342 q 328 342 339 357 q 340 358 342 359 q 343 360 346 363 z m 354 405 q 348 396 339 396 q 334 396 328 400 l 333 400 q 343 400 346 411 l 346 414 l 354 411 q 355 409 354 405 z m 406 433 q 406 426 360 370 l 358 370 q 345 354 345 345 q 345 340 349 340 q 358 340 369 355 q 370 357 372 358 q 373 358 375 361 q 375 354 363 345 q 355 339 346 339 q 337 340 337 348 q 336 355 367 394 l 385 417 l 394 426 q 399 432 402 441 q 406 438 406 433 z m 432 433 q 432 427 384 370 q 369 352 369 345 q 369 340 375 340 q 381 340 394 355 l 400 361 q 399 354 387 345 q 379 339 370 339 q 361 340 361 348 q 361 357 391 394 l 409 417 l 418 426 q 426 435 427 441 q 432 438 432 433 z m 403 333 q 379 328 366 315 q 355 301 355 298 q 355 292 361 292 q 363 291 372 294 q 375 297 378 300 q 382 304 387 309 z m 447 430 q 444 409 427 393 q 427 391 426 391 q 426 391 426 390 q 421 384 416 378 q 411 373 406 366 q 403 363 403 360 q 402 363 405 369 q 396 355 396 348 q 396 343 400 343 q 402 343 408 346 q 430 364 439 397 l 439 393 l 439 388 q 442 385 442 381 q 442 378 435 366 l 423 346 l 409 328 q 414 331 426 337 l 424 336 q 421 333 416 329 q 411 325 406 318 l 394 303 l 388 295 q 379 286 369 283 q 360 283 355 289 q 346 292 352 303 q 354 304 356 307 q 357 310 360 313 l 361 315 l 351 313 q 376 331 393 333 q 394 333 396 334 q 397 334 399 334 l 400 334 l 403 334 l 412 348 q 406 342 402 341 q 397 340 394 340 q 387 340 387 348 q 387 366 418 394 l 421 396 l 436 411 q 439 417 442 422 q 445 426 447 430 z m 618 453 q 609 456 603 456 q 588 456 575 452 q 562 448 549 441 q 543 438 539 434 q 535 430 531 427 q 549 426 579 408 q 612 441 636 450 z m 649 447 q 643 445 636 443 q 630 441 622 433 q 618 430 600 412 l 589 402 l 604 393 q 607 397 613 404 q 619 411 627 420 z m 663 472 q 663 471 661 469 q 661 459 657 448 l 658 447 l 657 447 q 649 429 637 417 l 613 388 q 616 387 618 387 q 619 387 622 385 q 622 382 621 382 q 618 382 616 383 q 615 384 612 385 q 594 366 592 349 q 589 343 589 340 q 589 334 595 334 q 607 334 621 354 l 627 363 q 642 384 646 400 l 646 405 q 646 403 648 402 l 648 400 q 645 379 633 361 l 613 322 q 613 328 618 342 q 600 328 591 328 q 577 328 580 346 q 580 355 586 366 q 592 378 601 391 l 586 399 l 573 385 q 568 379 560 370 q 552 361 540 346 q 516 322 498 322 l 493 322 q 489 322 480 327 q 480 327 483 327 q 496 324 510 337 q 498 331 481 331 q 465 331 454 339 l 456 339 q 441 349 441 370 q 441 385 447 393 q 456 417 481 433 q 490 441 498 443 q 507 445 516 447 q 531 447 537 441 l 535 441 q 532 444 522 444 q 507 444 484 430 q 468 418 456 405 q 442 384 442 367 q 442 343 465 336 q 474 333 478 333 q 510 334 547 375 l 576 405 q 553 418 525 418 l 523 418 q 520 412 520 405 q 522 405 528 396 q 517 402 517 411 q 517 415 519 418 q 504 415 499 412 q 472 402 475 381 q 475 367 484 357 l 487 354 q 469 372 469 385 q 469 405 487 418 q 502 429 525 429 q 546 453 577 457 q 585 459 601 459 q 609 459 624 456 l 642 451 l 651 451 l 652 450 q 658 460 661 475 l 663 475 z m 682 375 q 682 370 681 367 q 673 360 668 354 q 663 348 658 340 l 660 340 l 661 340 q 660 339 658 339 q 657 339 657 337 q 649 337 649 340 q 649 346 663 360 q 673 373 673 376 q 675 381 669 385 q 651 360 637 354 l 631 351 l 628 352 q 634 352 648 367 q 661 379 666 387 q 666 388 665 388 q 664 388 664 390 q 664 391 675 400 q 675 402 676 402 l 678 400 q 678 399 670 388 q 682 384 682 375 z m 726 379 q 726 388 720 385 q 714 385 711 382 q 706 379 697 367 q 688 355 688 348 q 687 345 691 345 q 700 348 706 355 q 712 367 712 372 q 712 375 711 375 q 717 375 717 367 l 715 364 q 718 367 720 371 q 723 375 726 378 z m 754 393 q 748 393 741 385 q 735 378 729 369 q 723 360 715 348 q 708 333 702 324 q 696 316 694 313 q 675 289 664 289 q 655 288 651 295 q 651 303 651 303 q 651 310 657 316 q 654 315 649 315 q 664 330 682 334 q 684 334 684 335 q 685 336 688 336 l 690 334 q 661 325 655 307 q 654 304 654 300 q 654 298 655 297 q 655 295 657 295 q 669 294 685 318 l 696 333 l 702 342 q 697 340 694 340 q 682 340 682 352 q 682 366 702 384 q 711 393 718 393 q 729 393 729 381 l 730 381 l 738 390 q 745 397 751 397 q 756 397 759 393 z m 781 382 q 781 373 765 364 q 763 363 762 363 l 760 363 q 756 363 751 370 q 754 367 759 367 q 769 373 772 384 l 772 387 l 772 388 l 772 390 q 766 390 753 376 l 753 375 q 748 369 748 365 q 747 361 747 358 q 745 360 745 367 q 742 361 741 357 q 738 351 738 346 q 738 345 739 343 q 739 340 745 340 q 760 346 771 355 q 774 358 778 361 q 775 357 772 353 q 769 349 762 345 q 750 337 741 340 q 741 339 739 340 q 730 340 730 349 q 730 364 747 379 q 756 393 771 393 q 774 393 775 391 q 781 387 781 382 z m 841 433 q 841 427 793 370 q 780 354 780 345 q 780 340 784 340 q 793 340 804 355 q 805 357 806 358 q 808 358 810 361 q 810 354 798 345 q 790 339 780 339 q 772 342 772 348 q 772 360 801 394 l 819 417 l 828 426 q 837 435 837 441 q 841 438 841 433 z m 922 387 q 897 396 895 415 q 888 411 880 407 q 873 403 868 399 q 840 372 840 349 q 840 340 844 339 l 847 339 l 850 339 q 873 339 892 354 q 898 360 906 368 q 915 375 922 387 z m 952 430 l 940 430 q 922 429 897 417 q 900 396 925 391 l 936 405 z m 979 457 q 960 457 944 454 q 928 451 916 444 q 924 451 935 456 q 946 460 960 463 q 930 465 907 445 q 903 442 897 430 q 907 433 917 434 q 927 436 939 435 q 942 435 946 435 q 951 435 958 433 q 961 438 966 444 q 972 450 979 457 z m 1074 459 q 1071 454 1067 450 q 1063 447 1056 444 q 1044 436 1033 436 l 1030 436 q 1029 436 1027 438 q 1029 439 1029 440 q 1029 442 1032 445 q 1018 456 994 456 l 988 448 l 973 430 q 985 429 996 428 q 1006 426 1015 426 q 1036 426 1044 430 q 1038 424 1021 421 q 1008 418 994 423 l 970 427 q 964 420 959 414 q 954 409 951 403 l 940 388 l 948 388 q 985 391 991 406 l 993 406 q 988 397 973 390 q 966 387 959 386 q 952 384 946 384 l 939 384 q 928 372 922 363 q 915 354 909 348 q 889 327 873 327 q 865 328 856 328 q 871 328 888 343 q 867 334 855 334 l 846 336 l 858 324 q 846 330 838 337 q 837 337 831 340 q 813 354 811 375 q 811 382 811 388 q 811 394 814 400 q 819 414 826 424 q 834 433 844 444 q 870 466 889 466 q 900 466 907 460 l 906 459 q 901 463 892 463 q 873 460 852 444 q 834 429 825 414 q 813 393 813 375 q 816 348 837 340 q 834 349 835 358 q 838 381 852 397 q 868 418 897 430 q 900 433 900 439 l 913 453 q 933 469 964 469 q 972 469 977 469 q 982 469 990 468 l 991 468 q 1002 475 1010 479 q 1018 483 1027 481 q 1033 481 1036 478 q 1020 475 1020 475 q 1017 474 1013 472 q 1009 471 1005 468 q 1011 466 1017 466 q 1023 465 1030 462 q 1045 457 1054 457 q 1068 457 1074 459 z m 982 354 q 978 358 978 364 q 978 367 978 370 q 979 372 979 375 q 964 355 966 346 q 966 343 969 343 q 972 343 982 354 z m 1002 385 q 1002 388 999 388 q 996 388 993 387 q 991 385 988 379 q 981 364 981 360 q 981 355 982 354 l 987 358 l 987 360 l 987 358 q 988 360 988 360 q 988 361 990 363 q 993 372 993 375 q 993 376 991 378 q 994 372 994 370 q 999 375 1002 385 z m 1008 381 q 1008 373 997 358 q 984 345 978 340 l 966 340 q 957 340 957 348 q 957 360 973 379 q 984 393 997 393 q 1008 393 1008 381 z m 1057 384 q 1059 381 1051 367 q 1042 355 1039 352 l 1021 336 q 1011 325 1008 313 q 1009 331 1021 345 q 1027 351 1030 356 q 1033 360 1036 366 q 1038 367 1039 372 l 1039 367 q 1039 367 1038 364 q 1041 367 1047 379 q 1047 381 1048 382 q 1048 382 1048 384 q 1048 391 1041 388 q 1041 388 1029 379 q 1026 372 1020 366 q 1015 361 1009 354 q 1002 345 1000 340 q 999 339 993 327 q 993 330 992 334 q 991 337 993 340 q 996 351 1006 361 l 1015 372 q 1023 382 1023 388 q 1023 390 1022 392 q 1021 393 1021 394 q 1030 391 1030 385 q 1039 393 1050 393 q 1056 390 1057 384 z m 1116 405 l 1093 405 q 1092 402 1084 393 q 1075 384 1063 367 q 1060 367 1057 360 q 1051 352 1051 345 q 1051 340 1054 340 q 1062 340 1075 355 l 1077 357 q 1078 358 1078 359 q 1078 360 1080 361 q 1080 354 1069 345 q 1062 339 1051 339 q 1044 342 1042 348 q 1042 351 1048 363 l 1066 384 l 1083 405 l 1057 408 q 1051 409 1042 409 l 1029 409 q 1011 409 993 402 l 991 402 q 1006 417 1038 417 q 1039 417 1050 414 q 1062 412 1083 409 l 1087 408 q 1092 415 1096 420 q 1099 426 1102 430 q 1105 429 1105 423 q 1105 418 1102 415 l 1096 406 l 1108 405 l 1117 405 l 1119 405 l 1123 405 z m 1126 385 q 1126 381 1116 376 l 1114 375 q 1119 379 1119 387 l 1119 393 l 1114 393 q 1107 393 1105 387 q 1105 384 1110 361 q 1111 340 1086 340 q 1072 340 1069 349 q 1068 351 1068 354 q 1068 366 1086 369 l 1092 367 l 1089 367 q 1083 367 1080 364 q 1075 357 1075 354 q 1075 342 1087 342 q 1099 342 1099 358 q 1099 366 1098 370 q 1096 375 1096 381 q 1096 396 1110 396 q 1113 396 1114 395 q 1116 394 1119 394 q 1125 391 1125 390 q 1126 388 1126 385 z"},"S":{"x_min":0,"x_max":352,"ha":352,"o":"m 309 268 q 295 261 282 262 q 268 263 258 268 q 247 273 242 280 q 237 286 241 290 q 261 299 284 317 q 308 335 328 357 q 348 379 362 402 q 375 426 375 444 q 375 463 358 474 q 341 486 301 485 q 259 483 225 470 q 191 456 168 436 q 145 416 133 391 q 121 366 123 342 q 123 315 137 292 q 151 268 171 246 q 191 223 214 202 q 238 181 258 158 q 277 136 290 112 q 303 89 302 62 q 301 43 287 27 q 273 11 250 -1 q 228 -13 200 -20 q 171 -27 143 -28 q 86 -31 52 -14 q 17 2 8 26 q -1 51 16 78 q 32 106 76 127 q 81 130 92 129 q 103 128 114 124 q 124 121 131 116 q 138 111 134 107 q 102 88 85 68 q 68 48 70 32 q 71 16 93 6 q 115 -3 162 0 q 176 0 190 4 q 204 9 216 16 q 227 24 234 34 q 241 44 241 56 q 240 79 224 101 q 209 123 186 144 q 164 166 138 188 q 112 211 90 235 q 69 259 56 286 q 43 312 46 343 q 50 370 68 398 q 85 426 111 449 q 126 462 148 475 q 171 488 198 498 q 224 507 252 513 q 280 519 307 519 q 357 518 383 503 q 409 488 418 464 q 426 440 419 411 q 412 382 396 354 q 379 326 356 303 q 333 280 309 268 z"},"Z":{"x_min":0,"x_max":398,"ha":398,"o":"m 6 -116 q 0 -117 -2 -113 q -3 -109 -2 -103 q 0 -97 3 -91 q 6 -85 10 -81 q 23 -44 60 18 q 96 79 150 153 q 203 227 270 306 q 336 386 410 460 q 364 458 322 446 q 279 433 243 414 q 207 396 180 375 q 153 354 137 335 q 129 335 128 349 q 127 363 130 380 q 132 398 137 414 q 142 430 148 433 q 190 457 243 470 q 296 483 346 488 q 397 492 438 490 q 478 488 495 482 q 504 480 510 476 q 516 471 518 466 q 519 460 516 456 q 512 452 504 452 q 439 393 372 326 q 305 260 246 194 q 187 128 142 66 q 96 5 74 -44 q 108 -30 150 -18 q 191 -7 232 -1 q 272 5 307 4 q 342 4 364 -6 q 373 -10 380 -21 q 387 -32 390 -44 q 393 -55 390 -62 q 388 -70 378 -67 q 356 -59 324 -56 q 293 -54 257 -56 q 221 -58 184 -64 q 146 -69 112 -77 q 78 -85 50 -95 q 22 -105 6 -116 z"},"x":{"x_min":0,"x_max":277,"ha":277,"o":"m 25 -15 q 21 -18 16 -19 q 11 -20 6 -19 q 1 -18 -2 -16 q -5 -13 -4 -10 l 77 91 q 68 113 62 136 q 56 160 52 182 q 48 205 46 226 q 44 246 43 261 q 46 272 57 280 q 68 289 80 293 q 92 297 101 296 q 110 294 109 286 q 107 260 111 223 q 115 186 124 148 q 163 196 192 230 q 222 265 243 288 q 250 296 262 301 q 275 306 286 307 q 296 308 302 306 q 309 303 305 297 q 258 253 217 205 q 176 157 136 109 q 146 81 160 61 q 173 41 190 33 q 203 34 222 52 q 240 70 259 96 q 278 122 294 152 q 311 183 321 209 q 323 214 328 216 q 334 218 340 218 q 345 217 349 214 q 353 212 351 207 q 342 185 324 148 q 306 112 283 78 q 260 43 234 18 q 209 -8 186 -8 q 154 -8 132 10 q 109 28 93 57 q 76 37 59 20 q 42 2 25 -15 z"},"v":{"x_min":0,"x_max":274,"ha":274,"o":"m 56 256 q 57 274 70 282 q 83 291 98 292 q 113 293 124 290 q 135 286 134 280 q 104 197 89 136 q 74 75 74 45 q 74 36 74 30 q 75 23 77 18 l 77 23 q 103 40 127 62 q 151 83 168 112 q 158 135 157 167 q 156 199 163 228 q 170 258 186 278 q 201 299 225 300 q 243 301 249 284 q 255 266 251 238 q 247 211 236 177 q 224 143 207 110 q 215 101 225 102 q 231 101 238 104 q 245 108 252 114 q 260 120 267 128 q 274 135 279 142 q 282 146 286 150 q 289 155 294 162 q 299 169 307 180 q 315 192 327 209 q 330 213 336 215 q 342 217 347 217 q 352 217 354 214 q 357 212 355 207 q 346 192 332 169 q 318 146 300 125 q 282 104 260 89 q 239 74 214 75 q 199 75 191 82 q 170 48 139 24 q 108 -1 82 -8 q 69 -14 39 -8 q 29 -3 26 10 q 24 22 23 40 q 22 55 24 82 q 25 110 29 141 q 33 172 40 202 q 47 233 56 256 z m 191 187 q 189 169 191 154 l 195 163 q 204 183 210 202 q 216 222 219 237 q 222 252 223 261 q 224 270 223 270 q 220 271 215 264 q 210 257 206 246 q 201 234 196 218 q 192 203 191 187 z"},"O":{"x_min":0,"x_max":473,"ha":473,"o":"m 532 176 q 506 134 460 92 q 414 51 343 29 q 310 -8 270 -20 q 231 -33 194 -33 q 165 -34 144 -26 q 123 -19 108 -5 q 94 9 85 28 q 76 47 72 69 q 40 100 25 139 q 10 178 10 216 q 10 267 30 320 q 49 372 86 415 q 123 458 174 484 q 226 509 291 506 q 337 503 368 484 q 400 466 419 438 q 438 410 445 374 q 452 339 449 303 q 443 240 422 179 q 402 118 370 65 q 416 87 450 118 q 483 150 505 184 l 521 209 q 524 213 530 215 q 535 217 540 217 q 545 217 548 214 q 551 212 549 207 z m 209 41 q 232 39 254 39 q 276 39 296 43 q 309 61 323 89 q 337 117 349 150 q 361 183 370 220 q 378 256 382 292 q 386 328 383 361 q 380 394 368 420 q 357 445 336 460 q 314 475 281 475 q 245 475 208 452 q 170 429 140 392 q 109 354 90 308 q 72 263 74 218 q 74 202 77 187 q 83 215 92 242 q 100 269 110 292 q 119 315 129 332 q 139 350 148 359 q 151 362 162 366 q 173 370 184 372 q 195 374 204 374 q 213 375 213 371 q 205 355 192 320 q 178 285 166 242 q 153 199 144 154 q 134 108 136 71 q 153 57 172 50 q 191 43 209 41 z m 194 -11 q 214 -13 232 -6 q 251 2 267 14 q 255 13 242 13 q 230 13 217 13 q 197 14 179 16 q 161 19 145 25 q 158 -8 194 -11 z"},"C":{"x_min":0,"x_max":365,"ha":365,"o":"m 260 254 l 263 254 q 271 254 282 263 q 292 272 302 288 q 311 303 318 324 q 325 346 327 370 q 328 379 330 394 q 331 409 328 424 q 324 439 312 450 q 301 461 276 462 q 255 462 234 448 q 212 435 191 412 q 170 389 152 360 q 134 330 119 298 q 104 266 94 235 q 85 204 82 178 q 78 145 78 111 q 77 77 85 50 q 93 22 112 4 q 132 -13 167 -13 q 201 -14 234 4 q 266 23 296 54 q 327 85 356 126 q 385 166 412 209 q 415 213 420 215 q 426 217 431 217 q 436 217 439 214 q 442 212 440 207 q 434 196 426 182 q 419 169 406 143 q 392 121 370 88 q 348 55 318 24 q 287 -6 249 -27 q 211 -48 167 -46 q 105 -43 72 -19 q 38 5 24 40 q 10 74 10 112 q 9 150 13 181 q 16 202 24 234 q 32 266 46 302 q 60 337 81 373 q 102 409 130 438 q 159 466 196 484 q 234 502 281 502 q 318 502 340 488 q 361 473 372 453 q 383 433 386 412 q 388 390 387 376 q 386 356 377 330 q 368 303 352 278 q 335 253 312 236 q 289 219 261 219 l 259 219 q 250 219 246 224 q 241 228 241 234 q 241 240 246 246 q 250 251 260 254 z"},"W":{"x_min":0,"x_max":406,"ha":406,"o":"m 259 42 q 265 94 264 140 q 264 187 262 228 q 259 269 256 304 q 253 340 253 370 q 245 328 228 274 q 211 221 190 166 q 170 111 150 59 q 129 7 115 -30 l 115 -38 q 114 -48 108 -48 q 102 -47 95 -40 q 88 -34 82 -23 q 76 -12 76 0 q 73 70 66 142 q 58 214 48 274 q 39 333 28 374 q 18 415 9 424 q 3 432 9 451 q 15 470 24 488 q 34 506 45 518 q 56 529 61 521 q 76 497 86 448 q 97 398 104 336 q 110 275 114 209 q 117 143 118 87 q 146 149 178 228 q 211 307 231 400 q 234 417 246 432 q 257 447 270 456 q 283 465 293 465 q 303 465 304 453 q 308 392 312 324 q 316 255 318 182 q 336 233 364 294 q 393 355 426 410 q 459 465 494 506 q 528 548 558 560 q 565 563 572 564 q 579 565 584 564 q 589 563 590 559 q 592 555 589 547 q 557 527 526 490 q 496 453 468 406 q 439 359 414 305 q 389 251 370 198 q 350 145 336 96 q 322 47 316 10 q 316 2 316 -6 q 315 -15 314 -23 q 313 -32 304 -28 q 295 -24 284 -12 q 274 -1 266 14 q 258 30 259 42 z"},"A":{"x_min":0,"x_max":479,"ha":479,"o":"m 61 92 q 53 91 52 100 q 50 109 52 120 q 53 132 58 144 q 62 155 68 159 q 112 193 153 213 q 194 233 233 244 q 281 313 324 378 q 366 444 400 501 q 406 512 425 520 q 444 527 462 528 q 481 528 493 521 q 505 514 498 497 q 477 444 457 380 q 437 315 425 248 l 466 238 q 476 235 482 229 q 489 223 490 218 q 490 212 486 209 q 481 206 469 209 q 443 215 420 218 q 409 151 410 90 q 412 29 432 -17 q 435 -25 426 -24 q 418 -24 406 -20 q 394 -15 382 -8 q 371 -1 368 6 q 354 47 354 103 q 354 159 362 219 q 335 217 308 212 q 282 206 255 197 q 203 122 150 51 q 98 -20 50 -77 q 44 -83 34 -86 q 23 -89 14 -88 q 4 -88 -1 -83 q -6 -78 0 -69 q 38 -21 83 38 q 128 96 174 160 q 146 146 118 129 q 90 112 61 92 z m 398 410 q 375 374 350 336 q 324 297 297 256 q 334 259 367 256 q 373 298 382 336 q 390 375 398 410 z"},"f":{"x_min":0,"x_max":183,"ha":183,"o":"m 255 201 q 232 158 202 136 q 171 115 140 107 q 142 87 138 50 q 134 14 125 -29 q 116 -72 103 -116 q 90 -159 74 -194 q 58 -229 40 -249 q 21 -269 2 -265 q -15 -261 -24 -232 q -33 -204 -30 -153 q -25 -85 -7 -14 q 11 56 35 142 q 24 155 20 170 q 16 186 19 198 q 22 210 32 217 q 41 224 57 220 q 68 260 81 298 q 94 336 106 367 q 119 398 130 420 q 141 442 150 451 q 156 457 167 464 q 178 470 189 473 q 200 476 210 474 q 220 473 225 464 q 185 395 158 322 q 131 250 114 184 q 116 181 123 168 q 130 155 135 138 q 142 136 154 140 q 165 145 176 152 q 188 160 198 170 q 208 179 214 186 l 227 203 q 230 207 236 210 q 242 212 247 212 q 252 211 255 208 q 258 206 255 201 z m 114 110 q 109 111 106 111 q 102 111 97 115 q 91 105 79 72 q 67 39 54 -4 q 42 -47 32 -92 q 22 -138 20 -173 q 18 -192 19 -208 q 20 -224 25 -224 q 30 -224 45 -190 q 60 -156 76 -106 q 91 -55 103 3 q 115 61 114 110 z"},"Q":{"x_min":0,"x_max":423,"ha":423,"o":"m 395 -49 q 364 -45 335 -38 q 306 -32 277 -23 q 257 -31 236 -33 q 216 -35 194 -33 q 132 -28 104 6 q 76 40 70 89 q 41 116 26 148 q 10 181 10 216 q 10 267 30 320 q 49 372 86 415 q 123 458 174 484 q 226 509 291 506 q 338 503 370 485 q 401 467 419 439 q 437 411 442 376 q 448 340 445 303 q 441 262 434 219 q 426 176 412 136 q 397 96 374 60 q 352 25 318 -1 q 356 -11 390 -16 q 425 -22 449 -24 q 456 -25 452 -30 q 448 -34 438 -39 q 429 -44 416 -48 q 404 -51 395 -49 z m 136 74 q 161 55 194 40 q 228 25 265 13 q 290 38 310 72 q 329 105 344 140 q 358 174 366 206 q 375 238 378 259 q 384 296 384 334 q 384 373 374 404 q 364 435 342 455 q 320 475 281 475 q 245 475 208 452 q 171 429 142 392 q 112 354 93 308 q 74 263 74 218 q 74 209 74 202 q 75 194 76 186 q 81 214 90 242 q 98 269 108 292 q 118 315 128 332 q 139 350 148 359 q 151 362 162 366 q 173 370 184 372 q 195 374 204 374 q 213 375 213 371 q 205 355 192 320 q 178 286 166 244 q 153 201 144 156 q 134 111 136 74 z m 194 -11 q 212 -11 228 -7 q 205 3 183 14 q 161 25 141 37 q 146 16 158 4 q 171 -9 194 -11 z"},"w":{"x_min":0,"x_max":423,"ha":423,"o":"m 150 38 q 109 2 75 -7 q 62 -13 32 -7 q 23 -2 22 10 q 20 23 19 41 q 18 58 20 86 q 23 113 29 144 q 35 174 44 204 q 52 234 64 257 q 72 274 86 282 q 100 291 114 293 q 127 295 136 292 q 145 290 143 284 q 109 203 92 143 q 75 83 78 45 q 79 25 86 24 q 92 22 101 30 q 110 38 120 51 q 129 64 137 72 q 150 93 162 116 q 174 138 182 161 l 211 267 q 212 273 222 278 q 232 283 244 286 q 255 289 264 288 q 272 288 272 282 q 263 238 254 196 q 244 154 240 118 q 235 83 236 56 q 238 30 252 17 l 252 16 q 268 33 288 58 q 308 83 322 112 q 310 135 306 167 q 301 199 306 228 q 310 258 324 278 q 338 299 362 300 q 380 301 387 284 q 394 266 393 238 q 392 210 384 176 q 375 142 361 109 q 369 101 378 102 q 385 101 392 104 q 399 108 406 114 q 413 120 419 128 q 425 135 430 142 q 433 146 436 150 q 439 155 444 162 q 448 169 454 180 q 461 192 472 209 q 475 213 480 215 q 486 217 491 217 q 496 217 499 214 q 502 212 500 207 q 492 192 480 169 q 468 146 452 125 q 436 104 416 89 q 396 74 371 75 q 357 75 347 82 q 329 48 302 24 q 276 -1 249 -8 q 237 -14 206 -8 q 186 -3 180 20 q 173 44 175 75 l 152 37 z m 338 187 q 338 169 341 154 l 344 163 q 351 183 355 202 q 359 222 361 237 q 363 252 363 261 q 363 270 362 270 q 359 271 355 264 q 351 257 347 246 q 343 234 340 218 q 338 203 338 187 z"},"E":{"x_min":0,"x_max":367,"ha":367,"o":"m 310 485 q 287 486 264 476 q 242 465 220 448 q 198 430 179 407 q 160 384 145 360 q 106 299 104 254 q 103 209 120 182 q 134 187 148 190 q 162 194 176 194 q 218 194 228 184 q 239 173 230 161 q 220 149 197 139 q 174 129 150 130 q 128 130 106 136 q 89 122 78 103 q 66 84 61 66 q 58 54 59 40 q 60 25 66 12 q 73 0 86 -8 q 100 -17 121 -17 q 158 -18 196 2 q 235 22 273 56 q 311 90 349 133 q 387 176 423 221 q 427 225 434 227 q 440 229 446 228 q 452 228 455 226 q 458 223 454 219 l 406 152 q 387 129 358 94 q 329 59 292 26 q 254 -7 210 -30 q 165 -53 115 -52 q 58 -50 30 -33 q 1 -16 -10 6 q -20 27 -18 48 q -16 70 -12 80 q -7 98 14 118 q 35 139 64 157 q 29 196 24 246 q 19 296 50 351 q 70 382 97 414 q 124 445 158 470 q 192 495 234 510 q 275 526 325 527 q 361 527 380 508 q 400 490 406 461 q 412 432 404 398 q 397 365 378 336 q 360 308 331 288 q 302 269 264 269 l 262 269 q 252 269 248 274 q 244 278 244 284 q 245 290 252 296 q 258 302 269 305 l 272 305 q 292 305 310 318 q 328 331 341 351 q 354 371 360 394 q 367 417 364 437 q 362 457 349 471 q 336 485 310 485 z m 172 173 q 166 171 158 168 q 151 166 142 161 q 146 159 150 158 q 155 157 160 155 q 169 153 178 156 q 187 160 192 164 q 196 169 192 172 q 189 175 172 173 z"},"s":{"x_min":0,"x_max":211,"ha":211,"o":"m 277 188 q 257 158 231 130 q 205 101 162 83 q 157 53 139 29 q 128 17 114 6 q 101 -6 77 -11 q 47 -16 28 -6 q 9 5 3 22 q -3 38 6 55 q 15 72 41 80 q 52 84 65 86 q 78 89 92 92 q 94 121 92 150 q 91 179 91 192 q 89 209 88 215 q 87 221 79 211 q 77 209 76 206 q 75 204 73 202 q 63 189 51 192 q 39 194 45 204 l 55 220 l 56 222 q 65 236 68 244 q 72 251 77 272 q 78 278 88 285 q 98 292 110 297 q 122 302 132 302 q 141 303 141 295 q 139 270 144 244 q 149 217 154 190 q 158 170 161 152 q 164 134 164 115 q 196 132 218 154 q 239 177 260 209 q 263 213 268 215 q 274 217 279 217 q 284 217 287 214 q 290 212 288 207 z m 53 16 q 67 18 75 31 q 83 44 88 64 q 67 59 56 53 q 44 47 38 42 q 32 36 31 32 q 30 27 30 24 q 31 21 35 18 q 39 14 53 16 z"},"l":{"x_min":0,"x_max":211,"ha":211,"o":"m 286 208 q 283 202 272 183 q 262 164 246 139 q 231 114 212 87 q 193 60 173 38 q 153 15 134 2 q 114 -12 98 -9 q 41 0 26 56 q 12 111 28 205 q 31 225 42 260 q 52 296 68 334 q 84 372 106 406 q 127 441 154 461 q 163 468 176 468 q 189 467 201 461 q 213 455 222 444 q 231 433 232 420 q 235 385 220 334 q 204 283 179 231 q 154 179 126 134 q 98 89 76 67 q 78 42 84 33 q 91 24 104 22 q 114 20 135 41 q 156 62 179 92 q 202 123 224 156 q 245 188 258 209 q 261 213 266 215 q 272 217 277 217 q 282 217 285 214 q 288 212 286 208 z m 85 170 q 80 147 78 132 q 75 118 74 104 q 87 119 102 146 q 117 173 132 206 q 148 238 162 273 q 175 308 184 339 q 193 370 196 394 q 199 417 193 426 q 181 426 170 413 q 159 400 148 378 q 137 356 128 328 q 118 300 110 271 q 102 242 96 216 q 89 189 85 170 z"},"8":{"x_min":0,"x_max":1219,"ha":1219,"o":"m 876 781 l 739 657 l 775 471 l 615 565 l 450 471 l 489 652 l 351 781 l 537 801 l 615 972 l 690 802 z m 682 576 l 639 834 l 586 834 l 541 576 l 564 562 l 583 576 l 592 634 l 631 634 l 642 576 l 663 562 z m 628 672 l 598 672 l 612 774 z m 610 21 l 631 21 l 624 39 q 622 42 622 44 q 622 46 619 49 q 619 45 616 39 z m 352 -5 l 352 3 l 363 3 l 363 -5 z m 844 -5 l 844 58 l 852 58 l 852 1 l 883 1 l 883 -5 z m 787 -5 l 787 58 l 832 58 l 832 49 l 795 49 l 795 30 l 829 30 l 829 22 l 795 22 l 795 1 l 832 1 l 832 -5 z m 565 -5 l 565 21 l 541 58 l 552 58 l 564 39 q 567 30 570 28 q 571 30 572 33 q 574 36 577 39 l 589 58 l 598 58 l 573 21 l 573 -5 z m 376 -5 l 376 58 l 400 58 q 403 58 406 56 q 408 55 409 55 q 415 54 417 49 q 420 46 420 40 q 420 36 417 34 q 415 28 411 28 q 415 27 420 22 q 423 16 423 13 q 423 10 422 8 q 421 7 421 6 q 420 0 415 0 q 414 -3 412 -3 q 411 -3 409 -5 l 400 -5 z m 205 -5 l 187 58 l 196 58 l 205 16 q 207 12 207 9 q 207 6 208 3 q 210 10 210 15 l 222 58 l 232 58 l 241 25 q 243 18 244 14 q 246 9 246 3 q 247 6 247 9 q 247 12 249 16 l 259 58 l 267 58 l 249 -5 l 241 -5 l 229 42 q 228 46 228 49 q 226 46 226 42 l 213 -5 z m 123 -5 l 105 58 l 115 58 l 123 16 q 123 9 127 3 q 129 10 129 15 l 141 58 l 150 58 l 160 25 q 162 18 162 14 q 163 9 163 3 q 166 6 166 9 q 166 12 168 16 l 177 58 l 186 58 l 168 -5 l 160 -5 l 148 42 q 147 46 147 49 q 144 46 144 42 l 130 -5 z m 384 30 l 397 30 q 403 30 405 33 q 409 33 409 34 q 411 36 411 40 q 411 45 409 46 l 408 46 q 406 46 406 47 q 406 48 405 48 q 403 49 396 49 l 384 49 z m 285 -5 l 268 58 l 277 58 l 286 16 q 288 12 288 9 q 288 6 291 3 q 291 9 292 11 q 292 13 292 15 l 304 58 l 313 58 l 324 25 q 325 18 326 14 q 327 9 327 3 q 330 6 330 9 q 330 12 331 16 l 342 58 l 349 58 l 331 -5 l 324 -5 l 312 42 q 310 46 310 49 q 307 46 307 42 l 294 -5 z m 664 28 l 682 28 q 685 28 688 29 q 690 30 693 30 q 696 30 696 34 q 697 36 697 40 q 697 45 694 48 q 693 49 684 49 l 664 49 z m 384 1 l 400 1 q 403 1 405 3 l 409 3 q 411 6 414 7 l 414 13 q 414 16 411 19 q 411 22 408 22 l 397 22 l 384 22 z m 435 -5 l 435 58 l 442 58 l 442 -5 z m 985 25 q 985 12 990 7 q 996 1 1006 1 q 1017 1 1021 7 q 1027 12 1027 27 q 1027 34 1026 39 q 1023 46 1018 48 q 1014 49 1006 49 q 997 49 993 45 q 985 39 985 25 z m 976 25 q 976 42 985 49 q 991 58 1006 58 q 1011 58 1014 56 q 1018 55 1021 54 q 1026 52 1028 49 q 1030 46 1033 42 q 1035 39 1035 27 q 1035 13 1032 9 q 1027 1 1021 -3 q 1015 -6 1006 -6 q 1002 -6 998 -6 q 994 -5 990 -3 q 987 0 984 3 q 982 6 981 9 q 979 13 978 17 q 976 21 976 25 z m 592 -5 l 616 58 l 625 58 l 651 -5 l 642 -5 l 634 13 l 609 13 l 600 -5 z m 459 -5 l 459 58 l 466 58 l 466 1 l 495 1 l 495 -5 z m 892 -5 l 892 3 l 903 3 l 903 -5 z m 748 19 l 748 27 l 774 27 l 774 3 q 768 -3 762 -5 q 759 -5 755 -6 q 751 -6 748 -6 q 739 -6 733 -3 q 729 0 726 2 q 723 4 721 9 q 720 13 718 17 q 717 21 717 25 q 717 31 718 34 q 720 37 721 42 q 724 51 732 54 q 735 55 740 56 q 744 58 748 58 q 756 58 760 55 q 766 54 768 49 q 772 45 774 40 l 766 39 q 766 40 762 45 q 762 48 756 49 l 748 49 l 739 49 q 735 48 732 45 q 732 43 727 39 q 727 36 726 33 q 726 30 726 27 q 726 16 729 13 q 735 4 736 3 q 741 1 748 1 q 754 1 759 3 q 762 6 764 6 q 765 6 766 7 l 766 19 z m 657 -5 l 657 58 l 684 58 q 688 58 691 56 q 694 55 697 55 q 702 54 703 49 q 706 46 706 40 q 706 33 702 28 q 700 27 696 26 q 693 25 688 22 q 691 22 692 22 q 693 21 694 21 q 696 18 696 16 q 697 13 700 10 l 712 -5 l 702 -5 l 693 7 q 690 10 689 12 q 688 15 687 16 q 687 19 686 19 q 684 19 682 21 l 681 21 q 679 21 679 22 q 679 22 678 22 l 675 22 l 664 22 l 664 -5 z m 505 -5 l 505 58 l 514 58 l 514 1 l 544 1 l 544 -5 z m 961 16 l 969 15 q 966 3 960 0 q 954 -6 943 -6 q 934 -6 928 -3 q 924 0 922 3 q 921 6 918 9 q 915 21 915 27 q 915 33 918 45 q 925 52 928 54 q 933 55 936 56 q 939 58 943 58 q 948 58 952 56 q 957 55 960 54 q 963 51 965 48 q 967 45 969 40 l 960 39 q 960 45 954 48 q 951 49 943 49 q 934 49 931 48 q 928 46 928 44 q 927 42 924 39 q 924 36 923 33 q 922 30 922 27 q 922 18 927 13 q 927 10 928 8 q 930 6 931 3 q 936 1 943 1 q 951 1 955 6 q 960 10 961 16 z m 1047 -5 l 1047 58 l 1059 58 l 1074 13 q 1074 10 1076 8 q 1077 6 1077 3 q 1077 4 1080 13 l 1093 58 l 1105 58 l 1105 -5 l 1098 -5 l 1098 46 l 1080 -5 l 1072 -5 l 1054 48 l 1054 -5 z m 610 21 l 631 21 l 624 39 q 622 42 622 44 q 622 46 619 49 q 619 45 616 39 z m 352 -5 l 352 3 l 363 3 l 363 -5 z m 844 -5 l 844 58 l 852 58 l 852 1 l 883 1 l 883 -5 z m 787 -5 l 787 58 l 832 58 l 832 49 l 795 49 l 795 30 l 829 30 l 829 22 l 795 22 l 795 1 l 832 1 l 832 -5 z m 565 -5 l 565 21 l 541 58 l 552 58 l 564 39 q 567 30 570 28 q 571 30 572 33 q 574 36 577 39 l 589 58 l 598 58 l 573 21 l 573 -5 z m 376 -5 l 376 58 l 400 58 q 403 58 406 56 q 408 55 409 55 q 415 54 417 49 q 420 46 420 40 q 420 36 417 34 q 415 28 411 28 q 415 27 420 22 q 423 16 423 13 q 423 10 422 8 q 421 7 421 6 q 420 0 415 0 q 414 -3 412 -3 q 411 -3 409 -5 l 400 -5 z m 205 -5 l 187 58 l 196 58 l 205 16 q 207 12 207 9 q 207 6 208 3 q 210 10 210 15 l 222 58 l 232 58 l 241 25 q 243 18 244 14 q 246 9 246 3 q 247 6 247 9 q 247 12 249 16 l 259 58 l 267 58 l 249 -5 l 241 -5 l 229 42 q 228 46 228 49 q 226 46 226 42 l 213 -5 z m 123 -5 l 105 58 l 115 58 l 123 16 q 123 9 127 3 q 129 10 129 15 l 141 58 l 150 58 l 160 25 q 162 18 162 14 q 163 9 163 3 q 166 6 166 9 q 166 12 168 16 l 177 58 l 186 58 l 168 -5 l 160 -5 l 148 42 q 147 46 147 49 q 144 46 144 42 l 130 -5 z m 384 30 l 397 30 q 403 30 405 33 q 409 33 409 34 q 411 36 411 40 q 411 45 409 46 l 408 46 q 406 46 406 47 q 406 48 405 48 q 403 49 396 49 l 384 49 z m 285 -5 l 268 58 l 277 58 l 286 16 q 288 12 288 9 q 288 6 291 3 q 291 9 292 11 q 292 13 292 15 l 304 58 l 313 58 l 324 25 q 325 18 326 14 q 327 9 327 3 q 330 6 330 9 q 330 12 331 16 l 342 58 l 349 58 l 331 -5 l 324 -5 l 312 42 q 310 46 310 49 q 307 46 307 42 l 294 -5 z m 664 28 l 682 28 q 685 28 688 29 q 690 30 693 30 q 696 30 696 34 q 697 36 697 40 q 697 45 694 48 q 693 49 684 49 l 664 49 z m 384 1 l 400 1 q 403 1 405 3 l 409 3 q 411 6 414 7 l 414 13 q 414 16 411 19 q 411 22 408 22 l 397 22 l 384 22 z m 435 -5 l 435 58 l 442 58 l 442 -5 z m 985 25 q 985 12 990 7 q 996 1 1006 1 q 1017 1 1021 7 q 1027 12 1027 27 q 1027 34 1026 39 q 1023 46 1018 48 q 1014 49 1006 49 q 997 49 993 45 q 985 39 985 25 z m 976 25 q 976 42 985 49 q 991 58 1006 58 q 1011 58 1014 56 q 1018 55 1021 54 q 1026 52 1028 49 q 1030 46 1033 42 q 1035 39 1035 27 q 1035 13 1032 9 q 1027 1 1021 -3 q 1015 -6 1006 -6 q 1002 -6 998 -6 q 994 -5 990 -3 q 987 0 984 3 q 982 6 981 9 q 979 13 978 17 q 976 21 976 25 z m 592 -5 l 616 58 l 625 58 l 651 -5 l 642 -5 l 634 13 l 609 13 l 600 -5 z m 459 -5 l 459 58 l 466 58 l 466 1 l 495 1 l 495 -5 z m 892 -5 l 892 3 l 903 3 l 903 -5 z m 748 19 l 748 27 l 774 27 l 774 3 q 768 -3 762 -5 q 759 -5 755 -6 q 751 -6 748 -6 q 739 -6 733 -3 q 729 0 726 2 q 723 4 721 9 q 720 13 718 17 q 717 21 717 25 q 717 31 718 34 q 720 37 721 42 q 724 51 732 54 q 735 55 740 56 q 744 58 748 58 q 756 58 760 55 q 766 54 768 49 q 772 45 774 40 l 766 39 q 766 40 762 45 q 762 48 756 49 l 748 49 l 739 49 q 735 48 732 45 q 732 43 727 39 q 727 36 726 33 q 726 30 726 27 q 726 16 729 13 q 735 4 736 3 q 741 1 748 1 q 754 1 759 3 q 762 6 764 6 q 765 6 766 7 l 766 19 z m 657 -5 l 657 58 l 684 58 q 688 58 691 56 q 694 55 697 55 q 702 54 703 49 q 706 46 706 40 q 706 33 702 28 q 700 27 696 26 q 693 25 688 22 q 691 22 692 22 q 693 21 694 21 q 696 18 696 16 q 697 13 700 10 l 712 -5 l 702 -5 l 693 7 q 690 10 689 12 q 688 15 687 16 q 687 19 686 19 q 684 19 682 21 l 681 21 q 679 21 679 22 q 679 22 678 22 l 675 22 l 664 22 l 664 -5 z m 505 -5 l 505 58 l 514 58 l 514 1 l 544 1 l 544 -5 z m 961 16 l 969 15 q 966 3 960 0 q 954 -6 943 -6 q 934 -6 928 -3 q 924 0 922 3 q 921 6 918 9 q 915 21 915 27 q 915 33 918 45 q 925 52 928 54 q 933 55 936 56 q 939 58 943 58 q 948 58 952 56 q 957 55 960 54 q 963 51 965 48 q 967 45 969 40 l 960 39 q 960 45 954 48 q 951 49 943 49 q 934 49 931 48 q 928 46 928 44 q 927 42 924 39 q 924 36 923 33 q 922 30 922 27 q 922 18 927 13 q 927 10 928 8 q 930 6 931 3 q 936 1 943 1 q 951 1 955 6 q 960 10 961 16 z m 1047 -5 l 1047 58 l 1059 58 l 1074 13 q 1074 10 1076 8 q 1077 6 1077 3 q 1077 4 1080 13 l 1093 58 l 1105 58 l 1105 -5 l 1098 -5 l 1098 46 l 1080 -5 l 1072 -5 l 1054 48 l 1054 -5 z m 610 21 l 631 21 l 624 39 q 622 42 622 44 q 622 46 619 49 q 619 45 616 39 z m 352 -5 l 352 3 l 363 3 l 363 -5 z m 844 -5 l 844 58 l 852 58 l 852 1 l 883 1 l 883 -5 z m 787 -5 l 787 58 l 832 58 l 832 49 l 795 49 l 795 30 l 829 30 l 829 22 l 795 22 l 795 1 l 832 1 l 832 -5 z m 565 -5 l 565 21 l 541 58 l 552 58 l 564 39 q 567 30 570 28 q 571 30 572 33 q 574 36 577 39 l 589 58 l 598 58 l 573 21 l 573 -5 z m 376 -5 l 376 58 l 400 58 q 403 58 406 56 q 408 55 409 55 q 415 54 417 49 q 420 46 420 40 q 420 36 417 34 q 415 28 411 28 q 415 27 420 22 q 423 16 423 13 q 423 10 422 8 q 421 7 421 6 q 420 0 415 0 q 414 -3 412 -3 q 411 -3 409 -5 l 400 -5 z m 205 -5 l 187 58 l 196 58 l 205 16 q 207 12 207 9 q 207 6 208 3 q 210 10 210 15 l 222 58 l 232 58 l 241 25 q 243 18 244 14 q 246 9 246 3 q 247 6 247 9 q 247 12 249 16 l 259 58 l 267 58 l 249 -5 l 241 -5 l 229 42 q 228 46 228 49 q 226 46 226 42 l 213 -5 z m 123 -5 l 105 58 l 115 58 l 123 16 q 123 9 127 3 q 129 10 129 15 l 141 58 l 150 58 l 160 25 q 162 18 162 14 q 163 9 163 3 q 166 6 166 9 q 166 12 168 16 l 177 58 l 186 58 l 168 -5 l 160 -5 l 148 42 q 147 46 147 49 q 144 46 144 42 l 130 -5 z m 384 30 l 397 30 q 403 30 405 33 q 409 33 409 34 q 411 36 411 40 q 411 45 409 46 l 408 46 q 406 46 406 47 q 406 48 405 48 q 403 49 396 49 l 384 49 z m 285 -5 l 268 58 l 277 58 l 286 16 q 288 12 288 9 q 288 6 291 3 q 291 9 292 11 q 292 13 292 15 l 304 58 l 313 58 l 324 25 q 325 18 326 14 q 327 9 327 3 q 330 6 330 9 q 330 12 331 16 l 342 58 l 349 58 l 331 -5 l 324 -5 l 312 42 q 310 46 310 49 q 307 46 307 42 l 294 -5 z m 664 28 l 682 28 q 685 28 688 29 q 690 30 693 30 q 696 30 696 34 q 697 36 697 40 q 697 45 694 48 q 693 49 684 49 l 664 49 z m 384 1 l 400 1 q 403 1 405 3 l 409 3 q 411 6 414 7 l 414 13 q 414 16 411 19 q 411 22 408 22 l 397 22 l 384 22 z m 435 -5 l 435 58 l 442 58 l 442 -5 z m 985 25 q 985 12 990 7 q 996 1 1006 1 q 1017 1 1021 7 q 1027 12 1027 27 q 1027 34 1026 39 q 1023 46 1018 48 q 1014 49 1006 49 q 997 49 993 45 q 985 39 985 25 z m 976 25 q 976 42 985 49 q 991 58 1006 58 q 1011 58 1014 56 q 1018 55 1021 54 q 1026 52 1028 49 q 1030 46 1033 42 q 1035 39 1035 27 q 1035 13 1032 9 q 1027 1 1021 -3 q 1015 -6 1006 -6 q 1002 -6 998 -6 q 994 -5 990 -3 q 987 0 984 3 q 982 6 981 9 q 979 13 978 17 q 976 21 976 25 z m 592 -5 l 616 58 l 625 58 l 651 -5 l 642 -5 l 634 13 l 609 13 l 600 -5 z m 459 -5 l 459 58 l 466 58 l 466 1 l 495 1 l 495 -5 z m 892 -5 l 892 3 l 903 3 l 903 -5 z m 748 19 l 748 27 l 774 27 l 774 3 q 768 -3 762 -5 q 759 -5 755 -6 q 751 -6 748 -6 q 739 -6 733 -3 q 729 0 726 2 q 723 4 721 9 q 720 13 718 17 q 717 21 717 25 q 717 31 718 34 q 720 37 721 42 q 724 51 732 54 q 735 55 740 56 q 744 58 748 58 q 756 58 760 55 q 766 54 768 49 q 772 45 774 40 l 766 39 q 766 40 762 45 q 762 48 756 49 l 748 49 l 739 49 q 735 48 732 45 q 732 43 727 39 q 727 36 726 33 q 726 30 726 27 q 726 16 729 13 q 735 4 736 3 q 741 1 748 1 q 754 1 759 3 q 762 6 764 6 q 765 6 766 7 l 766 19 z m 657 -5 l 657 58 l 684 58 q 688 58 691 56 q 694 55 697 55 q 702 54 703 49 q 706 46 706 40 q 706 33 702 28 q 700 27 696 26 q 693 25 688 22 q 691 22 692 22 q 693 21 694 21 q 696 18 696 16 q 697 13 700 10 l 712 -5 l 702 -5 l 693 7 q 690 10 689 12 q 688 15 687 16 q 687 19 686 19 q 684 19 682 21 l 681 21 q 679 21 679 22 q 679 22 678 22 l 675 22 l 664 22 l 664 -5 z m 505 -5 l 505 58 l 514 58 l 514 1 l 544 1 l 544 -5 z m 961 16 l 969 15 q 966 3 960 0 q 954 -6 943 -6 q 934 -6 928 -3 q 924 0 922 3 q 921 6 918 9 q 915 21 915 27 q 915 33 918 45 q 925 52 928 54 q 933 55 936 56 q 939 58 943 58 q 948 58 952 56 q 957 55 960 54 q 963 51 965 48 q 967 45 969 40 l 960 39 q 960 45 954 48 q 951 49 943 49 q 934 49 931 48 q 928 46 928 44 q 927 42 924 39 q 924 36 923 33 q 922 30 922 27 q 922 18 927 13 q 927 10 928 8 q 930 6 931 3 q 936 1 943 1 q 951 1 955 6 q 960 10 961 16 z m 1047 -5 l 1047 58 l 1059 58 l 1074 13 q 1074 10 1076 8 q 1077 6 1077 3 q 1077 4 1080 13 l 1093 58 l 1105 58 l 1105 -5 l 1098 -5 l 1098 46 l 1080 -5 l 1072 -5 l 1054 48 l 1054 -5 z m 175 111 l 187 106 q 184 93 174 84 q 162 75 148 75 q 135 75 123 81 q 111 90 109 99 q 103 109 103 124 q 103 141 109 151 q 114 162 124 166 q 135 172 148 172 q 165 172 171 165 q 181 162 186 145 l 174 144 q 168 156 163 157 q 157 163 148 163 q 136 163 130 157 q 121 151 118 144 q 117 138 117 124 q 117 111 121 105 q 124 94 130 91 q 138 85 147 85 q 159 85 166 93 q 169 96 172 100 q 174 105 175 111 z m 199 123 q 199 135 202 144 q 205 153 213 159 q 219 166 227 169 q 235 172 244 172 q 258 172 268 166 q 277 162 285 150 q 291 135 291 124 q 291 117 290 111 q 288 105 285 99 q 277 87 267 81 q 255 75 244 75 q 237 75 232 76 q 226 78 220 81 q 210 87 205 99 q 199 109 199 123 z m 213 123 q 213 105 220 94 q 231 85 244 85 q 259 85 267 97 q 277 108 277 124 q 277 130 276 134 q 274 139 273 144 q 270 154 261 157 q 256 163 244 163 q 232 163 222 153 q 213 145 213 123 z m 306 78 l 306 171 l 324 171 l 346 105 q 351 96 351 91 q 354 94 357 106 l 381 171 l 396 171 l 396 78 l 384 78 l 384 156 l 357 78 l 345 78 l 318 157 l 318 78 z m 417 78 l 417 171 l 453 171 l 466 171 q 474 171 478 166 q 480 165 486 157 q 487 154 488 151 q 489 148 489 144 q 489 135 481 124 q 474 117 453 117 l 429 117 l 429 78 z m 429 126 l 454 126 q 468 126 469 132 q 475 133 475 144 q 475 151 474 153 q 468 159 463 159 q 462 162 453 162 l 429 162 z m 505 78 l 505 171 l 517 171 l 517 87 l 564 87 l 564 78 z m 579 78 l 579 171 l 648 171 l 648 162 l 591 162 l 591 132 l 643 132 l 643 120 l 591 120 l 591 87 l 649 87 l 649 78 z m 690 78 l 690 162 l 658 162 l 658 171 l 735 171 l 735 162 l 703 162 l 703 78 z m 748 78 l 748 171 l 817 171 l 817 162 l 760 162 l 760 132 l 813 132 l 813 120 l 760 120 l 760 87 l 819 87 l 819 78 z m 870 106 l 882 108 q 882 100 885 97 q 888 91 895 88 q 898 87 909 87 q 912 87 916 87 q 919 87 922 88 q 927 88 930 94 q 931 97 931 103 q 931 108 930 111 q 928 112 926 113 q 924 114 921 117 q 919 117 904 120 q 897 123 892 124 q 888 124 885 126 q 879 129 876 136 q 873 138 872 141 q 871 144 871 147 q 871 156 877 162 q 879 165 882 166 q 885 168 889 171 q 892 172 907 172 q 918 172 924 169 q 928 166 931 164 q 934 163 936 159 q 942 154 942 145 l 930 144 q 927 156 922 157 q 918 162 907 162 q 892 162 889 157 q 885 153 885 147 q 885 142 889 139 q 889 139 907 132 q 915 130 920 128 q 925 127 928 126 q 933 124 935 122 q 937 120 940 117 q 943 112 943 103 q 943 93 940 88 q 934 82 928 79 q 924 78 920 76 q 915 75 909 75 q 903 75 897 76 q 891 78 888 79 q 880 81 873 91 q 870 97 870 106 z m 961 78 l 961 171 l 1029 171 l 1029 162 l 975 162 l 975 132 l 1027 132 l 1027 120 l 975 120 l 975 87 l 1032 87 l 1032 78 z m 1074 78 l 1074 162 l 1044 162 l 1044 171 l 1117 171 l 1117 162 l 1086 162 l 1086 78 z m 112 190 l 112 283 l 150 283 l 163 283 q 166 283 175 280 q 177 279 179 276 q 181 273 183 270 q 186 267 186 259 q 186 246 177 237 q 172 229 150 229 l 127 229 l 127 190 z m 127 241 l 150 241 q 163 241 168 244 q 174 250 174 256 q 174 259 172 262 q 171 265 169 268 q 165 273 162 273 q 160 274 150 274 l 127 274 z m 201 190 l 201 283 l 268 283 l 268 274 l 214 274 l 214 244 l 265 244 l 265 234 l 214 234 l 214 202 l 271 202 l 271 190 z m 288 190 l 288 283 l 331 283 q 345 283 351 282 q 358 279 361 274 q 364 262 364 259 q 364 249 358 243 q 352 237 337 234 q 340 231 342 231 q 343 231 345 229 q 352 222 355 216 l 372 190 l 357 190 l 343 210 q 342 214 340 217 q 337 220 336 223 q 333 225 332 227 q 331 229 330 229 q 327 231 324 231 q 322 234 316 234 l 303 234 l 303 190 z m 303 243 l 327 243 q 339 243 342 244 q 346 249 349 250 q 351 253 351 259 q 351 265 346 270 q 342 274 331 274 l 303 274 z m 381 222 l 391 222 q 391 219 392 216 q 394 213 396 210 q 397 208 400 206 q 402 204 405 204 q 414 201 420 201 q 423 201 426 201 q 429 201 430 202 q 439 205 441 208 q 441 210 442 212 q 442 214 442 216 q 442 222 441 223 q 436 226 430 229 q 429 231 425 231 q 421 231 415 234 q 402 235 396 240 q 388 246 385 249 q 384 253 384 261 q 384 264 384 268 q 385 271 388 274 q 390 280 400 283 q 403 286 417 286 q 429 286 435 283 q 444 279 447 273 q 453 264 453 259 l 441 256 q 438 267 433 270 q 427 276 417 276 q 405 276 400 270 q 396 267 396 261 q 396 255 400 253 q 402 250 417 247 q 430 241 439 241 q 442 238 445 236 q 448 234 450 231 q 454 226 454 217 q 454 210 450 204 q 447 199 444 197 q 442 195 439 192 q 427 189 420 189 q 409 189 397 192 q 393 195 390 197 q 387 199 384 204 q 382 208 382 212 q 381 216 381 222 z m 468 237 q 468 258 480 273 q 493 286 513 286 q 519 286 524 284 q 529 283 537 280 q 543 277 546 272 q 549 268 552 262 q 558 252 558 237 q 558 223 552 211 q 546 201 537 195 q 525 189 513 189 q 499 189 489 196 q 475 204 474 214 q 468 222 468 237 z m 480 237 q 480 219 489 210 q 498 201 513 201 q 528 201 537 210 q 544 220 544 237 q 544 243 544 249 q 543 255 540 259 q 535 267 531 270 q 523 276 513 276 q 505 276 500 274 q 496 271 489 267 q 480 258 480 237 z m 573 190 l 573 283 l 586 283 l 636 211 l 636 283 l 648 283 l 648 190 l 636 190 l 585 264 l 585 190 z m 658 190 l 694 283 l 708 283 l 747 190 l 732 190 l 721 220 l 682 220 l 670 190 z m 684 229 l 717 229 l 708 255 q 705 261 704 266 q 702 271 700 274 q 700 270 698 266 q 697 261 696 256 z m 754 190 l 754 283 l 768 283 l 768 202 l 814 202 l 814 190 z m 922 283 l 934 283 l 934 231 q 934 214 931 208 q 928 199 921 195 q 913 189 898 189 q 883 189 877 195 q 873 196 870 200 q 867 204 864 208 q 862 211 862 231 l 862 283 l 873 283 l 873 231 q 873 216 876 211 q 879 205 883 204 q 886 202 889 202 q 892 201 897 201 q 909 201 916 205 q 922 211 922 231 z m 951 222 l 963 222 q 963 219 964 216 q 966 213 967 210 q 969 208 971 206 q 973 204 976 204 q 985 201 990 201 q 1000 201 1005 202 q 1008 204 1012 208 q 1014 210 1014 216 q 1014 222 1012 223 q 1009 225 1008 226 q 1008 228 1005 229 q 1002 231 998 231 q 993 231 987 234 q 981 235 976 236 q 970 237 969 240 q 961 243 960 249 q 955 253 955 261 q 955 267 960 274 q 961 280 970 283 q 976 286 988 286 q 993 286 998 286 q 1003 286 1006 283 q 1015 279 1020 273 q 1021 270 1022 266 q 1024 262 1024 259 l 1012 256 q 1009 261 1008 264 q 1008 268 1005 270 q 1000 276 988 276 q 975 276 973 270 q 967 268 967 261 q 967 256 970 253 q 973 250 988 247 q 1005 241 1009 241 q 1014 238 1017 236 q 1020 234 1021 231 q 1026 228 1026 217 q 1026 208 1021 204 q 1018 199 1016 197 q 1014 195 1009 192 q 1000 189 993 189 q 985 189 980 190 q 975 190 970 192 q 967 195 964 197 q 960 199 957 204 q 954 208 952 212 q 951 216 951 222 z m 1044 190 l 1044 283 l 1111 283 l 1111 274 l 1057 274 l 1057 244 l 1107 244 l 1107 234 l 1057 234 l 1057 202 l 1113 202 l 1113 190 z m 307 388 q 307 403 285 406 q 282 406 278 407 q 273 408 267 408 l 258 397 l 234 372 q 228 364 222 358 q 217 352 210 348 q 219 345 232 343 q 235 343 240 343 q 246 343 250 345 q 273 346 285 357 q 307 375 307 388 z m 324 433 q 324 439 316 439 q 313 439 291 432 l 274 417 q 271 414 268 408 l 294 412 q 300 412 310 420 q 324 429 324 433 z m 343 460 q 343 457 339 457 q 336 457 335 458 q 334 459 331 459 q 316 456 297 436 q 300 439 304 440 q 307 442 310 444 q 321 445 330 444 q 336 444 336 436 l 336 430 q 328 417 294 409 q 321 406 321 391 q 321 373 292 354 q 282 348 270 344 q 259 340 247 339 q 228 334 217 336 q 208 336 198 340 q 189 334 181 334 l 178 334 q 169 337 163 339 l 168 339 q 180 339 187 345 l 187 346 q 177 340 165 340 q 148 340 139 349 q 124 360 124 381 q 124 387 126 392 q 127 397 130 405 q 141 427 166 444 q 174 451 182 454 q 190 456 198 457 q 214 457 220 451 q 213 456 205 456 q 196 456 186 450 q 171 444 169 441 q 154 433 139 415 q 126 394 126 379 q 126 372 128 368 q 129 363 132 358 q 138 349 148 346 q 153 345 156 344 q 159 343 162 343 q 168 343 172 344 q 177 346 183 349 q 166 361 166 382 q 169 402 190 417 l 187 412 q 184 412 181 406 q 172 397 172 387 q 172 367 195 354 q 207 361 207 363 q 210 367 213 370 q 216 373 219 376 q 222 379 222 384 q 223 388 226 393 l 226 391 q 226 384 225 379 l 243 400 q 289 453 319 462 q 306 466 298 466 q 279 465 256 453 q 229 439 229 420 q 229 414 234 409 q 235 408 235 406 q 226 412 226 421 q 226 438 246 454 q 270 472 297 469 q 306 469 324 463 l 330 463 q 337 463 342 460 z m 346 363 q 345 357 334 346 q 324 340 316 340 q 309 340 309 349 q 309 357 318 369 l 316 369 q 315 367 310 367 q 310 367 309 369 q 313 369 324 379 l 325 379 l 330 385 q 334 390 334 393 l 339 393 q 343 393 343 391 q 343 385 334 375 l 324 364 q 315 351 315 346 q 315 342 321 342 q 328 342 339 357 q 340 358 342 359 q 343 360 346 363 z m 354 405 q 348 396 339 396 q 334 396 328 400 l 333 400 q 343 400 346 411 l 346 414 l 354 411 q 355 409 354 405 z m 406 433 q 406 426 360 370 l 358 370 q 345 354 345 345 q 345 340 349 340 q 358 340 369 355 q 370 357 372 358 q 373 358 375 361 q 375 354 363 345 q 355 339 346 339 q 337 340 337 348 q 336 355 367 394 l 385 417 l 394 426 q 399 432 402 441 q 406 438 406 433 z m 432 433 q 432 427 384 370 q 369 352 369 345 q 369 340 375 340 q 381 340 394 355 l 400 361 q 399 354 387 345 q 379 339 370 339 q 361 340 361 348 q 361 357 391 394 l 409 417 l 418 426 q 426 435 427 441 q 432 438 432 433 z m 403 333 q 379 328 366 315 q 355 301 355 298 q 355 292 361 292 q 363 291 372 294 q 375 297 378 300 q 382 304 387 309 z m 447 430 q 444 409 427 393 q 427 391 426 391 q 426 391 426 390 q 421 384 416 378 q 411 373 406 366 q 403 363 403 360 q 402 363 405 369 q 396 355 396 348 q 396 343 400 343 q 402 343 408 346 q 430 364 439 397 l 439 393 l 439 388 q 442 385 442 381 q 442 378 435 366 l 423 346 l 409 328 q 414 331 426 337 l 424 336 q 421 333 416 329 q 411 325 406 318 l 394 303 l 388 295 q 379 286 369 283 q 360 283 355 289 q 346 292 352 303 q 354 304 356 307 q 357 310 360 313 l 361 315 l 351 313 q 376 331 393 333 q 394 333 396 334 q 397 334 399 334 l 400 334 l 403 334 l 412 348 q 406 342 402 341 q 397 340 394 340 q 387 340 387 348 q 387 366 418 394 l 421 396 l 436 411 q 439 417 442 422 q 445 426 447 430 z m 618 453 q 609 456 603 456 q 588 456 575 452 q 562 448 549 441 q 543 438 539 434 q 535 430 531 427 q 549 426 579 408 q 612 441 636 450 z m 649 447 q 643 445 636 443 q 630 441 622 433 q 618 430 600 412 l 589 402 l 604 393 q 607 397 613 404 q 619 411 627 420 z m 663 472 q 663 471 661 469 q 661 459 657 448 l 658 447 l 657 447 q 649 429 637 417 l 613 388 q 616 387 618 387 q 619 387 622 385 q 622 382 621 382 q 618 382 616 383 q 615 384 612 385 q 594 366 592 349 q 589 343 589 340 q 589 334 595 334 q 607 334 621 354 l 627 363 q 642 384 646 400 l 646 405 q 646 403 648 402 l 648 400 q 645 379 633 361 l 613 322 q 613 328 618 342 q 600 328 591 328 q 577 328 580 346 q 580 355 586 366 q 592 378 601 391 l 586 399 l 573 385 q 568 379 560 370 q 552 361 540 346 q 516 322 498 322 l 493 322 q 489 322 480 327 q 480 327 483 327 q 496 324 510 337 q 498 331 481 331 q 465 331 454 339 l 456 339 q 441 349 441 370 q 441 385 447 393 q 456 417 481 433 q 490 441 498 443 q 507 445 516 447 q 531 447 537 441 l 535 441 q 532 444 522 444 q 507 444 484 430 q 468 418 456 405 q 442 384 442 367 q 442 343 465 336 q 474 333 478 333 q 510 334 547 375 l 576 405 q 553 418 525 418 l 523 418 q 520 412 520 405 q 522 405 528 396 q 517 402 517 411 q 517 415 519 418 q 504 415 499 412 q 472 402 475 381 q 475 367 484 357 l 487 354 q 469 372 469 385 q 469 405 487 418 q 502 429 525 429 q 546 453 577 457 q 585 459 601 459 q 609 459 624 456 l 642 451 l 651 451 l 652 450 q 658 460 661 475 l 663 475 z m 682 375 q 682 370 681 367 q 673 360 668 354 q 663 348 658 340 l 660 340 l 661 340 q 660 339 658 339 q 657 339 657 337 q 649 337 649 340 q 649 346 663 360 q 673 373 673 376 q 675 381 669 385 q 651 360 637 354 l 631 351 l 628 352 q 634 352 648 367 q 661 379 666 387 q 666 388 665 388 q 664 388 664 390 q 664 391 675 400 q 675 402 676 402 l 678 400 q 678 399 670 388 q 682 384 682 375 z m 726 379 q 726 388 720 385 q 714 385 711 382 q 706 379 697 367 q 688 355 688 348 q 687 345 691 345 q 700 348 706 355 q 712 367 712 372 q 712 375 711 375 q 717 375 717 367 l 715 364 q 718 367 720 371 q 723 375 726 378 z m 754 393 q 748 393 741 385 q 735 378 729 369 q 723 360 715 348 q 708 333 702 324 q 696 316 694 313 q 675 289 664 289 q 655 288 651 295 q 651 303 651 303 q 651 310 657 316 q 654 315 649 315 q 664 330 682 334 q 684 334 684 335 q 685 336 688 336 l 690 334 q 661 325 655 307 q 654 304 654 300 q 654 298 655 297 q 655 295 657 295 q 669 294 685 318 l 696 333 l 702 342 q 697 340 694 340 q 682 340 682 352 q 682 366 702 384 q 711 393 718 393 q 729 393 729 381 l 730 381 l 738 390 q 745 397 751 397 q 756 397 759 393 z m 781 382 q 781 373 765 364 q 763 363 762 363 l 760 363 q 756 363 751 370 q 754 367 759 367 q 769 373 772 384 l 772 387 l 772 388 l 772 390 q 766 390 753 376 l 753 375 q 748 369 748 365 q 747 361 747 358 q 745 360 745 367 q 742 361 741 357 q 738 351 738 346 q 738 345 739 343 q 739 340 745 340 q 760 346 771 355 q 774 358 778 361 q 775 357 772 353 q 769 349 762 345 q 750 337 741 340 q 741 339 739 340 q 730 340 730 349 q 730 364 747 379 q 756 393 771 393 q 774 393 775 391 q 781 387 781 382 z m 841 433 q 841 427 793 370 q 780 354 780 345 q 780 340 784 340 q 793 340 804 355 q 805 357 806 358 q 808 358 810 361 q 810 354 798 345 q 790 339 780 339 q 772 342 772 348 q 772 360 801 394 l 819 417 l 828 426 q 837 435 837 441 q 841 438 841 433 z m 922 387 q 897 396 895 415 q 888 411 880 407 q 873 403 868 399 q 840 372 840 349 q 840 340 844 339 l 847 339 l 850 339 q 873 339 892 354 q 898 360 906 368 q 915 375 922 387 z m 952 430 l 940 430 q 922 429 897 417 q 900 396 925 391 l 936 405 z m 979 457 q 960 457 944 454 q 928 451 916 444 q 924 451 935 456 q 946 460 960 463 q 930 465 907 445 q 903 442 897 430 q 907 433 917 434 q 927 436 939 435 q 942 435 946 435 q 951 435 958 433 q 961 438 966 444 q 972 450 979 457 z m 1074 459 q 1071 454 1067 450 q 1063 447 1056 444 q 1044 436 1033 436 l 1030 436 q 1029 436 1027 438 q 1029 439 1029 440 q 1029 442 1032 445 q 1018 456 994 456 l 988 448 l 973 430 q 985 429 996 428 q 1006 426 1015 426 q 1036 426 1044 430 q 1038 424 1021 421 q 1008 418 994 423 l 970 427 q 964 420 959 414 q 954 409 951 403 l 940 388 l 948 388 q 985 391 991 406 l 993 406 q 988 397 973 390 q 966 387 959 386 q 952 384 946 384 l 939 384 q 928 372 922 363 q 915 354 909 348 q 889 327 873 327 q 865 328 856 328 q 871 328 888 343 q 867 334 855 334 l 846 336 l 858 324 q 846 330 838 337 q 837 337 831 340 q 813 354 811 375 q 811 382 811 388 q 811 394 814 400 q 819 414 826 424 q 834 433 844 444 q 870 466 889 466 q 900 466 907 460 l 906 459 q 901 463 892 463 q 873 460 852 444 q 834 429 825 414 q 813 393 813 375 q 816 348 837 340 q 834 349 835 358 q 838 381 852 397 q 868 418 897 430 q 900 433 900 439 l 913 453 q 933 469 964 469 q 972 469 977 469 q 982 469 990 468 l 991 468 q 1002 475 1010 479 q 1018 483 1027 481 q 1033 481 1036 478 q 1020 475 1020 475 q 1017 474 1013 472 q 1009 471 1005 468 q 1011 466 1017 466 q 1023 465 1030 462 q 1045 457 1054 457 q 1068 457 1074 459 z m 982 354 q 978 358 978 364 q 978 367 978 370 q 979 372 979 375 q 964 355 966 346 q 966 343 969 343 q 972 343 982 354 z m 1002 385 q 1002 388 999 388 q 996 388 993 387 q 991 385 988 379 q 981 364 981 360 q 981 355 982 354 l 987 358 l 987 360 l 987 358 q 988 360 988 360 q 988 361 990 363 q 993 372 993 375 q 993 376 991 378 q 994 372 994 370 q 999 375 1002 385 z m 1008 381 q 1008 373 997 358 q 984 345 978 340 l 966 340 q 957 340 957 348 q 957 360 973 379 q 984 393 997 393 q 1008 393 1008 381 z m 1057 384 q 1059 381 1051 367 q 1042 355 1039 352 l 1021 336 q 1011 325 1008 313 q 1009 331 1021 345 q 1027 351 1030 356 q 1033 360 1036 366 q 1038 367 1039 372 l 1039 367 q 1039 367 1038 364 q 1041 367 1047 379 q 1047 381 1048 382 q 1048 382 1048 384 q 1048 391 1041 388 q 1041 388 1029 379 q 1026 372 1020 366 q 1015 361 1009 354 q 1002 345 1000 340 q 999 339 993 327 q 993 330 992 334 q 991 337 993 340 q 996 351 1006 361 l 1015 372 q 1023 382 1023 388 q 1023 390 1022 392 q 1021 393 1021 394 q 1030 391 1030 385 q 1039 393 1050 393 q 1056 390 1057 384 z m 1116 405 l 1093 405 q 1092 402 1084 393 q 1075 384 1063 367 q 1060 367 1057 360 q 1051 352 1051 345 q 1051 340 1054 340 q 1062 340 1075 355 l 1077 357 q 1078 358 1078 359 q 1078 360 1080 361 q 1080 354 1069 345 q 1062 339 1051 339 q 1044 342 1042 348 q 1042 351 1048 363 l 1066 384 l 1083 405 l 1057 408 q 1051 409 1042 409 l 1029 409 q 1011 409 993 402 l 991 402 q 1006 417 1038 417 q 1039 417 1050 414 q 1062 412 1083 409 l 1087 408 q 1092 415 1096 420 q 1099 426 1102 430 q 1105 429 1105 423 q 1105 418 1102 415 l 1096 406 l 1108 405 l 1117 405 l 1119 405 l 1123 405 z m 1126 385 q 1126 381 1116 376 l 1114 375 q 1119 379 1119 387 l 1119 393 l 1114 393 q 1107 393 1105 387 q 1105 384 1110 361 q 1111 340 1086 340 q 1072 340 1069 349 q 1068 351 1068 354 q 1068 366 1086 369 l 1092 367 l 1089 367 q 1083 367 1080 364 q 1075 357 1075 354 q 1075 342 1087 342 q 1099 342 1099 358 q 1099 366 1098 370 q 1096 375 1096 381 q 1096 396 1110 396 q 1113 396 1114 395 q 1116 394 1119 394 q 1125 391 1125 390 q 1126 388 1126 385 z"},"e":{"x_min":0,"x_max":233,"ha":233,"o":"m 74 137 q 71 128 68 110 q 65 92 64 73 q 93 92 117 122 q 141 151 154 180 q 167 208 167 229 q 167 250 148 251 q 139 252 128 241 q 118 230 108 214 q 99 197 90 176 q 81 156 74 137 z m 67 -6 q 38 -1 22 15 q 7 31 1 53 q -5 75 -2 100 q 0 124 8 146 q 15 163 28 187 q 41 211 60 233 q 79 255 104 270 q 128 285 158 285 q 177 285 188 278 q 198 271 202 261 q 207 251 207 239 q 207 227 206 215 q 204 199 192 176 q 181 153 162 130 q 143 106 118 84 q 94 63 66 50 q 68 39 76 32 q 84 24 94 26 q 128 31 158 52 q 187 73 211 100 q 235 128 253 158 q 271 187 281 209 q 283 214 288 216 q 294 218 299 218 q 304 218 308 215 q 311 212 309 208 q 289 170 266 130 q 242 90 212 58 q 183 26 147 8 q 111 -11 67 -6 z"},"b":{"x_min":0,"x_max":279,"ha":279,"o":"m 117 206 q 114 202 111 194 q 108 187 106 178 q 103 169 100 160 q 98 151 96 144 q 94 137 94 131 q 93 125 92 118 q 92 109 94 98 q 96 87 101 78 q 106 68 114 60 q 122 53 133 50 q 143 68 152 91 q 160 114 167 139 q 173 161 176 182 q 179 204 179 220 q 179 237 176 247 q 174 257 169 256 q 161 255 152 248 q 144 241 137 233 q 130 225 124 217 q 119 209 117 206 z m 94 16 q 101 14 108 19 q 114 24 121 32 q 95 40 82 54 l 79 41 q 79 40 80 40 q 77 29 82 23 q 86 17 94 16 z m 124 276 l 117 242 q 130 260 143 268 q 156 275 178 277 q 210 278 223 260 q 236 241 238 216 q 241 191 237 168 q 233 144 230 134 q 225 118 220 103 q 215 88 208 73 q 241 96 272 132 q 303 167 327 209 q 330 213 336 215 q 341 217 346 217 q 351 217 354 214 q 357 212 355 207 l 342 184 q 333 167 318 146 q 302 125 282 104 q 261 83 237 66 q 213 48 187 38 q 170 13 146 -1 q 121 -15 89 -11 q 74 -9 65 -4 q 65 -14 57 -16 q 49 -17 39 -14 q 29 -10 21 -4 q 13 1 13 5 q 13 17 16 48 q 20 78 27 119 q 34 160 44 207 q 53 254 65 298 q 77 343 91 382 q 105 420 120 443 q 124 454 136 460 q 147 467 159 468 q 171 470 180 466 q 188 463 186 453 q 172 427 156 379 q 139 331 124 276 z"},"m":{"x_min":0,"x_max":440,"ha":440,"o":"m 35 259 q 47 273 60 283 q 74 293 94 288 q 97 287 100 278 q 104 269 106 258 q 109 246 111 235 q 113 224 114 220 q 123 237 136 252 q 149 267 162 277 q 181 289 202 290 q 224 291 237 277 q 252 261 250 225 q 264 243 280 257 q 296 271 307 278 q 319 285 332 288 q 345 291 357 290 q 369 288 378 283 q 387 278 390 270 q 392 259 389 240 q 386 221 381 198 q 376 176 370 152 q 364 128 361 109 q 361 106 358 94 q 355 81 352 68 q 350 54 350 42 q 349 31 353 31 q 356 30 374 52 q 392 74 414 104 q 437 134 459 164 q 481 194 492 209 q 495 213 501 215 q 507 217 512 217 q 517 217 520 214 q 522 212 520 207 q 516 198 504 178 q 493 159 476 135 q 460 111 441 84 q 422 58 403 37 q 384 16 366 2 q 348 -12 334 -11 q 308 -9 295 2 q 282 13 280 31 q 278 52 283 78 q 288 104 296 132 q 303 161 310 188 q 318 216 321 240 q 322 243 320 249 q 317 255 310 250 q 307 248 299 242 q 291 237 282 228 q 272 218 262 204 q 253 191 246 175 q 239 134 226 89 q 212 44 198 9 q 196 3 186 -1 q 177 -5 166 -6 q 155 -8 145 -6 q 135 -4 132 2 q 140 29 150 59 q 159 89 167 120 q 175 151 179 182 q 183 213 180 240 q 179 243 177 246 q 175 250 167 248 q 162 247 154 238 q 146 229 138 216 q 129 203 122 188 q 116 174 113 162 q 108 126 100 90 q 91 54 75 15 q 72 7 60 2 q 49 -3 37 -5 q 25 -7 16 -4 q 6 -2 7 6 q 14 35 23 67 q 32 99 38 132 q 44 164 44 196 q 45 229 35 259 z"},"n":{"x_min":0,"x_max":313,"ha":313,"o":"m 35 252 q 35 260 40 267 q 46 274 54 279 q 63 284 74 287 q 84 290 94 290 q 100 290 103 280 q 106 269 108 256 q 110 243 110 230 q 111 218 112 212 q 126 232 144 251 q 163 270 174 278 q 186 285 200 288 q 213 291 226 290 q 238 289 246 284 q 255 279 257 270 q 259 259 256 240 q 254 221 250 198 q 245 176 240 152 q 234 129 230 109 q 228 103 224 91 q 220 79 217 66 q 214 53 213 44 q 212 34 216 33 q 218 32 228 42 q 237 53 250 69 q 263 85 278 106 q 294 126 309 146 q 324 165 337 182 q 350 199 357 209 q 360 213 366 215 q 372 217 378 216 q 383 216 386 214 q 388 211 385 207 q 382 199 372 184 q 363 170 350 152 q 337 133 322 112 q 306 91 291 71 q 266 39 244 16 q 223 -8 203 -8 q 173 -8 160 3 q 147 14 146 32 q 147 53 152 79 q 157 105 164 133 q 170 161 176 188 q 183 216 187 240 q 188 243 186 249 q 185 255 177 250 q 169 246 157 232 q 145 218 134 202 q 123 185 114 170 q 106 154 106 147 q 99 115 92 83 q 84 51 69 15 q 65 8 53 3 q 41 -2 29 -4 q 17 -5 8 -2 q -1 1 0 9 q 10 30 20 58 q 29 86 34 118 q 40 150 41 184 q 42 219 35 252 z"},"h":{"x_min":0,"x_max":298,"ha":298,"o":"m 65 23 q 61 10 50 2 q 38 -7 26 -10 q 15 -13 6 -11 q -3 -9 -3 0 q -2 28 2 66 q 7 104 15 146 q 23 188 34 231 q 44 274 56 314 q 69 353 83 386 q 97 419 111 439 q 114 443 125 448 q 136 452 148 454 q 160 457 170 456 q 179 456 179 452 q 177 449 165 420 q 153 392 138 354 q 124 316 112 276 q 99 237 96 211 q 102 221 112 233 q 121 245 134 254 q 146 264 162 271 q 177 278 196 278 q 220 278 233 270 q 246 261 244 247 q 241 225 230 189 q 220 153 212 118 q 203 83 200 56 q 198 29 211 25 q 215 23 231 40 q 247 58 268 85 q 288 112 310 145 q 332 178 348 209 q 350 213 356 216 q 361 218 366 218 q 371 217 374 214 q 378 212 376 207 q 371 198 360 178 q 350 158 336 134 q 322 110 304 84 q 287 58 268 37 q 249 16 230 2 q 211 -11 194 -10 q 168 -9 156 3 q 144 15 140 32 q 135 53 138 77 q 142 101 148 126 q 154 152 160 178 q 167 203 169 226 q 170 229 167 235 q 164 241 157 236 q 154 234 145 228 q 136 222 126 212 q 115 201 105 187 q 95 173 88 155 q 83 142 79 124 q 75 107 72 88 q 69 70 67 52 q 65 35 65 23 z"},"z":{"x_min":0,"x_max":219,"ha":219,"o":"m 53 109 q 66 107 74 101 q 82 95 93 90 q 101 103 105 120 q 109 136 110 152 q 111 168 110 182 q 108 197 105 206 q 103 209 100 214 q 98 219 96 223 q 93 227 90 228 q 88 228 86 223 l 85 222 q 83 219 79 212 q 75 204 73 202 q 63 189 51 192 q 39 194 45 204 l 49 212 q 58 235 60 256 q 61 278 56 293 q 54 296 60 304 q 67 311 75 318 q 83 325 89 328 q 95 331 92 326 q 90 321 92 314 q 93 306 96 298 q 99 290 104 283 q 108 276 112 272 q 124 261 134 253 q 143 245 150 236 q 158 228 164 218 q 169 209 173 194 q 177 180 178 164 q 179 148 176 132 q 174 117 168 104 q 161 91 150 82 q 146 79 142 76 q 138 72 133 70 q 143 59 148 48 q 160 57 170 68 q 180 78 193 95 q 206 112 224 139 q 241 166 267 209 q 270 213 276 215 q 282 217 287 216 q 292 216 295 214 q 298 211 295 207 q 280 179 266 151 q 252 123 236 96 q 219 70 199 48 q 179 25 153 8 q 154 -24 150 -59 q 146 -94 137 -128 q 128 -162 114 -192 q 100 -222 81 -244 q 62 -266 38 -277 q 15 -288 -13 -284 q -46 -279 -61 -265 q -76 -251 -80 -234 q -85 -218 -82 -200 q -80 -183 -78 -171 q -70 -124 -24 -76 q 23 -29 96 13 q 94 24 90 29 q 85 34 81 42 q 70 40 62 34 q 53 29 42 31 q 24 32 14 44 q 3 56 3 70 q 3 85 15 96 q 27 108 53 109 z m 73 -147 q 81 -117 87 -84 q 93 -51 98 -20 q 35 -52 -1 -93 q -37 -134 -46 -173 q -57 -223 -44 -241 q -30 -259 -8 -252 q 15 -246 38 -218 q 62 -189 73 -147 z m 44 59 q 54 58 58 60 q 61 63 68 67 q 61 75 59 78 q 57 80 49 81 q 43 81 39 78 q 35 75 34 71 q 32 67 34 64 q 37 60 44 59 z"},"B":{"x_min":0,"x_max":430,"ha":430,"o":"m 278 447 q 251 404 220 344 q 189 284 166 215 q 188 209 214 198 q 241 187 255 180 q 280 192 302 212 q 325 233 343 258 q 361 282 374 308 q 388 333 396 356 q 405 384 404 408 q 402 432 388 450 q 374 467 346 476 q 318 485 273 484 q 209 480 156 461 q 102 442 59 416 q 54 413 45 416 q 36 419 28 424 q 20 429 16 436 q 11 442 15 445 q 42 457 70 470 q 99 484 133 495 q 167 506 208 513 q 248 520 299 519 q 372 517 410 500 q 449 483 466 460 q 482 436 482 412 q 482 388 479 372 q 471 339 453 307 q 435 275 409 246 q 383 218 350 195 q 318 172 282 159 q 308 134 315 111 q 322 88 317 66 q 306 24 281 0 q 256 -23 224 -34 q 192 -45 158 -46 q 123 -47 93 -43 q 63 -39 42 -32 q 21 -26 17 -23 q 14 -21 10 -12 q 7 -4 6 5 q 4 14 6 20 q 7 26 13 23 q 19 20 37 14 q 55 9 79 4 q 103 0 130 -2 q 157 -3 182 4 q 207 10 226 26 q 245 41 253 70 q 258 88 252 108 q 246 128 229 145 q 223 143 212 142 q 200 141 188 140 q 175 138 163 137 q 151 136 142 136 q 128 75 125 19 q 124 14 118 20 q 112 25 105 34 q 98 43 93 52 q 88 62 88 66 q 88 83 90 101 q 91 119 93 139 q 65 145 54 160 q 42 175 46 187 q 54 217 107 222 q 120 282 141 340 q 162 399 191 444 q 195 445 210 447 q 225 449 240 450 q 256 451 268 450 q 279 450 278 447 z m 101 193 q 75 192 74 180 q 72 167 96 160 q 97 168 98 176 q 99 185 101 193 z m 149 163 l 199 169 q 197 171 184 174 q 171 178 155 182 z"},"K":{"x_min":0,"x_max":321,"ha":321,"o":"m 101 432 q 103 436 114 442 q 126 449 138 454 q 151 460 160 462 q 170 464 169 460 q 161 426 156 396 q 150 367 146 339 q 141 311 137 282 q 133 254 129 221 q 157 212 174 195 q 213 216 240 250 q 267 283 285 322 q 303 361 313 402 q 323 443 329 479 q 329 487 344 494 q 359 500 376 503 q 392 506 404 505 q 416 504 410 496 q 398 438 380 386 q 362 335 336 293 q 309 251 274 219 q 240 187 195 169 q 209 146 222 110 q 234 75 248 40 q 263 6 282 -22 q 300 -51 326 -61 q 335 -65 334 -72 q 334 -78 328 -84 q 322 -89 312 -92 q 301 -95 290 -92 q 265 -89 248 -74 q 230 -59 218 -37 q 205 -15 196 12 q 187 38 180 64 q 173 90 166 114 q 159 138 151 154 l 119 148 q 110 91 104 46 q 99 1 94 -36 q 94 -45 84 -48 q 74 -50 61 -47 q 48 -44 36 -36 q 23 -27 19 -13 q 24 24 33 63 q 42 102 50 145 q 19 148 7 162 q -5 176 -2 190 q 1 207 19 216 q 37 226 64 228 q 70 261 74 284 q 77 308 80 330 q 84 352 88 376 q 93 399 101 432 z m 60 207 q 47 205 39 200 q 31 194 30 188 q 28 182 34 176 q 39 171 54 169 z m 122 175 q 127 177 137 179 q 132 185 124 190 q 124 185 122 175 z"},"R":{"x_min":0,"x_max":409,"ha":409,"o":"m 301 447 q 276 408 247 349 q 218 290 192 217 q 214 206 228 183 q 256 195 281 213 q 306 231 326 253 q 347 275 361 300 q 375 326 383 352 q 391 379 389 402 q 387 426 372 442 q 358 457 330 464 q 302 472 258 468 q 195 461 144 440 q 94 418 52 390 q 47 387 38 390 q 29 392 21 396 q 13 401 8 406 q 4 412 8 416 q 33 429 60 444 q 88 458 120 471 q 153 484 192 493 q 232 502 282 504 q 353 507 393 493 q 433 479 452 458 q 470 438 473 416 q 476 393 473 377 q 463 336 441 300 q 419 265 388 236 q 357 208 320 188 q 282 167 242 155 q 245 149 248 142 q 250 135 252 127 q 258 104 270 78 q 281 52 297 27 q 313 2 335 -20 q 357 -42 384 -56 q 395 -62 393 -68 q 391 -74 384 -79 q 376 -84 365 -87 q 354 -90 347 -89 q 312 -85 288 -57 q 265 -29 250 8 q 234 45 224 83 q 215 121 208 147 q 198 145 188 144 q 179 143 170 143 q 156 94 147 42 q 138 -11 136 -65 q 135 -70 129 -64 q 123 -59 116 -50 q 109 -41 104 -32 q 99 -22 99 -18 q 97 12 100 53 q 104 94 112 140 q 110 140 109 140 q 108 141 107 141 q 77 143 63 160 q 49 176 53 190 q 57 207 76 219 q 96 231 124 231 l 131 231 q 148 294 169 351 q 190 408 214 444 q 218 445 233 447 q 248 449 264 450 q 279 451 290 450 q 302 450 301 447 z m 117 202 q 103 202 96 196 q 89 191 88 184 q 88 178 94 173 q 99 168 111 169 q 113 169 114 168 q 115 168 117 168 q 119 176 120 185 q 122 194 124 202 z m 193 178 l 182 185 l 178 174 z"},"T":{"x_min":0,"x_max":278,"ha":278,"o":"m 497 541 q 504 541 514 532 q 525 522 533 512 q 541 501 544 492 q 546 483 539 485 q 520 489 480 488 q 439 486 388 480 q 338 475 282 466 q 226 456 176 444 q 127 433 89 419 q 51 405 36 390 q 31 387 24 390 q 17 392 12 396 q 7 401 5 406 q 3 412 8 416 q 43 442 87 462 q 131 481 178 495 q 225 509 273 518 q 321 526 364 531 q 406 536 441 538 q 476 540 497 541 z m 320 447 q 297 411 270 357 q 243 303 218 236 q 194 170 176 94 q 159 17 155 -65 q 154 -70 148 -64 q 142 -59 135 -50 q 128 -41 123 -32 q 118 -22 118 -18 q 115 24 123 87 q 131 150 148 217 q 164 284 186 345 q 208 406 233 444 q 237 445 252 447 q 267 449 282 450 q 298 451 310 450 q 321 450 320 447 z"},"P":{"x_min":0,"x_max":431,"ha":431,"o":"m 301 447 q 272 402 238 330 q 203 258 176 168 q 213 174 247 192 q 281 209 308 234 q 335 259 354 290 q 374 320 383 352 q 391 379 389 402 q 387 426 372 442 q 358 457 330 464 q 302 472 258 468 q 195 461 144 440 q 94 418 52 390 q 47 387 38 390 q 29 392 21 396 q 13 401 8 406 q 4 412 8 416 q 33 429 60 444 q 88 458 120 471 q 153 484 192 493 q 232 502 282 504 q 353 507 393 493 q 433 479 452 458 q 470 438 473 416 q 476 393 473 377 q 461 326 431 284 q 401 243 359 212 q 317 182 268 164 q 219 146 170 143 q 156 94 147 42 q 138 -11 136 -65 q 135 -70 129 -64 q 123 -59 116 -50 q 109 -41 104 -32 q 99 -22 99 -18 q 96 13 100 55 q 104 97 113 145 q 106 146 100 147 q 93 148 87 150 q 76 153 72 157 q 68 161 69 165 q 70 169 76 171 q 81 173 90 172 q 97 170 104 169 q 110 168 117 167 q 125 206 136 246 q 146 286 158 322 q 171 359 185 390 q 199 421 214 444 q 218 445 233 447 q 248 449 264 450 q 279 451 290 450 q 302 450 301 447 z"},"t":{"x_min":0,"x_max":156,"ha":156,"o":"m 93 31 q 96 30 110 52 q 124 74 142 104 q 159 134 176 164 q 194 194 205 209 q 208 213 214 215 q 219 217 224 217 q 229 217 232 214 q 235 212 233 207 q 210 162 186 116 q 162 71 139 33 q 137 30 131 23 q 125 16 118 8 q 110 1 101 -4 q 92 -10 83 -10 q 57 -9 45 5 q 33 19 29 42 q 25 69 27 103 q 29 137 35 175 q 41 213 50 252 q 60 290 71 326 q 51 317 32 307 q 12 297 -5 286 q -13 286 -14 294 q -14 301 -11 310 q -8 320 -2 330 q 4 340 10 345 q 21 353 42 362 q 62 370 88 378 q 95 397 102 414 q 108 430 115 443 q 119 454 130 460 q 142 467 154 468 q 166 470 174 466 q 183 463 181 453 q 170 433 157 395 q 180 400 200 401 q 219 402 227 399 q 240 394 241 390 q 242 387 236 384 q 231 381 222 379 q 214 377 208 376 q 203 375 186 370 q 168 365 144 357 q 130 309 117 254 q 104 199 96 151 q 88 103 86 70 q 85 36 93 31 z"},"M":{"x_min":0,"x_max":514,"ha":514,"o":"m 501 366 q 504 380 498 378 q 491 376 484 371 q 477 366 460 342 q 442 317 420 282 q 397 248 372 206 q 347 165 326 126 q 304 88 288 56 q 272 24 267 8 q 264 0 256 0 q 249 -1 242 4 q 234 8 228 16 q 222 25 221 36 q 218 68 228 122 q 238 177 254 234 q 269 291 286 339 q 302 387 311 407 q 275 372 246 322 q 218 273 194 218 q 170 164 150 108 q 130 51 111 2 q 103 -7 93 -2 q 83 3 74 14 q 66 25 61 38 q 56 52 58 60 q 74 109 90 160 q 106 210 120 261 q 133 312 143 362 q 153 412 158 460 q 161 488 154 497 q 148 506 136 500 q 124 493 109 474 q 94 456 80 430 q 65 403 54 372 q 43 340 40 307 q 37 295 30 297 q 23 299 16 308 q 9 316 4 328 q -1 341 0 351 q 2 367 18 399 q 34 431 56 463 q 78 495 102 519 q 127 543 145 545 q 165 547 184 538 q 203 528 214 510 q 221 497 222 475 q 222 453 218 425 q 215 397 208 366 q 201 334 192 304 q 184 274 175 248 q 166 221 158 203 q 174 242 194 282 q 213 322 234 358 q 255 395 276 426 q 298 458 319 480 q 333 496 350 492 q 367 489 380 476 q 394 463 400 444 q 407 426 398 411 q 385 389 369 354 q 353 318 338 278 q 322 237 310 198 q 297 158 291 129 q 304 148 321 177 q 338 206 357 238 q 376 271 398 304 q 420 337 442 364 q 464 392 487 411 q 510 430 532 435 q 542 437 552 434 q 562 430 570 424 q 578 417 582 410 q 586 403 585 397 q 556 336 530 274 q 504 212 484 156 q 465 101 454 55 q 444 9 446 -20 q 446 -32 448 -40 q 449 -47 448 -51 q 446 -55 440 -56 q 434 -58 420 -59 q 410 -60 404 -56 q 398 -51 394 -44 q 391 -37 390 -28 q 388 -20 387 -14 q 388 16 394 57 q 401 98 414 146 q 428 195 450 250 q 471 306 501 366 z"},"g":{"x_min":0,"x_max":282,"ha":282,"o":"m 203 277 q 204 281 214 283 q 223 285 234 284 q 246 283 255 280 q 264 278 264 274 q 259 263 252 238 q 246 212 239 180 q 232 148 226 114 q 220 80 216 52 q 236 69 252 88 q 267 107 281 130 l 331 209 q 334 213 340 215 q 345 217 350 217 q 355 217 358 214 q 361 212 359 207 q 348 185 337 165 q 326 145 314 125 q 294 91 264 54 q 235 17 203 -4 q 201 -19 196 -47 q 191 -75 182 -108 q 174 -140 161 -173 q 148 -206 129 -232 q 110 -258 84 -273 q 58 -288 25 -284 q -8 -280 -26 -264 q -44 -249 -52 -230 q -60 -212 -61 -192 q -62 -173 -60 -161 q -55 -126 -36 -102 q -17 -77 10 -58 q 37 -40 71 -26 q 105 -11 140 5 q 142 18 144 32 q 145 45 147 57 q 138 47 126 36 q 114 25 102 15 q 89 5 78 -2 q 66 -8 58 -8 q 26 -9 12 6 q -3 20 -8 40 q -12 60 -9 80 q -6 100 -3 110 q 4 137 19 168 q 34 198 55 224 q 76 249 103 264 q 130 280 161 278 q 170 277 181 274 q 192 271 199 266 z m 178 218 q 179 224 178 232 q 177 239 175 246 q 173 253 170 258 q 166 263 162 262 q 148 261 136 248 q 123 236 112 216 q 101 195 90 170 q 80 146 70 121 q 52 76 51 48 q 50 20 68 22 q 99 38 118 59 q 137 80 148 106 q 160 131 166 160 q 172 188 178 218 z m 17 -263 q 59 -266 86 -205 q 114 -144 133 -32 q 104 -45 76 -58 q 49 -71 28 -86 q 6 -102 -9 -120 q -24 -139 -29 -164 q -33 -180 -32 -197 q -31 -214 -26 -228 q -20 -243 -10 -252 q 1 -262 17 -263 z"},"j":{"x_min":0,"x_max":149,"ha":149,"o":"m 58 267 q 59 271 70 276 q 82 282 96 286 q 109 289 120 290 q 132 290 132 286 q 127 275 120 248 q 114 220 107 186 q 100 152 94 116 q 87 80 83 52 q 103 69 118 88 q 134 107 148 130 l 198 209 q 201 213 206 215 q 212 217 217 217 q 222 217 225 214 q 228 212 226 207 q 215 185 204 165 q 193 145 181 125 q 161 91 132 54 q 102 17 70 -4 q 68 -16 64 -36 q 61 -55 56 -79 q 51 -103 43 -130 q 35 -156 24 -181 q 8 -217 -18 -240 q -44 -264 -70 -274 q -97 -284 -119 -278 q -141 -271 -148 -247 q -156 -220 -150 -188 q -143 -155 -123 -122 q -103 -88 -70 -56 q -37 -23 7 5 z m -36 -179 q -25 -150 -18 -116 q -10 -81 -2 -36 q -25 -56 -43 -71 q -61 -86 -74 -102 q -88 -118 -98 -136 q -107 -154 -113 -178 q -124 -221 -118 -240 q -112 -258 -98 -256 q -85 -255 -67 -234 q -49 -214 -36 -179 z m 103 349 q 86 351 78 363 q 71 375 78 389 q 84 403 100 412 q 115 420 132 417 q 149 415 156 403 q 164 391 158 376 q 151 362 136 354 q 120 346 103 349 z"},"i":{"x_min":0,"x_max":161,"ha":161,"o":"m 67 264 q 69 271 80 278 q 91 284 104 288 q 116 291 126 290 q 137 289 138 282 q 136 278 130 258 q 124 239 116 212 q 109 186 102 156 q 95 125 90 99 q 86 73 86 54 q 85 36 91 34 q 93 33 100 43 q 108 53 119 69 q 130 85 142 105 q 155 125 168 145 q 180 165 191 182 q 202 199 209 209 q 212 213 218 215 q 223 217 228 217 q 233 217 236 214 q 239 212 237 207 q 214 162 186 118 q 159 73 136 35 q 134 32 128 25 q 123 18 116 11 q 108 4 99 -2 q 90 -7 81 -7 q 55 -6 43 6 q 31 19 28 40 q 24 60 26 85 q 28 110 31 136 q 37 179 50 214 q 62 250 67 264 z m 94 395 q 100 409 116 418 q 131 426 148 423 q 165 421 172 409 q 180 397 174 382 q 167 368 152 360 q 136 352 119 355 q 102 357 94 369 q 87 381 94 395 z"},"y":{"x_min":0,"x_max":303,"ha":303,"o":"m 238 52 q 258 69 274 88 q 289 107 303 130 l 353 209 q 356 213 362 215 q 367 217 372 217 q 377 217 380 214 q 383 212 381 207 q 370 185 359 165 q 348 145 336 125 q 316 91 286 54 q 257 17 225 -4 q 223 -19 218 -47 q 213 -75 204 -108 q 196 -140 183 -173 q 170 -206 151 -232 q 132 -258 106 -273 q 80 -288 47 -284 q 14 -280 -4 -264 q -22 -249 -30 -230 q -38 -212 -39 -192 q -40 -173 -38 -161 q -33 -126 -14 -102 q 5 -77 32 -58 q 59 -40 93 -26 q 127 -11 162 5 q 167 41 170 64 q 174 88 175 109 q 162 89 150 72 q 137 56 125 40 q 122 37 116 30 q 110 23 102 16 q 95 9 86 4 q 78 -2 69 -2 q 43 -2 31 10 q 19 22 15 42 q 11 61 13 86 q 15 110 18 136 q 24 179 35 214 q 46 249 51 263 q 54 271 66 278 q 79 285 93 289 q 107 293 117 292 q 127 292 126 285 q 124 281 118 261 q 111 241 104 214 q 96 187 88 156 q 81 126 76 100 q 72 74 72 56 q 72 39 79 38 q 86 38 100 54 q 115 71 132 96 q 149 121 166 149 q 182 177 192 199 l 210 259 q 212 270 224 278 q 236 286 250 290 q 263 293 274 292 q 284 290 283 282 q 276 265 270 233 q 263 201 257 166 q 251 132 246 100 q 241 68 238 52 z m 39 -263 q 81 -266 108 -205 q 136 -144 155 -32 q 126 -45 98 -58 q 71 -71 50 -86 q 28 -102 13 -120 q -2 -139 -7 -164 q -11 -180 -10 -197 q -9 -214 -4 -228 q 2 -243 12 -252 q 23 -262 39 -263 z"},"p":{"x_min":0,"x_max":286,"ha":286,"o":"m 44 -247 q 26 -251 15 -247 q 4 -243 -2 -235 q -9 -227 -12 -216 q -15 -205 -16 -194 q -20 -167 -18 -129 q -16 -91 -11 -47 q -6 -3 2 42 q 10 88 20 130 q 30 171 41 206 q 52 240 63 260 q 67 271 78 278 q 90 284 102 286 q 114 287 122 283 q 131 279 129 269 q 121 255 111 226 q 125 246 142 260 q 159 275 185 277 q 217 278 230 260 q 243 241 246 216 q 248 191 244 168 q 240 144 237 134 q 232 118 227 103 q 222 88 215 73 q 248 96 279 132 q 310 167 334 209 q 337 213 342 215 q 348 217 353 217 q 358 217 361 214 q 364 212 362 207 l 349 184 q 340 167 324 146 q 309 125 288 104 q 268 83 244 66 q 220 48 194 38 q 177 13 152 0 q 128 -13 96 -11 q 82 -10 76 -4 q 69 1 65 2 q 64 1 63 2 q 55 -53 50 -104 q 45 -155 45 -190 q 45 -196 46 -206 q 47 -215 48 -224 q 48 -233 48 -240 q 47 -246 44 -247 z m 124 206 q 118 197 112 176 q 106 154 102 140 q 101 138 101 133 l 99 118 q 99 109 101 98 q 103 87 108 78 q 113 68 121 60 q 129 53 140 50 q 150 68 158 91 q 167 114 174 139 q 180 161 183 182 q 186 204 186 220 q 186 237 184 247 q 181 257 176 256 q 168 255 160 248 q 151 241 144 233 q 137 225 132 217 q 126 209 124 206 z m 126 31 q 106 38 96 52 q 86 65 81 82 q 76 50 82 32 q 88 14 102 16 q 112 17 122 26 z"},"X":{"x_min":0,"x_max":277,"ha":277,"o":"m 313 479 q 317 487 331 494 q 345 501 360 504 q 375 507 386 504 q 398 502 398 492 q 332 421 276 352 q 221 284 176 217 q 185 187 196 152 q 207 118 220 82 q 234 46 249 10 q 264 -25 280 -56 q 279 -59 270 -58 q 261 -58 250 -55 q 240 -52 230 -48 q 221 -43 219 -39 q 194 3 174 58 q 154 113 138 161 q 109 116 86 72 q 64 29 41 -17 q 38 -21 30 -20 q 22 -20 14 -16 q 6 -13 0 -8 q -5 -4 -3 1 q 26 58 54 111 q 81 164 115 221 q 106 253 98 282 q 91 312 84 341 q 77 370 72 402 q 67 433 63 470 q 63 474 72 483 q 80 492 91 500 q 102 509 112 514 q 121 518 123 514 q 128 457 137 398 q 146 340 160 288 q 178 314 195 336 q 212 359 230 382 q 248 404 268 428 q 289 452 313 479 z"},"Y":{"x_min":0,"x_max":412,"ha":412,"o":"m 11 -17 q 9 5 18 28 q 26 52 44 73 q 61 94 88 110 q 114 127 149 136 q 175 139 180 128 q 186 117 164 110 q 141 107 122 95 q 104 83 91 66 q 78 48 70 28 q 63 7 63 -13 q 63 -49 78 -62 q 93 -75 118 -75 q 139 -75 161 -60 q 183 -46 204 -22 q 225 3 246 36 q 266 69 286 107 q 260 139 239 171 q 218 203 202 238 q 186 273 176 312 q 166 351 162 397 q 162 401 173 416 q 184 430 198 444 q 211 458 222 466 q 234 473 234 462 q 237 396 243 346 q 249 295 258 256 q 267 218 278 190 q 290 163 304 142 q 328 191 348 243 q 369 295 385 342 q 401 390 412 429 q 424 468 430 491 q 438 499 455 506 q 472 514 488 518 q 505 522 515 520 q 525 517 520 506 q 510 479 490 423 q 469 367 440 299 q 410 231 374 158 q 337 86 296 26 q 254 -33 208 -71 q 163 -109 117 -109 q 63 -109 38 -82 q 14 -55 11 -17 z"},"c":{"x_min":0,"x_max":234,"ha":234,"o":"m 71 -8 q 41 -6 23 9 q 5 24 -2 46 q -10 69 -8 96 q -6 122 5 148 q 12 165 26 189 q 39 213 58 235 q 78 257 104 272 q 129 286 161 284 q 180 283 190 276 q 201 269 206 259 q 210 249 210 237 q 209 225 206 213 q 202 193 181 161 q 177 154 168 152 q 160 149 152 150 q 144 152 140 157 q 136 162 141 168 q 161 200 166 224 q 170 249 150 251 q 141 252 130 241 q 119 230 108 214 q 97 197 88 176 q 78 156 71 137 q 68 129 64 111 q 59 93 58 74 q 58 55 64 40 q 69 25 87 23 q 114 20 143 40 q 172 59 199 88 q 226 117 248 150 q 269 184 281 209 q 283 214 288 216 q 294 218 299 218 q 304 218 308 215 q 311 212 309 208 q 289 170 267 132 q 245 93 216 62 q 188 31 152 12 q 117 -8 71 -8 z"},"6":{"x_min":0,"x_max":1219,"ha":1219,"o":"m 876 781 l 739 657 l 775 471 l 615 565 l 450 471 l 489 652 l 351 781 l 537 801 l 615 972 l 690 802 z m 682 576 l 639 834 l 586 834 l 541 576 l 564 562 l 583 576 l 592 634 l 631 634 l 642 576 l 663 562 z m 628 672 l 598 672 l 612 774 z m 610 21 l 631 21 l 624 39 q 622 42 622 44 q 622 46 619 49 q 619 45 616 39 z m 352 -5 l 352 3 l 363 3 l 363 -5 z m 844 -5 l 844 58 l 852 58 l 852 1 l 883 1 l 883 -5 z m 787 -5 l 787 58 l 832 58 l 832 49 l 795 49 l 795 30 l 829 30 l 829 22 l 795 22 l 795 1 l 832 1 l 832 -5 z m 565 -5 l 565 21 l 541 58 l 552 58 l 564 39 q 567 30 570 28 q 571 30 572 33 q 574 36 577 39 l 589 58 l 598 58 l 573 21 l 573 -5 z m 376 -5 l 376 58 l 400 58 q 403 58 406 56 q 408 55 409 55 q 415 54 417 49 q 420 46 420 40 q 420 36 417 34 q 415 28 411 28 q 415 27 420 22 q 423 16 423 13 q 423 10 422 8 q 421 7 421 6 q 420 0 415 0 q 414 -3 412 -3 q 411 -3 409 -5 l 400 -5 z m 205 -5 l 187 58 l 196 58 l 205 16 q 207 12 207 9 q 207 6 208 3 q 210 10 210 15 l 222 58 l 232 58 l 241 25 q 243 18 244 14 q 246 9 246 3 q 247 6 247 9 q 247 12 249 16 l 259 58 l 267 58 l 249 -5 l 241 -5 l 229 42 q 228 46 228 49 q 226 46 226 42 l 213 -5 z m 123 -5 l 105 58 l 115 58 l 123 16 q 123 9 127 3 q 129 10 129 15 l 141 58 l 150 58 l 160 25 q 162 18 162 14 q 163 9 163 3 q 166 6 166 9 q 166 12 168 16 l 177 58 l 186 58 l 168 -5 l 160 -5 l 148 42 q 147 46 147 49 q 144 46 144 42 l 130 -5 z m 384 30 l 397 30 q 403 30 405 33 q 409 33 409 34 q 411 36 411 40 q 411 45 409 46 l 408 46 q 406 46 406 47 q 406 48 405 48 q 403 49 396 49 l 384 49 z m 285 -5 l 268 58 l 277 58 l 286 16 q 288 12 288 9 q 288 6 291 3 q 291 9 292 11 q 292 13 292 15 l 304 58 l 313 58 l 324 25 q 325 18 326 14 q 327 9 327 3 q 330 6 330 9 q 330 12 331 16 l 342 58 l 349 58 l 331 -5 l 324 -5 l 312 42 q 310 46 310 49 q 307 46 307 42 l 294 -5 z m 664 28 l 682 28 q 685 28 688 29 q 690 30 693 30 q 696 30 696 34 q 697 36 697 40 q 697 45 694 48 q 693 49 684 49 l 664 49 z m 384 1 l 400 1 q 403 1 405 3 l 409 3 q 411 6 414 7 l 414 13 q 414 16 411 19 q 411 22 408 22 l 397 22 l 384 22 z m 435 -5 l 435 58 l 442 58 l 442 -5 z m 985 25 q 985 12 990 7 q 996 1 1006 1 q 1017 1 1021 7 q 1027 12 1027 27 q 1027 34 1026 39 q 1023 46 1018 48 q 1014 49 1006 49 q 997 49 993 45 q 985 39 985 25 z m 976 25 q 976 42 985 49 q 991 58 1006 58 q 1011 58 1014 56 q 1018 55 1021 54 q 1026 52 1028 49 q 1030 46 1033 42 q 1035 39 1035 27 q 1035 13 1032 9 q 1027 1 1021 -3 q 1015 -6 1006 -6 q 1002 -6 998 -6 q 994 -5 990 -3 q 987 0 984 3 q 982 6 981 9 q 979 13 978 17 q 976 21 976 25 z m 592 -5 l 616 58 l 625 58 l 651 -5 l 642 -5 l 634 13 l 609 13 l 600 -5 z m 459 -5 l 459 58 l 466 58 l 466 1 l 495 1 l 495 -5 z m 892 -5 l 892 3 l 903 3 l 903 -5 z m 748 19 l 748 27 l 774 27 l 774 3 q 768 -3 762 -5 q 759 -5 755 -6 q 751 -6 748 -6 q 739 -6 733 -3 q 729 0 726 2 q 723 4 721 9 q 720 13 718 17 q 717 21 717 25 q 717 31 718 34 q 720 37 721 42 q 724 51 732 54 q 735 55 740 56 q 744 58 748 58 q 756 58 760 55 q 766 54 768 49 q 772 45 774 40 l 766 39 q 766 40 762 45 q 762 48 756 49 l 748 49 l 739 49 q 735 48 732 45 q 732 43 727 39 q 727 36 726 33 q 726 30 726 27 q 726 16 729 13 q 735 4 736 3 q 741 1 748 1 q 754 1 759 3 q 762 6 764 6 q 765 6 766 7 l 766 19 z m 657 -5 l 657 58 l 684 58 q 688 58 691 56 q 694 55 697 55 q 702 54 703 49 q 706 46 706 40 q 706 33 702 28 q 700 27 696 26 q 693 25 688 22 q 691 22 692 22 q 693 21 694 21 q 696 18 696 16 q 697 13 700 10 l 712 -5 l 702 -5 l 693 7 q 690 10 689 12 q 688 15 687 16 q 687 19 686 19 q 684 19 682 21 l 681 21 q 679 21 679 22 q 679 22 678 22 l 675 22 l 664 22 l 664 -5 z m 505 -5 l 505 58 l 514 58 l 514 1 l 544 1 l 544 -5 z m 961 16 l 969 15 q 966 3 960 0 q 954 -6 943 -6 q 934 -6 928 -3 q 924 0 922 3 q 921 6 918 9 q 915 21 915 27 q 915 33 918 45 q 925 52 928 54 q 933 55 936 56 q 939 58 943 58 q 948 58 952 56 q 957 55 960 54 q 963 51 965 48 q 967 45 969 40 l 960 39 q 960 45 954 48 q 951 49 943 49 q 934 49 931 48 q 928 46 928 44 q 927 42 924 39 q 924 36 923 33 q 922 30 922 27 q 922 18 927 13 q 927 10 928 8 q 930 6 931 3 q 936 1 943 1 q 951 1 955 6 q 960 10 961 16 z m 1047 -5 l 1047 58 l 1059 58 l 1074 13 q 1074 10 1076 8 q 1077 6 1077 3 q 1077 4 1080 13 l 1093 58 l 1105 58 l 1105 -5 l 1098 -5 l 1098 46 l 1080 -5 l 1072 -5 l 1054 48 l 1054 -5 z m 610 21 l 631 21 l 624 39 q 622 42 622 44 q 622 46 619 49 q 619 45 616 39 z m 352 -5 l 352 3 l 363 3 l 363 -5 z m 844 -5 l 844 58 l 852 58 l 852 1 l 883 1 l 883 -5 z m 787 -5 l 787 58 l 832 58 l 832 49 l 795 49 l 795 30 l 829 30 l 829 22 l 795 22 l 795 1 l 832 1 l 832 -5 z m 565 -5 l 565 21 l 541 58 l 552 58 l 564 39 q 567 30 570 28 q 571 30 572 33 q 574 36 577 39 l 589 58 l 598 58 l 573 21 l 573 -5 z m 376 -5 l 376 58 l 400 58 q 403 58 406 56 q 408 55 409 55 q 415 54 417 49 q 420 46 420 40 q 420 36 417 34 q 415 28 411 28 q 415 27 420 22 q 423 16 423 13 q 423 10 422 8 q 421 7 421 6 q 420 0 415 0 q 414 -3 412 -3 q 411 -3 409 -5 l 400 -5 z m 205 -5 l 187 58 l 196 58 l 205 16 q 207 12 207 9 q 207 6 208 3 q 210 10 210 15 l 222 58 l 232 58 l 241 25 q 243 18 244 14 q 246 9 246 3 q 247 6 247 9 q 247 12 249 16 l 259 58 l 267 58 l 249 -5 l 241 -5 l 229 42 q 228 46 228 49 q 226 46 226 42 l 213 -5 z m 123 -5 l 105 58 l 115 58 l 123 16 q 123 9 127 3 q 129 10 129 15 l 141 58 l 150 58 l 160 25 q 162 18 162 14 q 163 9 163 3 q 166 6 166 9 q 166 12 168 16 l 177 58 l 186 58 l 168 -5 l 160 -5 l 148 42 q 147 46 147 49 q 144 46 144 42 l 130 -5 z m 384 30 l 397 30 q 403 30 405 33 q 409 33 409 34 q 411 36 411 40 q 411 45 409 46 l 408 46 q 406 46 406 47 q 406 48 405 48 q 403 49 396 49 l 384 49 z m 285 -5 l 268 58 l 277 58 l 286 16 q 288 12 288 9 q 288 6 291 3 q 291 9 292 11 q 292 13 292 15 l 304 58 l 313 58 l 324 25 q 325 18 326 14 q 327 9 327 3 q 330 6 330 9 q 330 12 331 16 l 342 58 l 349 58 l 331 -5 l 324 -5 l 312 42 q 310 46 310 49 q 307 46 307 42 l 294 -5 z m 664 28 l 682 28 q 685 28 688 29 q 690 30 693 30 q 696 30 696 34 q 697 36 697 40 q 697 45 694 48 q 693 49 684 49 l 664 49 z m 384 1 l 400 1 q 403 1 405 3 l 409 3 q 411 6 414 7 l 414 13 q 414 16 411 19 q 411 22 408 22 l 397 22 l 384 22 z m 435 -5 l 435 58 l 442 58 l 442 -5 z m 985 25 q 985 12 990 7 q 996 1 1006 1 q 1017 1 1021 7 q 1027 12 1027 27 q 1027 34 1026 39 q 1023 46 1018 48 q 1014 49 1006 49 q 997 49 993 45 q 985 39 985 25 z m 976 25 q 976 42 985 49 q 991 58 1006 58 q 1011 58 1014 56 q 1018 55 1021 54 q 1026 52 1028 49 q 1030 46 1033 42 q 1035 39 1035 27 q 1035 13 1032 9 q 1027 1 1021 -3 q 1015 -6 1006 -6 q 1002 -6 998 -6 q 994 -5 990 -3 q 987 0 984 3 q 982 6 981 9 q 979 13 978 17 q 976 21 976 25 z m 592 -5 l 616 58 l 625 58 l 651 -5 l 642 -5 l 634 13 l 609 13 l 600 -5 z m 459 -5 l 459 58 l 466 58 l 466 1 l 495 1 l 495 -5 z m 892 -5 l 892 3 l 903 3 l 903 -5 z m 748 19 l 748 27 l 774 27 l 774 3 q 768 -3 762 -5 q 759 -5 755 -6 q 751 -6 748 -6 q 739 -6 733 -3 q 729 0 726 2 q 723 4 721 9 q 720 13 718 17 q 717 21 717 25 q 717 31 718 34 q 720 37 721 42 q 724 51 732 54 q 735 55 740 56 q 744 58 748 58 q 756 58 760 55 q 766 54 768 49 q 772 45 774 40 l 766 39 q 766 40 762 45 q 762 48 756 49 l 748 49 l 739 49 q 735 48 732 45 q 732 43 727 39 q 727 36 726 33 q 726 30 726 27 q 726 16 729 13 q 735 4 736 3 q 741 1 748 1 q 754 1 759 3 q 762 6 764 6 q 765 6 766 7 l 766 19 z m 657 -5 l 657 58 l 684 58 q 688 58 691 56 q 694 55 697 55 q 702 54 703 49 q 706 46 706 40 q 706 33 702 28 q 700 27 696 26 q 693 25 688 22 q 691 22 692 22 q 693 21 694 21 q 696 18 696 16 q 697 13 700 10 l 712 -5 l 702 -5 l 693 7 q 690 10 689 12 q 688 15 687 16 q 687 19 686 19 q 684 19 682 21 l 681 21 q 679 21 679 22 q 679 22 678 22 l 675 22 l 664 22 l 664 -5 z m 505 -5 l 505 58 l 514 58 l 514 1 l 544 1 l 544 -5 z m 961 16 l 969 15 q 966 3 960 0 q 954 -6 943 -6 q 934 -6 928 -3 q 924 0 922 3 q 921 6 918 9 q 915 21 915 27 q 915 33 918 45 q 925 52 928 54 q 933 55 936 56 q 939 58 943 58 q 948 58 952 56 q 957 55 960 54 q 963 51 965 48 q 967 45 969 40 l 960 39 q 960 45 954 48 q 951 49 943 49 q 934 49 931 48 q 928 46 928 44 q 927 42 924 39 q 924 36 923 33 q 922 30 922 27 q 922 18 927 13 q 927 10 928 8 q 930 6 931 3 q 936 1 943 1 q 951 1 955 6 q 960 10 961 16 z m 1047 -5 l 1047 58 l 1059 58 l 1074 13 q 1074 10 1076 8 q 1077 6 1077 3 q 1077 4 1080 13 l 1093 58 l 1105 58 l 1105 -5 l 1098 -5 l 1098 46 l 1080 -5 l 1072 -5 l 1054 48 l 1054 -5 z m 610 21 l 631 21 l 624 39 q 622 42 622 44 q 622 46 619 49 q 619 45 616 39 z m 352 -5 l 352 3 l 363 3 l 363 -5 z m 844 -5 l 844 58 l 852 58 l 852 1 l 883 1 l 883 -5 z m 787 -5 l 787 58 l 832 58 l 832 49 l 795 49 l 795 30 l 829 30 l 829 22 l 795 22 l 795 1 l 832 1 l 832 -5 z m 565 -5 l 565 21 l 541 58 l 552 58 l 564 39 q 567 30 570 28 q 571 30 572 33 q 574 36 577 39 l 589 58 l 598 58 l 573 21 l 573 -5 z m 376 -5 l 376 58 l 400 58 q 403 58 406 56 q 408 55 409 55 q 415 54 417 49 q 420 46 420 40 q 420 36 417 34 q 415 28 411 28 q 415 27 420 22 q 423 16 423 13 q 423 10 422 8 q 421 7 421 6 q 420 0 415 0 q 414 -3 412 -3 q 411 -3 409 -5 l 400 -5 z m 205 -5 l 187 58 l 196 58 l 205 16 q 207 12 207 9 q 207 6 208 3 q 210 10 210 15 l 222 58 l 232 58 l 241 25 q 243 18 244 14 q 246 9 246 3 q 247 6 247 9 q 247 12 249 16 l 259 58 l 267 58 l 249 -5 l 241 -5 l 229 42 q 228 46 228 49 q 226 46 226 42 l 213 -5 z m 123 -5 l 105 58 l 115 58 l 123 16 q 123 9 127 3 q 129 10 129 15 l 141 58 l 150 58 l 160 25 q 162 18 162 14 q 163 9 163 3 q 166 6 166 9 q 166 12 168 16 l 177 58 l 186 58 l 168 -5 l 160 -5 l 148 42 q 147 46 147 49 q 144 46 144 42 l 130 -5 z m 384 30 l 397 30 q 403 30 405 33 q 409 33 409 34 q 411 36 411 40 q 411 45 409 46 l 408 46 q 406 46 406 47 q 406 48 405 48 q 403 49 396 49 l 384 49 z m 285 -5 l 268 58 l 277 58 l 286 16 q 288 12 288 9 q 288 6 291 3 q 291 9 292 11 q 292 13 292 15 l 304 58 l 313 58 l 324 25 q 325 18 326 14 q 327 9 327 3 q 330 6 330 9 q 330 12 331 16 l 342 58 l 349 58 l 331 -5 l 324 -5 l 312 42 q 310 46 310 49 q 307 46 307 42 l 294 -5 z m 664 28 l 682 28 q 685 28 688 29 q 690 30 693 30 q 696 30 696 34 q 697 36 697 40 q 697 45 694 48 q 693 49 684 49 l 664 49 z m 384 1 l 400 1 q 403 1 405 3 l 409 3 q 411 6 414 7 l 414 13 q 414 16 411 19 q 411 22 408 22 l 397 22 l 384 22 z m 435 -5 l 435 58 l 442 58 l 442 -5 z m 985 25 q 985 12 990 7 q 996 1 1006 1 q 1017 1 1021 7 q 1027 12 1027 27 q 1027 34 1026 39 q 1023 46 1018 48 q 1014 49 1006 49 q 997 49 993 45 q 985 39 985 25 z m 976 25 q 976 42 985 49 q 991 58 1006 58 q 1011 58 1014 56 q 1018 55 1021 54 q 1026 52 1028 49 q 1030 46 1033 42 q 1035 39 1035 27 q 1035 13 1032 9 q 1027 1 1021 -3 q 1015 -6 1006 -6 q 1002 -6 998 -6 q 994 -5 990 -3 q 987 0 984 3 q 982 6 981 9 q 979 13 978 17 q 976 21 976 25 z m 592 -5 l 616 58 l 625 58 l 651 -5 l 642 -5 l 634 13 l 609 13 l 600 -5 z m 459 -5 l 459 58 l 466 58 l 466 1 l 495 1 l 495 -5 z m 892 -5 l 892 3 l 903 3 l 903 -5 z m 748 19 l 748 27 l 774 27 l 774 3 q 768 -3 762 -5 q 759 -5 755 -6 q 751 -6 748 -6 q 739 -6 733 -3 q 729 0 726 2 q 723 4 721 9 q 720 13 718 17 q 717 21 717 25 q 717 31 718 34 q 720 37 721 42 q 724 51 732 54 q 735 55 740 56 q 744 58 748 58 q 756 58 760 55 q 766 54 768 49 q 772 45 774 40 l 766 39 q 766 40 762 45 q 762 48 756 49 l 748 49 l 739 49 q 735 48 732 45 q 732 43 727 39 q 727 36 726 33 q 726 30 726 27 q 726 16 729 13 q 735 4 736 3 q 741 1 748 1 q 754 1 759 3 q 762 6 764 6 q 765 6 766 7 l 766 19 z m 657 -5 l 657 58 l 684 58 q 688 58 691 56 q 694 55 697 55 q 702 54 703 49 q 706 46 706 40 q 706 33 702 28 q 700 27 696 26 q 693 25 688 22 q 691 22 692 22 q 693 21 694 21 q 696 18 696 16 q 697 13 700 10 l 712 -5 l 702 -5 l 693 7 q 690 10 689 12 q 688 15 687 16 q 687 19 686 19 q 684 19 682 21 l 681 21 q 679 21 679 22 q 679 22 678 22 l 675 22 l 664 22 l 664 -5 z m 505 -5 l 505 58 l 514 58 l 514 1 l 544 1 l 544 -5 z m 961 16 l 969 15 q 966 3 960 0 q 954 -6 943 -6 q 934 -6 928 -3 q 924 0 922 3 q 921 6 918 9 q 915 21 915 27 q 915 33 918 45 q 925 52 928 54 q 933 55 936 56 q 939 58 943 58 q 948 58 952 56 q 957 55 960 54 q 963 51 965 48 q 967 45 969 40 l 960 39 q 960 45 954 48 q 951 49 943 49 q 934 49 931 48 q 928 46 928 44 q 927 42 924 39 q 924 36 923 33 q 922 30 922 27 q 922 18 927 13 q 927 10 928 8 q 930 6 931 3 q 936 1 943 1 q 951 1 955 6 q 960 10 961 16 z m 1047 -5 l 1047 58 l 1059 58 l 1074 13 q 1074 10 1076 8 q 1077 6 1077 3 q 1077 4 1080 13 l 1093 58 l 1105 58 l 1105 -5 l 1098 -5 l 1098 46 l 1080 -5 l 1072 -5 l 1054 48 l 1054 -5 z m 175 111 l 187 106 q 184 93 174 84 q 162 75 148 75 q 135 75 123 81 q 111 90 109 99 q 103 109 103 124 q 103 141 109 151 q 114 162 124 166 q 135 172 148 172 q 165 172 171 165 q 181 162 186 145 l 174 144 q 168 156 163 157 q 157 163 148 163 q 136 163 130 157 q 121 151 118 144 q 117 138 117 124 q 117 111 121 105 q 124 94 130 91 q 138 85 147 85 q 159 85 166 93 q 169 96 172 100 q 174 105 175 111 z m 199 123 q 199 135 202 144 q 205 153 213 159 q 219 166 227 169 q 235 172 244 172 q 258 172 268 166 q 277 162 285 150 q 291 135 291 124 q 291 117 290 111 q 288 105 285 99 q 277 87 267 81 q 255 75 244 75 q 237 75 232 76 q 226 78 220 81 q 210 87 205 99 q 199 109 199 123 z m 213 123 q 213 105 220 94 q 231 85 244 85 q 259 85 267 97 q 277 108 277 124 q 277 130 276 134 q 274 139 273 144 q 270 154 261 157 q 256 163 244 163 q 232 163 222 153 q 213 145 213 123 z m 306 78 l 306 171 l 324 171 l 346 105 q 351 96 351 91 q 354 94 357 106 l 381 171 l 396 171 l 396 78 l 384 78 l 384 156 l 357 78 l 345 78 l 318 157 l 318 78 z m 417 78 l 417 171 l 453 171 l 466 171 q 474 171 478 166 q 480 165 486 157 q 487 154 488 151 q 489 148 489 144 q 489 135 481 124 q 474 117 453 117 l 429 117 l 429 78 z m 429 126 l 454 126 q 468 126 469 132 q 475 133 475 144 q 475 151 474 153 q 468 159 463 159 q 462 162 453 162 l 429 162 z m 505 78 l 505 171 l 517 171 l 517 87 l 564 87 l 564 78 z m 579 78 l 579 171 l 648 171 l 648 162 l 591 162 l 591 132 l 643 132 l 643 120 l 591 120 l 591 87 l 649 87 l 649 78 z m 690 78 l 690 162 l 658 162 l 658 171 l 735 171 l 735 162 l 703 162 l 703 78 z m 748 78 l 748 171 l 817 171 l 817 162 l 760 162 l 760 132 l 813 132 l 813 120 l 760 120 l 760 87 l 819 87 l 819 78 z m 870 106 l 882 108 q 882 100 885 97 q 888 91 895 88 q 898 87 909 87 q 912 87 916 87 q 919 87 922 88 q 927 88 930 94 q 931 97 931 103 q 931 108 930 111 q 928 112 926 113 q 924 114 921 117 q 919 117 904 120 q 897 123 892 124 q 888 124 885 126 q 879 129 876 136 q 873 138 872 141 q 871 144 871 147 q 871 156 877 162 q 879 165 882 166 q 885 168 889 171 q 892 172 907 172 q 918 172 924 169 q 928 166 931 164 q 934 163 936 159 q 942 154 942 145 l 930 144 q 927 156 922 157 q 918 162 907 162 q 892 162 889 157 q 885 153 885 147 q 885 142 889 139 q 889 139 907 132 q 915 130 920 128 q 925 127 928 126 q 933 124 935 122 q 937 120 940 117 q 943 112 943 103 q 943 93 940 88 q 934 82 928 79 q 924 78 920 76 q 915 75 909 75 q 903 75 897 76 q 891 78 888 79 q 880 81 873 91 q 870 97 870 106 z m 961 78 l 961 171 l 1029 171 l 1029 162 l 975 162 l 975 132 l 1027 132 l 1027 120 l 975 120 l 975 87 l 1032 87 l 1032 78 z m 1074 78 l 1074 162 l 1044 162 l 1044 171 l 1117 171 l 1117 162 l 1086 162 l 1086 78 z m 112 190 l 112 283 l 150 283 l 163 283 q 166 283 175 280 q 177 279 179 276 q 181 273 183 270 q 186 267 186 259 q 186 246 177 237 q 172 229 150 229 l 127 229 l 127 190 z m 127 241 l 150 241 q 163 241 168 244 q 174 250 174 256 q 174 259 172 262 q 171 265 169 268 q 165 273 162 273 q 160 274 150 274 l 127 274 z m 201 190 l 201 283 l 268 283 l 268 274 l 214 274 l 214 244 l 265 244 l 265 234 l 214 234 l 214 202 l 271 202 l 271 190 z m 288 190 l 288 283 l 331 283 q 345 283 351 282 q 358 279 361 274 q 364 262 364 259 q 364 249 358 243 q 352 237 337 234 q 340 231 342 231 q 343 231 345 229 q 352 222 355 216 l 372 190 l 357 190 l 343 210 q 342 214 340 217 q 337 220 336 223 q 333 225 332 227 q 331 229 330 229 q 327 231 324 231 q 322 234 316 234 l 303 234 l 303 190 z m 303 243 l 327 243 q 339 243 342 244 q 346 249 349 250 q 351 253 351 259 q 351 265 346 270 q 342 274 331 274 l 303 274 z m 381 222 l 391 222 q 391 219 392 216 q 394 213 396 210 q 397 208 400 206 q 402 204 405 204 q 414 201 420 201 q 423 201 426 201 q 429 201 430 202 q 439 205 441 208 q 441 210 442 212 q 442 214 442 216 q 442 222 441 223 q 436 226 430 229 q 429 231 425 231 q 421 231 415 234 q 402 235 396 240 q 388 246 385 249 q 384 253 384 261 q 384 264 384 268 q 385 271 388 274 q 390 280 400 283 q 403 286 417 286 q 429 286 435 283 q 444 279 447 273 q 453 264 453 259 l 441 256 q 438 267 433 270 q 427 276 417 276 q 405 276 400 270 q 396 267 396 261 q 396 255 400 253 q 402 250 417 247 q 430 241 439 241 q 442 238 445 236 q 448 234 450 231 q 454 226 454 217 q 454 210 450 204 q 447 199 444 197 q 442 195 439 192 q 427 189 420 189 q 409 189 397 192 q 393 195 390 197 q 387 199 384 204 q 382 208 382 212 q 381 216 381 222 z m 468 237 q 468 258 480 273 q 493 286 513 286 q 519 286 524 284 q 529 283 537 280 q 543 277 546 272 q 549 268 552 262 q 558 252 558 237 q 558 223 552 211 q 546 201 537 195 q 525 189 513 189 q 499 189 489 196 q 475 204 474 214 q 468 222 468 237 z m 480 237 q 480 219 489 210 q 498 201 513 201 q 528 201 537 210 q 544 220 544 237 q 544 243 544 249 q 543 255 540 259 q 535 267 531 270 q 523 276 513 276 q 505 276 500 274 q 496 271 489 267 q 480 258 480 237 z m 573 190 l 573 283 l 586 283 l 636 211 l 636 283 l 648 283 l 648 190 l 636 190 l 585 264 l 585 190 z m 658 190 l 694 283 l 708 283 l 747 190 l 732 190 l 721 220 l 682 220 l 670 190 z m 684 229 l 717 229 l 708 255 q 705 261 704 266 q 702 271 700 274 q 700 270 698 266 q 697 261 696 256 z m 754 190 l 754 283 l 768 283 l 768 202 l 814 202 l 814 190 z m 922 283 l 934 283 l 934 231 q 934 214 931 208 q 928 199 921 195 q 913 189 898 189 q 883 189 877 195 q 873 196 870 200 q 867 204 864 208 q 862 211 862 231 l 862 283 l 873 283 l 873 231 q 873 216 876 211 q 879 205 883 204 q 886 202 889 202 q 892 201 897 201 q 909 201 916 205 q 922 211 922 231 z m 951 222 l 963 222 q 963 219 964 216 q 966 213 967 210 q 969 208 971 206 q 973 204 976 204 q 985 201 990 201 q 1000 201 1005 202 q 1008 204 1012 208 q 1014 210 1014 216 q 1014 222 1012 223 q 1009 225 1008 226 q 1008 228 1005 229 q 1002 231 998 231 q 993 231 987 234 q 981 235 976 236 q 970 237 969 240 q 961 243 960 249 q 955 253 955 261 q 955 267 960 274 q 961 280 970 283 q 976 286 988 286 q 993 286 998 286 q 1003 286 1006 283 q 1015 279 1020 273 q 1021 270 1022 266 q 1024 262 1024 259 l 1012 256 q 1009 261 1008 264 q 1008 268 1005 270 q 1000 276 988 276 q 975 276 973 270 q 967 268 967 261 q 967 256 970 253 q 973 250 988 247 q 1005 241 1009 241 q 1014 238 1017 236 q 1020 234 1021 231 q 1026 228 1026 217 q 1026 208 1021 204 q 1018 199 1016 197 q 1014 195 1009 192 q 1000 189 993 189 q 985 189 980 190 q 975 190 970 192 q 967 195 964 197 q 960 199 957 204 q 954 208 952 212 q 951 216 951 222 z m 1044 190 l 1044 283 l 1111 283 l 1111 274 l 1057 274 l 1057 244 l 1107 244 l 1107 234 l 1057 234 l 1057 202 l 1113 202 l 1113 190 z m 307 388 q 307 403 285 406 q 282 406 278 407 q 273 408 267 408 l 258 397 l 234 372 q 228 364 222 358 q 217 352 210 348 q 219 345 232 343 q 235 343 240 343 q 246 343 250 345 q 273 346 285 357 q 307 375 307 388 z m 324 433 q 324 439 316 439 q 313 439 291 432 l 274 417 q 271 414 268 408 l 294 412 q 300 412 310 420 q 324 429 324 433 z m 343 460 q 343 457 339 457 q 336 457 335 458 q 334 459 331 459 q 316 456 297 436 q 300 439 304 440 q 307 442 310 444 q 321 445 330 444 q 336 444 336 436 l 336 430 q 328 417 294 409 q 321 406 321 391 q 321 373 292 354 q 282 348 270 344 q 259 340 247 339 q 228 334 217 336 q 208 336 198 340 q 189 334 181 334 l 178 334 q 169 337 163 339 l 168 339 q 180 339 187 345 l 187 346 q 177 340 165 340 q 148 340 139 349 q 124 360 124 381 q 124 387 126 392 q 127 397 130 405 q 141 427 166 444 q 174 451 182 454 q 190 456 198 457 q 214 457 220 451 q 213 456 205 456 q 196 456 186 450 q 171 444 169 441 q 154 433 139 415 q 126 394 126 379 q 126 372 128 368 q 129 363 132 358 q 138 349 148 346 q 153 345 156 344 q 159 343 162 343 q 168 343 172 344 q 177 346 183 349 q 166 361 166 382 q 169 402 190 417 l 187 412 q 184 412 181 406 q 172 397 172 387 q 172 367 195 354 q 207 361 207 363 q 210 367 213 370 q 216 373 219 376 q 222 379 222 384 q 223 388 226 393 l 226 391 q 226 384 225 379 l 243 400 q 289 453 319 462 q 306 466 298 466 q 279 465 256 453 q 229 439 229 420 q 229 414 234 409 q 235 408 235 406 q 226 412 226 421 q 226 438 246 454 q 270 472 297 469 q 306 469 324 463 l 330 463 q 337 463 342 460 z m 346 363 q 345 357 334 346 q 324 340 316 340 q 309 340 309 349 q 309 357 318 369 l 316 369 q 315 367 310 367 q 310 367 309 369 q 313 369 324 379 l 325 379 l 330 385 q 334 390 334 393 l 339 393 q 343 393 343 391 q 343 385 334 375 l 324 364 q 315 351 315 346 q 315 342 321 342 q 328 342 339 357 q 340 358 342 359 q 343 360 346 363 z m 354 405 q 348 396 339 396 q 334 396 328 400 l 333 400 q 343 400 346 411 l 346 414 l 354 411 q 355 409 354 405 z m 406 433 q 406 426 360 370 l 358 370 q 345 354 345 345 q 345 340 349 340 q 358 340 369 355 q 370 357 372 358 q 373 358 375 361 q 375 354 363 345 q 355 339 346 339 q 337 340 337 348 q 336 355 367 394 l 385 417 l 394 426 q 399 432 402 441 q 406 438 406 433 z m 432 433 q 432 427 384 370 q 369 352 369 345 q 369 340 375 340 q 381 340 394 355 l 400 361 q 399 354 387 345 q 379 339 370 339 q 361 340 361 348 q 361 357 391 394 l 409 417 l 418 426 q 426 435 427 441 q 432 438 432 433 z m 403 333 q 379 328 366 315 q 355 301 355 298 q 355 292 361 292 q 363 291 372 294 q 375 297 378 300 q 382 304 387 309 z m 447 430 q 444 409 427 393 q 427 391 426 391 q 426 391 426 390 q 421 384 416 378 q 411 373 406 366 q 403 363 403 360 q 402 363 405 369 q 396 355 396 348 q 396 343 400 343 q 402 343 408 346 q 430 364 439 397 l 439 393 l 439 388 q 442 385 442 381 q 442 378 435 366 l 423 346 l 409 328 q 414 331 426 337 l 424 336 q 421 333 416 329 q 411 325 406 318 l 394 303 l 388 295 q 379 286 369 283 q 360 283 355 289 q 346 292 352 303 q 354 304 356 307 q 357 310 360 313 l 361 315 l 351 313 q 376 331 393 333 q 394 333 396 334 q 397 334 399 334 l 400 334 l 403 334 l 412 348 q 406 342 402 341 q 397 340 394 340 q 387 340 387 348 q 387 366 418 394 l 421 396 l 436 411 q 439 417 442 422 q 445 426 447 430 z m 618 453 q 609 456 603 456 q 588 456 575 452 q 562 448 549 441 q 543 438 539 434 q 535 430 531 427 q 549 426 579 408 q 612 441 636 450 z m 649 447 q 643 445 636 443 q 630 441 622 433 q 618 430 600 412 l 589 402 l 604 393 q 607 397 613 404 q 619 411 627 420 z m 663 472 q 663 471 661 469 q 661 459 657 448 l 658 447 l 657 447 q 649 429 637 417 l 613 388 q 616 387 618 387 q 619 387 622 385 q 622 382 621 382 q 618 382 616 383 q 615 384 612 385 q 594 366 592 349 q 589 343 589 340 q 589 334 595 334 q 607 334 621 354 l 627 363 q 642 384 646 400 l 646 405 q 646 403 648 402 l 648 400 q 645 379 633 361 l 613 322 q 613 328 618 342 q 600 328 591 328 q 577 328 580 346 q 580 355 586 366 q 592 378 601 391 l 586 399 l 573 385 q 568 379 560 370 q 552 361 540 346 q 516 322 498 322 l 493 322 q 489 322 480 327 q 480 327 483 327 q 496 324 510 337 q 498 331 481 331 q 465 331 454 339 l 456 339 q 441 349 441 370 q 441 385 447 393 q 456 417 481 433 q 490 441 498 443 q 507 445 516 447 q 531 447 537 441 l 535 441 q 532 444 522 444 q 507 444 484 430 q 468 418 456 405 q 442 384 442 367 q 442 343 465 336 q 474 333 478 333 q 510 334 547 375 l 576 405 q 553 418 525 418 l 523 418 q 520 412 520 405 q 522 405 528 396 q 517 402 517 411 q 517 415 519 418 q 504 415 499 412 q 472 402 475 381 q 475 367 484 357 l 487 354 q 469 372 469 385 q 469 405 487 418 q 502 429 525 429 q 546 453 577 457 q 585 459 601 459 q 609 459 624 456 l 642 451 l 651 451 l 652 450 q 658 460 661 475 l 663 475 z m 682 375 q 682 370 681 367 q 673 360 668 354 q 663 348 658 340 l 660 340 l 661 340 q 660 339 658 339 q 657 339 657 337 q 649 337 649 340 q 649 346 663 360 q 673 373 673 376 q 675 381 669 385 q 651 360 637 354 l 631 351 l 628 352 q 634 352 648 367 q 661 379 666 387 q 666 388 665 388 q 664 388 664 390 q 664 391 675 400 q 675 402 676 402 l 678 400 q 678 399 670 388 q 682 384 682 375 z m 726 379 q 726 388 720 385 q 714 385 711 382 q 706 379 697 367 q 688 355 688 348 q 687 345 691 345 q 700 348 706 355 q 712 367 712 372 q 712 375 711 375 q 717 375 717 367 l 715 364 q 718 367 720 371 q 723 375 726 378 z m 754 393 q 748 393 741 385 q 735 378 729 369 q 723 360 715 348 q 708 333 702 324 q 696 316 694 313 q 675 289 664 289 q 655 288 651 295 q 651 303 651 303 q 651 310 657 316 q 654 315 649 315 q 664 330 682 334 q 684 334 684 335 q 685 336 688 336 l 690 334 q 661 325 655 307 q 654 304 654 300 q 654 298 655 297 q 655 295 657 295 q 669 294 685 318 l 696 333 l 702 342 q 697 340 694 340 q 682 340 682 352 q 682 366 702 384 q 711 393 718 393 q 729 393 729 381 l 730 381 l 738 390 q 745 397 751 397 q 756 397 759 393 z m 781 382 q 781 373 765 364 q 763 363 762 363 l 760 363 q 756 363 751 370 q 754 367 759 367 q 769 373 772 384 l 772 387 l 772 388 l 772 390 q 766 390 753 376 l 753 375 q 748 369 748 365 q 747 361 747 358 q 745 360 745 367 q 742 361 741 357 q 738 351 738 346 q 738 345 739 343 q 739 340 745 340 q 760 346 771 355 q 774 358 778 361 q 775 357 772 353 q 769 349 762 345 q 750 337 741 340 q 741 339 739 340 q 730 340 730 349 q 730 364 747 379 q 756 393 771 393 q 774 393 775 391 q 781 387 781 382 z m 841 433 q 841 427 793 370 q 780 354 780 345 q 780 340 784 340 q 793 340 804 355 q 805 357 806 358 q 808 358 810 361 q 810 354 798 345 q 790 339 780 339 q 772 342 772 348 q 772 360 801 394 l 819 417 l 828 426 q 837 435 837 441 q 841 438 841 433 z m 922 387 q 897 396 895 415 q 888 411 880 407 q 873 403 868 399 q 840 372 840 349 q 840 340 844 339 l 847 339 l 850 339 q 873 339 892 354 q 898 360 906 368 q 915 375 922 387 z m 952 430 l 940 430 q 922 429 897 417 q 900 396 925 391 l 936 405 z m 979 457 q 960 457 944 454 q 928 451 916 444 q 924 451 935 456 q 946 460 960 463 q 930 465 907 445 q 903 442 897 430 q 907 433 917 434 q 927 436 939 435 q 942 435 946 435 q 951 435 958 433 q 961 438 966 444 q 972 450 979 457 z m 1074 459 q 1071 454 1067 450 q 1063 447 1056 444 q 1044 436 1033 436 l 1030 436 q 1029 436 1027 438 q 1029 439 1029 440 q 1029 442 1032 445 q 1018 456 994 456 l 988 448 l 973 430 q 985 429 996 428 q 1006 426 1015 426 q 1036 426 1044 430 q 1038 424 1021 421 q 1008 418 994 423 l 970 427 q 964 420 959 414 q 954 409 951 403 l 940 388 l 948 388 q 985 391 991 406 l 993 406 q 988 397 973 390 q 966 387 959 386 q 952 384 946 384 l 939 384 q 928 372 922 363 q 915 354 909 348 q 889 327 873 327 q 865 328 856 328 q 871 328 888 343 q 867 334 855 334 l 846 336 l 858 324 q 846 330 838 337 q 837 337 831 340 q 813 354 811 375 q 811 382 811 388 q 811 394 814 400 q 819 414 826 424 q 834 433 844 444 q 870 466 889 466 q 900 466 907 460 l 906 459 q 901 463 892 463 q 873 460 852 444 q 834 429 825 414 q 813 393 813 375 q 816 348 837 340 q 834 349 835 358 q 838 381 852 397 q 868 418 897 430 q 900 433 900 439 l 913 453 q 933 469 964 469 q 972 469 977 469 q 982 469 990 468 l 991 468 q 1002 475 1010 479 q 1018 483 1027 481 q 1033 481 1036 478 q 1020 475 1020 475 q 1017 474 1013 472 q 1009 471 1005 468 q 1011 466 1017 466 q 1023 465 1030 462 q 1045 457 1054 457 q 1068 457 1074 459 z m 982 354 q 978 358 978 364 q 978 367 978 370 q 979 372 979 375 q 964 355 966 346 q 966 343 969 343 q 972 343 982 354 z m 1002 385 q 1002 388 999 388 q 996 388 993 387 q 991 385 988 379 q 981 364 981 360 q 981 355 982 354 l 987 358 l 987 360 l 987 358 q 988 360 988 360 q 988 361 990 363 q 993 372 993 375 q 993 376 991 378 q 994 372 994 370 q 999 375 1002 385 z m 1008 381 q 1008 373 997 358 q 984 345 978 340 l 966 340 q 957 340 957 348 q 957 360 973 379 q 984 393 997 393 q 1008 393 1008 381 z m 1057 384 q 1059 381 1051 367 q 1042 355 1039 352 l 1021 336 q 1011 325 1008 313 q 1009 331 1021 345 q 1027 351 1030 356 q 1033 360 1036 366 q 1038 367 1039 372 l 1039 367 q 1039 367 1038 364 q 1041 367 1047 379 q 1047 381 1048 382 q 1048 382 1048 384 q 1048 391 1041 388 q 1041 388 1029 379 q 1026 372 1020 366 q 1015 361 1009 354 q 1002 345 1000 340 q 999 339 993 327 q 993 330 992 334 q 991 337 993 340 q 996 351 1006 361 l 1015 372 q 1023 382 1023 388 q 1023 390 1022 392 q 1021 393 1021 394 q 1030 391 1030 385 q 1039 393 1050 393 q 1056 390 1057 384 z m 1116 405 l 1093 405 q 1092 402 1084 393 q 1075 384 1063 367 q 1060 367 1057 360 q 1051 352 1051 345 q 1051 340 1054 340 q 1062 340 1075 355 l 1077 357 q 1078 358 1078 359 q 1078 360 1080 361 q 1080 354 1069 345 q 1062 339 1051 339 q 1044 342 1042 348 q 1042 351 1048 363 l 1066 384 l 1083 405 l 1057 408 q 1051 409 1042 409 l 1029 409 q 1011 409 993 402 l 991 402 q 1006 417 1038 417 q 1039 417 1050 414 q 1062 412 1083 409 l 1087 408 q 1092 415 1096 420 q 1099 426 1102 430 q 1105 429 1105 423 q 1105 418 1102 415 l 1096 406 l 1108 405 l 1117 405 l 1119 405 l 1123 405 z m 1126 385 q 1126 381 1116 376 l 1114 375 q 1119 379 1119 387 l 1119 393 l 1114 393 q 1107 393 1105 387 q 1105 384 1110 361 q 1111 340 1086 340 q 1072 340 1069 349 q 1068 351 1068 354 q 1068 366 1086 369 l 1092 367 l 1089 367 q 1083 367 1080 364 q 1075 357 1075 354 q 1075 342 1087 342 q 1099 342 1099 358 q 1099 366 1098 370 q 1096 375 1096 381 q 1096 396 1110 396 q 1113 396 1114 395 q 1116 394 1119 394 q 1125 391 1125 390 q 1126 388 1126 385 z"},"r":{"x_min":0,"x_max":216,"ha":216,"o":"m 170 207 q 164 184 152 154 q 139 124 130 97 q 121 70 120 52 q 119 33 136 33 q 146 33 164 54 q 181 75 200 104 q 219 133 236 162 q 254 192 265 209 q 268 213 274 215 q 280 217 285 216 q 290 216 293 214 q 296 211 293 207 q 282 188 264 153 q 246 118 224 83 q 213 66 202 50 q 190 34 176 21 q 163 8 148 0 q 133 -7 115 -7 q 88 -7 77 6 q 66 18 64 38 q 62 58 68 82 q 74 107 82 132 q 90 156 98 178 q 105 199 107 212 q 107 220 99 226 q 91 233 86 223 l 85 222 q 83 219 79 212 q 75 204 73 202 q 63 189 51 192 q 39 194 45 204 l 49 212 q 58 235 58 251 q 59 267 54 282 q 52 290 61 300 q 70 310 81 316 q 92 322 101 320 q 110 319 109 303 q 105 294 110 286 q 115 278 123 270 q 129 265 136 257 q 142 249 150 241 q 161 232 167 224 q 173 215 170 207 z"},"2":{"x_min":0,"x_max":1219,"ha":1219,"o":"m 876 781 l 739 657 l 775 471 l 615 565 l 450 471 l 489 652 l 351 781 l 537 801 l 615 972 l 690 802 z m 682 576 l 639 834 l 586 834 l 541 576 l 564 562 l 583 576 l 592 634 l 631 634 l 642 576 l 663 562 z m 628 672 l 598 672 l 612 774 z m 610 21 l 631 21 l 624 39 q 622 42 622 44 q 622 46 619 49 q 619 45 616 39 z m 352 -5 l 352 3 l 363 3 l 363 -5 z m 844 -5 l 844 58 l 852 58 l 852 1 l 883 1 l 883 -5 z m 787 -5 l 787 58 l 832 58 l 832 49 l 795 49 l 795 30 l 829 30 l 829 22 l 795 22 l 795 1 l 832 1 l 832 -5 z m 565 -5 l 565 21 l 541 58 l 552 58 l 564 39 q 567 30 570 28 q 571 30 572 33 q 574 36 577 39 l 589 58 l 598 58 l 573 21 l 573 -5 z m 376 -5 l 376 58 l 400 58 q 403 58 406 56 q 408 55 409 55 q 415 54 417 49 q 420 46 420 40 q 420 36 417 34 q 415 28 411 28 q 415 27 420 22 q 423 16 423 13 q 423 10 422 8 q 421 7 421 6 q 420 0 415 0 q 414 -3 412 -3 q 411 -3 409 -5 l 400 -5 z m 205 -5 l 187 58 l 196 58 l 205 16 q 207 12 207 9 q 207 6 208 3 q 210 10 210 15 l 222 58 l 232 58 l 241 25 q 243 18 244 14 q 246 9 246 3 q 247 6 247 9 q 247 12 249 16 l 259 58 l 267 58 l 249 -5 l 241 -5 l 229 42 q 228 46 228 49 q 226 46 226 42 l 213 -5 z m 123 -5 l 105 58 l 115 58 l 123 16 q 123 9 127 3 q 129 10 129 15 l 141 58 l 150 58 l 160 25 q 162 18 162 14 q 163 9 163 3 q 166 6 166 9 q 166 12 168 16 l 177 58 l 186 58 l 168 -5 l 160 -5 l 148 42 q 147 46 147 49 q 144 46 144 42 l 130 -5 z m 384 30 l 397 30 q 403 30 405 33 q 409 33 409 34 q 411 36 411 40 q 411 45 409 46 l 408 46 q 406 46 406 47 q 406 48 405 48 q 403 49 396 49 l 384 49 z m 285 -5 l 268 58 l 277 58 l 286 16 q 288 12 288 9 q 288 6 291 3 q 291 9 292 11 q 292 13 292 15 l 304 58 l 313 58 l 324 25 q 325 18 326 14 q 327 9 327 3 q 330 6 330 9 q 330 12 331 16 l 342 58 l 349 58 l 331 -5 l 324 -5 l 312 42 q 310 46 310 49 q 307 46 307 42 l 294 -5 z m 664 28 l 682 28 q 685 28 688 29 q 690 30 693 30 q 696 30 696 34 q 697 36 697 40 q 697 45 694 48 q 693 49 684 49 l 664 49 z m 384 1 l 400 1 q 403 1 405 3 l 409 3 q 411 6 414 7 l 414 13 q 414 16 411 19 q 411 22 408 22 l 397 22 l 384 22 z m 435 -5 l 435 58 l 442 58 l 442 -5 z m 985 25 q 985 12 990 7 q 996 1 1006 1 q 1017 1 1021 7 q 1027 12 1027 27 q 1027 34 1026 39 q 1023 46 1018 48 q 1014 49 1006 49 q 997 49 993 45 q 985 39 985 25 z m 976 25 q 976 42 985 49 q 991 58 1006 58 q 1011 58 1014 56 q 1018 55 1021 54 q 1026 52 1028 49 q 1030 46 1033 42 q 1035 39 1035 27 q 1035 13 1032 9 q 1027 1 1021 -3 q 1015 -6 1006 -6 q 1002 -6 998 -6 q 994 -5 990 -3 q 987 0 984 3 q 982 6 981 9 q 979 13 978 17 q 976 21 976 25 z m 592 -5 l 616 58 l 625 58 l 651 -5 l 642 -5 l 634 13 l 609 13 l 600 -5 z m 459 -5 l 459 58 l 466 58 l 466 1 l 495 1 l 495 -5 z m 892 -5 l 892 3 l 903 3 l 903 -5 z m 748 19 l 748 27 l 774 27 l 774 3 q 768 -3 762 -5 q 759 -5 755 -6 q 751 -6 748 -6 q 739 -6 733 -3 q 729 0 726 2 q 723 4 721 9 q 720 13 718 17 q 717 21 717 25 q 717 31 718 34 q 720 37 721 42 q 724 51 732 54 q 735 55 740 56 q 744 58 748 58 q 756 58 760 55 q 766 54 768 49 q 772 45 774 40 l 766 39 q 766 40 762 45 q 762 48 756 49 l 748 49 l 739 49 q 735 48 732 45 q 732 43 727 39 q 727 36 726 33 q 726 30 726 27 q 726 16 729 13 q 735 4 736 3 q 741 1 748 1 q 754 1 759 3 q 762 6 764 6 q 765 6 766 7 l 766 19 z m 657 -5 l 657 58 l 684 58 q 688 58 691 56 q 694 55 697 55 q 702 54 703 49 q 706 46 706 40 q 706 33 702 28 q 700 27 696 26 q 693 25 688 22 q 691 22 692 22 q 693 21 694 21 q 696 18 696 16 q 697 13 700 10 l 712 -5 l 702 -5 l 693 7 q 690 10 689 12 q 688 15 687 16 q 687 19 686 19 q 684 19 682 21 l 681 21 q 679 21 679 22 q 679 22 678 22 l 675 22 l 664 22 l 664 -5 z m 505 -5 l 505 58 l 514 58 l 514 1 l 544 1 l 544 -5 z m 961 16 l 969 15 q 966 3 960 0 q 954 -6 943 -6 q 934 -6 928 -3 q 924 0 922 3 q 921 6 918 9 q 915 21 915 27 q 915 33 918 45 q 925 52 928 54 q 933 55 936 56 q 939 58 943 58 q 948 58 952 56 q 957 55 960 54 q 963 51 965 48 q 967 45 969 40 l 960 39 q 960 45 954 48 q 951 49 943 49 q 934 49 931 48 q 928 46 928 44 q 927 42 924 39 q 924 36 923 33 q 922 30 922 27 q 922 18 927 13 q 927 10 928 8 q 930 6 931 3 q 936 1 943 1 q 951 1 955 6 q 960 10 961 16 z m 1047 -5 l 1047 58 l 1059 58 l 1074 13 q 1074 10 1076 8 q 1077 6 1077 3 q 1077 4 1080 13 l 1093 58 l 1105 58 l 1105 -5 l 1098 -5 l 1098 46 l 1080 -5 l 1072 -5 l 1054 48 l 1054 -5 z m 610 21 l 631 21 l 624 39 q 622 42 622 44 q 622 46 619 49 q 619 45 616 39 z m 352 -5 l 352 3 l 363 3 l 363 -5 z m 844 -5 l 844 58 l 852 58 l 852 1 l 883 1 l 883 -5 z m 787 -5 l 787 58 l 832 58 l 832 49 l 795 49 l 795 30 l 829 30 l 829 22 l 795 22 l 795 1 l 832 1 l 832 -5 z m 565 -5 l 565 21 l 541 58 l 552 58 l 564 39 q 567 30 570 28 q 571 30 572 33 q 574 36 577 39 l 589 58 l 598 58 l 573 21 l 573 -5 z m 376 -5 l 376 58 l 400 58 q 403 58 406 56 q 408 55 409 55 q 415 54 417 49 q 420 46 420 40 q 420 36 417 34 q 415 28 411 28 q 415 27 420 22 q 423 16 423 13 q 423 10 422 8 q 421 7 421 6 q 420 0 415 0 q 414 -3 412 -3 q 411 -3 409 -5 l 400 -5 z m 205 -5 l 187 58 l 196 58 l 205 16 q 207 12 207 9 q 207 6 208 3 q 210 10 210 15 l 222 58 l 232 58 l 241 25 q 243 18 244 14 q 246 9 246 3 q 247 6 247 9 q 247 12 249 16 l 259 58 l 267 58 l 249 -5 l 241 -5 l 229 42 q 228 46 228 49 q 226 46 226 42 l 213 -5 z m 123 -5 l 105 58 l 115 58 l 123 16 q 123 9 127 3 q 129 10 129 15 l 141 58 l 150 58 l 160 25 q 162 18 162 14 q 163 9 163 3 q 166 6 166 9 q 166 12 168 16 l 177 58 l 186 58 l 168 -5 l 160 -5 l 148 42 q 147 46 147 49 q 144 46 144 42 l 130 -5 z m 384 30 l 397 30 q 403 30 405 33 q 409 33 409 34 q 411 36 411 40 q 411 45 409 46 l 408 46 q 406 46 406 47 q 406 48 405 48 q 403 49 396 49 l 384 49 z m 285 -5 l 268 58 l 277 58 l 286 16 q 288 12 288 9 q 288 6 291 3 q 291 9 292 11 q 292 13 292 15 l 304 58 l 313 58 l 324 25 q 325 18 326 14 q 327 9 327 3 q 330 6 330 9 q 330 12 331 16 l 342 58 l 349 58 l 331 -5 l 324 -5 l 312 42 q 310 46 310 49 q 307 46 307 42 l 294 -5 z m 664 28 l 682 28 q 685 28 688 29 q 690 30 693 30 q 696 30 696 34 q 697 36 697 40 q 697 45 694 48 q 693 49 684 49 l 664 49 z m 384 1 l 400 1 q 403 1 405 3 l 409 3 q 411 6 414 7 l 414 13 q 414 16 411 19 q 411 22 408 22 l 397 22 l 384 22 z m 435 -5 l 435 58 l 442 58 l 442 -5 z m 985 25 q 985 12 990 7 q 996 1 1006 1 q 1017 1 1021 7 q 1027 12 1027 27 q 1027 34 1026 39 q 1023 46 1018 48 q 1014 49 1006 49 q 997 49 993 45 q 985 39 985 25 z m 976 25 q 976 42 985 49 q 991 58 1006 58 q 1011 58 1014 56 q 1018 55 1021 54 q 1026 52 1028 49 q 1030 46 1033 42 q 1035 39 1035 27 q 1035 13 1032 9 q 1027 1 1021 -3 q 1015 -6 1006 -6 q 1002 -6 998 -6 q 994 -5 990 -3 q 987 0 984 3 q 982 6 981 9 q 979 13 978 17 q 976 21 976 25 z m 592 -5 l 616 58 l 625 58 l 651 -5 l 642 -5 l 634 13 l 609 13 l 600 -5 z m 459 -5 l 459 58 l 466 58 l 466 1 l 495 1 l 495 -5 z m 892 -5 l 892 3 l 903 3 l 903 -5 z m 748 19 l 748 27 l 774 27 l 774 3 q 768 -3 762 -5 q 759 -5 755 -6 q 751 -6 748 -6 q 739 -6 733 -3 q 729 0 726 2 q 723 4 721 9 q 720 13 718 17 q 717 21 717 25 q 717 31 718 34 q 720 37 721 42 q 724 51 732 54 q 735 55 740 56 q 744 58 748 58 q 756 58 760 55 q 766 54 768 49 q 772 45 774 40 l 766 39 q 766 40 762 45 q 762 48 756 49 l 748 49 l 739 49 q 735 48 732 45 q 732 43 727 39 q 727 36 726 33 q 726 30 726 27 q 726 16 729 13 q 735 4 736 3 q 741 1 748 1 q 754 1 759 3 q 762 6 764 6 q 765 6 766 7 l 766 19 z m 657 -5 l 657 58 l 684 58 q 688 58 691 56 q 694 55 697 55 q 702 54 703 49 q 706 46 706 40 q 706 33 702 28 q 700 27 696 26 q 693 25 688 22 q 691 22 692 22 q 693 21 694 21 q 696 18 696 16 q 697 13 700 10 l 712 -5 l 702 -5 l 693 7 q 690 10 689 12 q 688 15 687 16 q 687 19 686 19 q 684 19 682 21 l 681 21 q 679 21 679 22 q 679 22 678 22 l 675 22 l 664 22 l 664 -5 z m 505 -5 l 505 58 l 514 58 l 514 1 l 544 1 l 544 -5 z m 961 16 l 969 15 q 966 3 960 0 q 954 -6 943 -6 q 934 -6 928 -3 q 924 0 922 3 q 921 6 918 9 q 915 21 915 27 q 915 33 918 45 q 925 52 928 54 q 933 55 936 56 q 939 58 943 58 q 948 58 952 56 q 957 55 960 54 q 963 51 965 48 q 967 45 969 40 l 960 39 q 960 45 954 48 q 951 49 943 49 q 934 49 931 48 q 928 46 928 44 q 927 42 924 39 q 924 36 923 33 q 922 30 922 27 q 922 18 927 13 q 927 10 928 8 q 930 6 931 3 q 936 1 943 1 q 951 1 955 6 q 960 10 961 16 z m 1047 -5 l 1047 58 l 1059 58 l 1074 13 q 1074 10 1076 8 q 1077 6 1077 3 q 1077 4 1080 13 l 1093 58 l 1105 58 l 1105 -5 l 1098 -5 l 1098 46 l 1080 -5 l 1072 -5 l 1054 48 l 1054 -5 z m 610 21 l 631 21 l 624 39 q 622 42 622 44 q 622 46 619 49 q 619 45 616 39 z m 352 -5 l 352 3 l 363 3 l 363 -5 z m 844 -5 l 844 58 l 852 58 l 852 1 l 883 1 l 883 -5 z m 787 -5 l 787 58 l 832 58 l 832 49 l 795 49 l 795 30 l 829 30 l 829 22 l 795 22 l 795 1 l 832 1 l 832 -5 z m 565 -5 l 565 21 l 541 58 l 552 58 l 564 39 q 567 30 570 28 q 571 30 572 33 q 574 36 577 39 l 589 58 l 598 58 l 573 21 l 573 -5 z m 376 -5 l 376 58 l 400 58 q 403 58 406 56 q 408 55 409 55 q 415 54 417 49 q 420 46 420 40 q 420 36 417 34 q 415 28 411 28 q 415 27 420 22 q 423 16 423 13 q 423 10 422 8 q 421 7 421 6 q 420 0 415 0 q 414 -3 412 -3 q 411 -3 409 -5 l 400 -5 z m 205 -5 l 187 58 l 196 58 l 205 16 q 207 12 207 9 q 207 6 208 3 q 210 10 210 15 l 222 58 l 232 58 l 241 25 q 243 18 244 14 q 246 9 246 3 q 247 6 247 9 q 247 12 249 16 l 259 58 l 267 58 l 249 -5 l 241 -5 l 229 42 q 228 46 228 49 q 226 46 226 42 l 213 -5 z m 123 -5 l 105 58 l 115 58 l 123 16 q 123 9 127 3 q 129 10 129 15 l 141 58 l 150 58 l 160 25 q 162 18 162 14 q 163 9 163 3 q 166 6 166 9 q 166 12 168 16 l 177 58 l 186 58 l 168 -5 l 160 -5 l 148 42 q 147 46 147 49 q 144 46 144 42 l 130 -5 z m 384 30 l 397 30 q 403 30 405 33 q 409 33 409 34 q 411 36 411 40 q 411 45 409 46 l 408 46 q 406 46 406 47 q 406 48 405 48 q 403 49 396 49 l 384 49 z m 285 -5 l 268 58 l 277 58 l 286 16 q 288 12 288 9 q 288 6 291 3 q 291 9 292 11 q 292 13 292 15 l 304 58 l 313 58 l 324 25 q 325 18 326 14 q 327 9 327 3 q 330 6 330 9 q 330 12 331 16 l 342 58 l 349 58 l 331 -5 l 324 -5 l 312 42 q 310 46 310 49 q 307 46 307 42 l 294 -5 z m 664 28 l 682 28 q 685 28 688 29 q 690 30 693 30 q 696 30 696 34 q 697 36 697 40 q 697 45 694 48 q 693 49 684 49 l 664 49 z m 384 1 l 400 1 q 403 1 405 3 l 409 3 q 411 6 414 7 l 414 13 q 414 16 411 19 q 411 22 408 22 l 397 22 l 384 22 z m 435 -5 l 435 58 l 442 58 l 442 -5 z m 985 25 q 985 12 990 7 q 996 1 1006 1 q 1017 1 1021 7 q 1027 12 1027 27 q 1027 34 1026 39 q 1023 46 1018 48 q 1014 49 1006 49 q 997 49 993 45 q 985 39 985 25 z m 976 25 q 976 42 985 49 q 991 58 1006 58 q 1011 58 1014 56 q 1018 55 1021 54 q 1026 52 1028 49 q 1030 46 1033 42 q 1035 39 1035 27 q 1035 13 1032 9 q 1027 1 1021 -3 q 1015 -6 1006 -6 q 1002 -6 998 -6 q 994 -5 990 -3 q 987 0 984 3 q 982 6 981 9 q 979 13 978 17 q 976 21 976 25 z m 592 -5 l 616 58 l 625 58 l 651 -5 l 642 -5 l 634 13 l 609 13 l 600 -5 z m 459 -5 l 459 58 l 466 58 l 466 1 l 495 1 l 495 -5 z m 892 -5 l 892 3 l 903 3 l 903 -5 z m 748 19 l 748 27 l 774 27 l 774 3 q 768 -3 762 -5 q 759 -5 755 -6 q 751 -6 748 -6 q 739 -6 733 -3 q 729 0 726 2 q 723 4 721 9 q 720 13 718 17 q 717 21 717 25 q 717 31 718 34 q 720 37 721 42 q 724 51 732 54 q 735 55 740 56 q 744 58 748 58 q 756 58 760 55 q 766 54 768 49 q 772 45 774 40 l 766 39 q 766 40 762 45 q 762 48 756 49 l 748 49 l 739 49 q 735 48 732 45 q 732 43 727 39 q 727 36 726 33 q 726 30 726 27 q 726 16 729 13 q 735 4 736 3 q 741 1 748 1 q 754 1 759 3 q 762 6 764 6 q 765 6 766 7 l 766 19 z m 657 -5 l 657 58 l 684 58 q 688 58 691 56 q 694 55 697 55 q 702 54 703 49 q 706 46 706 40 q 706 33 702 28 q 700 27 696 26 q 693 25 688 22 q 691 22 692 22 q 693 21 694 21 q 696 18 696 16 q 697 13 700 10 l 712 -5 l 702 -5 l 693 7 q 690 10 689 12 q 688 15 687 16 q 687 19 686 19 q 684 19 682 21 l 681 21 q 679 21 679 22 q 679 22 678 22 l 675 22 l 664 22 l 664 -5 z m 505 -5 l 505 58 l 514 58 l 514 1 l 544 1 l 544 -5 z m 961 16 l 969 15 q 966 3 960 0 q 954 -6 943 -6 q 934 -6 928 -3 q 924 0 922 3 q 921 6 918 9 q 915 21 915 27 q 915 33 918 45 q 925 52 928 54 q 933 55 936 56 q 939 58 943 58 q 948 58 952 56 q 957 55 960 54 q 963 51 965 48 q 967 45 969 40 l 960 39 q 960 45 954 48 q 951 49 943 49 q 934 49 931 48 q 928 46 928 44 q 927 42 924 39 q 924 36 923 33 q 922 30 922 27 q 922 18 927 13 q 927 10 928 8 q 930 6 931 3 q 936 1 943 1 q 951 1 955 6 q 960 10 961 16 z m 1047 -5 l 1047 58 l 1059 58 l 1074 13 q 1074 10 1076 8 q 1077 6 1077 3 q 1077 4 1080 13 l 1093 58 l 1105 58 l 1105 -5 l 1098 -5 l 1098 46 l 1080 -5 l 1072 -5 l 1054 48 l 1054 -5 z m 175 111 l 187 106 q 184 93 174 84 q 162 75 148 75 q 135 75 123 81 q 111 90 109 99 q 103 109 103 124 q 103 141 109 151 q 114 162 124 166 q 135 172 148 172 q 165 172 171 165 q 181 162 186 145 l 174 144 q 168 156 163 157 q 157 163 148 163 q 136 163 130 157 q 121 151 118 144 q 117 138 117 124 q 117 111 121 105 q 124 94 130 91 q 138 85 147 85 q 159 85 166 93 q 169 96 172 100 q 174 105 175 111 z m 199 123 q 199 135 202 144 q 205 153 213 159 q 219 166 227 169 q 235 172 244 172 q 258 172 268 166 q 277 162 285 150 q 291 135 291 124 q 291 117 290 111 q 288 105 285 99 q 277 87 267 81 q 255 75 244 75 q 237 75 232 76 q 226 78 220 81 q 210 87 205 99 q 199 109 199 123 z m 213 123 q 213 105 220 94 q 231 85 244 85 q 259 85 267 97 q 277 108 277 124 q 277 130 276 134 q 274 139 273 144 q 270 154 261 157 q 256 163 244 163 q 232 163 222 153 q 213 145 213 123 z m 306 78 l 306 171 l 324 171 l 346 105 q 351 96 351 91 q 354 94 357 106 l 381 171 l 396 171 l 396 78 l 384 78 l 384 156 l 357 78 l 345 78 l 318 157 l 318 78 z m 417 78 l 417 171 l 453 171 l 466 171 q 474 171 478 166 q 480 165 486 157 q 487 154 488 151 q 489 148 489 144 q 489 135 481 124 q 474 117 453 117 l 429 117 l 429 78 z m 429 126 l 454 126 q 468 126 469 132 q 475 133 475 144 q 475 151 474 153 q 468 159 463 159 q 462 162 453 162 l 429 162 z m 505 78 l 505 171 l 517 171 l 517 87 l 564 87 l 564 78 z m 579 78 l 579 171 l 648 171 l 648 162 l 591 162 l 591 132 l 643 132 l 643 120 l 591 120 l 591 87 l 649 87 l 649 78 z m 690 78 l 690 162 l 658 162 l 658 171 l 735 171 l 735 162 l 703 162 l 703 78 z m 748 78 l 748 171 l 817 171 l 817 162 l 760 162 l 760 132 l 813 132 l 813 120 l 760 120 l 760 87 l 819 87 l 819 78 z m 870 106 l 882 108 q 882 100 885 97 q 888 91 895 88 q 898 87 909 87 q 912 87 916 87 q 919 87 922 88 q 927 88 930 94 q 931 97 931 103 q 931 108 930 111 q 928 112 926 113 q 924 114 921 117 q 919 117 904 120 q 897 123 892 124 q 888 124 885 126 q 879 129 876 136 q 873 138 872 141 q 871 144 871 147 q 871 156 877 162 q 879 165 882 166 q 885 168 889 171 q 892 172 907 172 q 918 172 924 169 q 928 166 931 164 q 934 163 936 159 q 942 154 942 145 l 930 144 q 927 156 922 157 q 918 162 907 162 q 892 162 889 157 q 885 153 885 147 q 885 142 889 139 q 889 139 907 132 q 915 130 920 128 q 925 127 928 126 q 933 124 935 122 q 937 120 940 117 q 943 112 943 103 q 943 93 940 88 q 934 82 928 79 q 924 78 920 76 q 915 75 909 75 q 903 75 897 76 q 891 78 888 79 q 880 81 873 91 q 870 97 870 106 z m 961 78 l 961 171 l 1029 171 l 1029 162 l 975 162 l 975 132 l 1027 132 l 1027 120 l 975 120 l 975 87 l 1032 87 l 1032 78 z m 1074 78 l 1074 162 l 1044 162 l 1044 171 l 1117 171 l 1117 162 l 1086 162 l 1086 78 z m 112 190 l 112 283 l 150 283 l 163 283 q 166 283 175 280 q 177 279 179 276 q 181 273 183 270 q 186 267 186 259 q 186 246 177 237 q 172 229 150 229 l 127 229 l 127 190 z m 127 241 l 150 241 q 163 241 168 244 q 174 250 174 256 q 174 259 172 262 q 171 265 169 268 q 165 273 162 273 q 160 274 150 274 l 127 274 z m 201 190 l 201 283 l 268 283 l 268 274 l 214 274 l 214 244 l 265 244 l 265 234 l 214 234 l 214 202 l 271 202 l 271 190 z m 288 190 l 288 283 l 331 283 q 345 283 351 282 q 358 279 361 274 q 364 262 364 259 q 364 249 358 243 q 352 237 337 234 q 340 231 342 231 q 343 231 345 229 q 352 222 355 216 l 372 190 l 357 190 l 343 210 q 342 214 340 217 q 337 220 336 223 q 333 225 332 227 q 331 229 330 229 q 327 231 324 231 q 322 234 316 234 l 303 234 l 303 190 z m 303 243 l 327 243 q 339 243 342 244 q 346 249 349 250 q 351 253 351 259 q 351 265 346 270 q 342 274 331 274 l 303 274 z m 381 222 l 391 222 q 391 219 392 216 q 394 213 396 210 q 397 208 400 206 q 402 204 405 204 q 414 201 420 201 q 423 201 426 201 q 429 201 430 202 q 439 205 441 208 q 441 210 442 212 q 442 214 442 216 q 442 222 441 223 q 436 226 430 229 q 429 231 425 231 q 421 231 415 234 q 402 235 396 240 q 388 246 385 249 q 384 253 384 261 q 384 264 384 268 q 385 271 388 274 q 390 280 400 283 q 403 286 417 286 q 429 286 435 283 q 444 279 447 273 q 453 264 453 259 l 441 256 q 438 267 433 270 q 427 276 417 276 q 405 276 400 270 q 396 267 396 261 q 396 255 400 253 q 402 250 417 247 q 430 241 439 241 q 442 238 445 236 q 448 234 450 231 q 454 226 454 217 q 454 210 450 204 q 447 199 444 197 q 442 195 439 192 q 427 189 420 189 q 409 189 397 192 q 393 195 390 197 q 387 199 384 204 q 382 208 382 212 q 381 216 381 222 z m 468 237 q 468 258 480 273 q 493 286 513 286 q 519 286 524 284 q 529 283 537 280 q 543 277 546 272 q 549 268 552 262 q 558 252 558 237 q 558 223 552 211 q 546 201 537 195 q 525 189 513 189 q 499 189 489 196 q 475 204 474 214 q 468 222 468 237 z m 480 237 q 480 219 489 210 q 498 201 513 201 q 528 201 537 210 q 544 220 544 237 q 544 243 544 249 q 543 255 540 259 q 535 267 531 270 q 523 276 513 276 q 505 276 500 274 q 496 271 489 267 q 480 258 480 237 z m 573 190 l 573 283 l 586 283 l 636 211 l 636 283 l 648 283 l 648 190 l 636 190 l 585 264 l 585 190 z m 658 190 l 694 283 l 708 283 l 747 190 l 732 190 l 721 220 l 682 220 l 670 190 z m 684 229 l 717 229 l 708 255 q 705 261 704 266 q 702 271 700 274 q 700 270 698 266 q 697 261 696 256 z m 754 190 l 754 283 l 768 283 l 768 202 l 814 202 l 814 190 z m 922 283 l 934 283 l 934 231 q 934 214 931 208 q 928 199 921 195 q 913 189 898 189 q 883 189 877 195 q 873 196 870 200 q 867 204 864 208 q 862 211 862 231 l 862 283 l 873 283 l 873 231 q 873 216 876 211 q 879 205 883 204 q 886 202 889 202 q 892 201 897 201 q 909 201 916 205 q 922 211 922 231 z m 951 222 l 963 222 q 963 219 964 216 q 966 213 967 210 q 969 208 971 206 q 973 204 976 204 q 985 201 990 201 q 1000 201 1005 202 q 1008 204 1012 208 q 1014 210 1014 216 q 1014 222 1012 223 q 1009 225 1008 226 q 1008 228 1005 229 q 1002 231 998 231 q 993 231 987 234 q 981 235 976 236 q 970 237 969 240 q 961 243 960 249 q 955 253 955 261 q 955 267 960 274 q 961 280 970 283 q 976 286 988 286 q 993 286 998 286 q 1003 286 1006 283 q 1015 279 1020 273 q 1021 270 1022 266 q 1024 262 1024 259 l 1012 256 q 1009 261 1008 264 q 1008 268 1005 270 q 1000 276 988 276 q 975 276 973 270 q 967 268 967 261 q 967 256 970 253 q 973 250 988 247 q 1005 241 1009 241 q 1014 238 1017 236 q 1020 234 1021 231 q 1026 228 1026 217 q 1026 208 1021 204 q 1018 199 1016 197 q 1014 195 1009 192 q 1000 189 993 189 q 985 189 980 190 q 975 190 970 192 q 967 195 964 197 q 960 199 957 204 q 954 208 952 212 q 951 216 951 222 z m 1044 190 l 1044 283 l 1111 283 l 1111 274 l 1057 274 l 1057 244 l 1107 244 l 1107 234 l 1057 234 l 1057 202 l 1113 202 l 1113 190 z m 307 388 q 307 403 285 406 q 282 406 278 407 q 273 408 267 408 l 258 397 l 234 372 q 228 364 222 358 q 217 352 210 348 q 219 345 232 343 q 235 343 240 343 q 246 343 250 345 q 273 346 285 357 q 307 375 307 388 z m 324 433 q 324 439 316 439 q 313 439 291 432 l 274 417 q 271 414 268 408 l 294 412 q 300 412 310 420 q 324 429 324 433 z m 343 460 q 343 457 339 457 q 336 457 335 458 q 334 459 331 459 q 316 456 297 436 q 300 439 304 440 q 307 442 310 444 q 321 445 330 444 q 336 444 336 436 l 336 430 q 328 417 294 409 q 321 406 321 391 q 321 373 292 354 q 282 348 270 344 q 259 340 247 339 q 228 334 217 336 q 208 336 198 340 q 189 334 181 334 l 178 334 q 169 337 163 339 l 168 339 q 180 339 187 345 l 187 346 q 177 340 165 340 q 148 340 139 349 q 124 360 124 381 q 124 387 126 392 q 127 397 130 405 q 141 427 166 444 q 174 451 182 454 q 190 456 198 457 q 214 457 220 451 q 213 456 205 456 q 196 456 186 450 q 171 444 169 441 q 154 433 139 415 q 126 394 126 379 q 126 372 128 368 q 129 363 132 358 q 138 349 148 346 q 153 345 156 344 q 159 343 162 343 q 168 343 172 344 q 177 346 183 349 q 166 361 166 382 q 169 402 190 417 l 187 412 q 184 412 181 406 q 172 397 172 387 q 172 367 195 354 q 207 361 207 363 q 210 367 213 370 q 216 373 219 376 q 222 379 222 384 q 223 388 226 393 l 226 391 q 226 384 225 379 l 243 400 q 289 453 319 462 q 306 466 298 466 q 279 465 256 453 q 229 439 229 420 q 229 414 234 409 q 235 408 235 406 q 226 412 226 421 q 226 438 246 454 q 270 472 297 469 q 306 469 324 463 l 330 463 q 337 463 342 460 z m 346 363 q 345 357 334 346 q 324 340 316 340 q 309 340 309 349 q 309 357 318 369 l 316 369 q 315 367 310 367 q 310 367 309 369 q 313 369 324 379 l 325 379 l 330 385 q 334 390 334 393 l 339 393 q 343 393 343 391 q 343 385 334 375 l 324 364 q 315 351 315 346 q 315 342 321 342 q 328 342 339 357 q 340 358 342 359 q 343 360 346 363 z m 354 405 q 348 396 339 396 q 334 396 328 400 l 333 400 q 343 400 346 411 l 346 414 l 354 411 q 355 409 354 405 z m 406 433 q 406 426 360 370 l 358 370 q 345 354 345 345 q 345 340 349 340 q 358 340 369 355 q 370 357 372 358 q 373 358 375 361 q 375 354 363 345 q 355 339 346 339 q 337 340 337 348 q 336 355 367 394 l 385 417 l 394 426 q 399 432 402 441 q 406 438 406 433 z m 432 433 q 432 427 384 370 q 369 352 369 345 q 369 340 375 340 q 381 340 394 355 l 400 361 q 399 354 387 345 q 379 339 370 339 q 361 340 361 348 q 361 357 391 394 l 409 417 l 418 426 q 426 435 427 441 q 432 438 432 433 z m 403 333 q 379 328 366 315 q 355 301 355 298 q 355 292 361 292 q 363 291 372 294 q 375 297 378 300 q 382 304 387 309 z m 447 430 q 444 409 427 393 q 427 391 426 391 q 426 391 426 390 q 421 384 416 378 q 411 373 406 366 q 403 363 403 360 q 402 363 405 369 q 396 355 396 348 q 396 343 400 343 q 402 343 408 346 q 430 364 439 397 l 439 393 l 439 388 q 442 385 442 381 q 442 378 435 366 l 423 346 l 409 328 q 414 331 426 337 l 424 336 q 421 333 416 329 q 411 325 406 318 l 394 303 l 388 295 q 379 286 369 283 q 360 283 355 289 q 346 292 352 303 q 354 304 356 307 q 357 310 360 313 l 361 315 l 351 313 q 376 331 393 333 q 394 333 396 334 q 397 334 399 334 l 400 334 l 403 334 l 412 348 q 406 342 402 341 q 397 340 394 340 q 387 340 387 348 q 387 366 418 394 l 421 396 l 436 411 q 439 417 442 422 q 445 426 447 430 z m 618 453 q 609 456 603 456 q 588 456 575 452 q 562 448 549 441 q 543 438 539 434 q 535 430 531 427 q 549 426 579 408 q 612 441 636 450 z m 649 447 q 643 445 636 443 q 630 441 622 433 q 618 430 600 412 l 589 402 l 604 393 q 607 397 613 404 q 619 411 627 420 z m 663 472 q 663 471 661 469 q 661 459 657 448 l 658 447 l 657 447 q 649 429 637 417 l 613 388 q 616 387 618 387 q 619 387 622 385 q 622 382 621 382 q 618 382 616 383 q 615 384 612 385 q 594 366 592 349 q 589 343 589 340 q 589 334 595 334 q 607 334 621 354 l 627 363 q 642 384 646 400 l 646 405 q 646 403 648 402 l 648 400 q 645 379 633 361 l 613 322 q 613 328 618 342 q 600 328 591 328 q 577 328 580 346 q 580 355 586 366 q 592 378 601 391 l 586 399 l 573 385 q 568 379 560 370 q 552 361 540 346 q 516 322 498 322 l 493 322 q 489 322 480 327 q 480 327 483 327 q 496 324 510 337 q 498 331 481 331 q 465 331 454 339 l 456 339 q 441 349 441 370 q 441 385 447 393 q 456 417 481 433 q 490 441 498 443 q 507 445 516 447 q 531 447 537 441 l 535 441 q 532 444 522 444 q 507 444 484 430 q 468 418 456 405 q 442 384 442 367 q 442 343 465 336 q 474 333 478 333 q 510 334 547 375 l 576 405 q 553 418 525 418 l 523 418 q 520 412 520 405 q 522 405 528 396 q 517 402 517 411 q 517 415 519 418 q 504 415 499 412 q 472 402 475 381 q 475 367 484 357 l 487 354 q 469 372 469 385 q 469 405 487 418 q 502 429 525 429 q 546 453 577 457 q 585 459 601 459 q 609 459 624 456 l 642 451 l 651 451 l 652 450 q 658 460 661 475 l 663 475 z m 682 375 q 682 370 681 367 q 673 360 668 354 q 663 348 658 340 l 660 340 l 661 340 q 660 339 658 339 q 657 339 657 337 q 649 337 649 340 q 649 346 663 360 q 673 373 673 376 q 675 381 669 385 q 651 360 637 354 l 631 351 l 628 352 q 634 352 648 367 q 661 379 666 387 q 666 388 665 388 q 664 388 664 390 q 664 391 675 400 q 675 402 676 402 l 678 400 q 678 399 670 388 q 682 384 682 375 z m 726 379 q 726 388 720 385 q 714 385 711 382 q 706 379 697 367 q 688 355 688 348 q 687 345 691 345 q 700 348 706 355 q 712 367 712 372 q 712 375 711 375 q 717 375 717 367 l 715 364 q 718 367 720 371 q 723 375 726 378 z m 754 393 q 748 393 741 385 q 735 378 729 369 q 723 360 715 348 q 708 333 702 324 q 696 316 694 313 q 675 289 664 289 q 655 288 651 295 q 651 303 651 303 q 651 310 657 316 q 654 315 649 315 q 664 330 682 334 q 684 334 684 335 q 685 336 688 336 l 690 334 q 661 325 655 307 q 654 304 654 300 q 654 298 655 297 q 655 295 657 295 q 669 294 685 318 l 696 333 l 702 342 q 697 340 694 340 q 682 340 682 352 q 682 366 702 384 q 711 393 718 393 q 729 393 729 381 l 730 381 l 738 390 q 745 397 751 397 q 756 397 759 393 z m 781 382 q 781 373 765 364 q 763 363 762 363 l 760 363 q 756 363 751 370 q 754 367 759 367 q 769 373 772 384 l 772 387 l 772 388 l 772 390 q 766 390 753 376 l 753 375 q 748 369 748 365 q 747 361 747 358 q 745 360 745 367 q 742 361 741 357 q 738 351 738 346 q 738 345 739 343 q 739 340 745 340 q 760 346 771 355 q 774 358 778 361 q 775 357 772 353 q 769 349 762 345 q 750 337 741 340 q 741 339 739 340 q 730 340 730 349 q 730 364 747 379 q 756 393 771 393 q 774 393 775 391 q 781 387 781 382 z m 841 433 q 841 427 793 370 q 780 354 780 345 q 780 340 784 340 q 793 340 804 355 q 805 357 806 358 q 808 358 810 361 q 810 354 798 345 q 790 339 780 339 q 772 342 772 348 q 772 360 801 394 l 819 417 l 828 426 q 837 435 837 441 q 841 438 841 433 z m 922 387 q 897 396 895 415 q 888 411 880 407 q 873 403 868 399 q 840 372 840 349 q 840 340 844 339 l 847 339 l 850 339 q 873 339 892 354 q 898 360 906 368 q 915 375 922 387 z m 952 430 l 940 430 q 922 429 897 417 q 900 396 925 391 l 936 405 z m 979 457 q 960 457 944 454 q 928 451 916 444 q 924 451 935 456 q 946 460 960 463 q 930 465 907 445 q 903 442 897 430 q 907 433 917 434 q 927 436 939 435 q 942 435 946 435 q 951 435 958 433 q 961 438 966 444 q 972 450 979 457 z m 1074 459 q 1071 454 1067 450 q 1063 447 1056 444 q 1044 436 1033 436 l 1030 436 q 1029 436 1027 438 q 1029 439 1029 440 q 1029 442 1032 445 q 1018 456 994 456 l 988 448 l 973 430 q 985 429 996 428 q 1006 426 1015 426 q 1036 426 1044 430 q 1038 424 1021 421 q 1008 418 994 423 l 970 427 q 964 420 959 414 q 954 409 951 403 l 940 388 l 948 388 q 985 391 991 406 l 993 406 q 988 397 973 390 q 966 387 959 386 q 952 384 946 384 l 939 384 q 928 372 922 363 q 915 354 909 348 q 889 327 873 327 q 865 328 856 328 q 871 328 888 343 q 867 334 855 334 l 846 336 l 858 324 q 846 330 838 337 q 837 337 831 340 q 813 354 811 375 q 811 382 811 388 q 811 394 814 400 q 819 414 826 424 q 834 433 844 444 q 870 466 889 466 q 900 466 907 460 l 906 459 q 901 463 892 463 q 873 460 852 444 q 834 429 825 414 q 813 393 813 375 q 816 348 837 340 q 834 349 835 358 q 838 381 852 397 q 868 418 897 430 q 900 433 900 439 l 913 453 q 933 469 964 469 q 972 469 977 469 q 982 469 990 468 l 991 468 q 1002 475 1010 479 q 1018 483 1027 481 q 1033 481 1036 478 q 1020 475 1020 475 q 1017 474 1013 472 q 1009 471 1005 468 q 1011 466 1017 466 q 1023 465 1030 462 q 1045 457 1054 457 q 1068 457 1074 459 z m 982 354 q 978 358 978 364 q 978 367 978 370 q 979 372 979 375 q 964 355 966 346 q 966 343 969 343 q 972 343 982 354 z m 1002 385 q 1002 388 999 388 q 996 388 993 387 q 991 385 988 379 q 981 364 981 360 q 981 355 982 354 l 987 358 l 987 360 l 987 358 q 988 360 988 360 q 988 361 990 363 q 993 372 993 375 q 993 376 991 378 q 994 372 994 370 q 999 375 1002 385 z m 1008 381 q 1008 373 997 358 q 984 345 978 340 l 966 340 q 957 340 957 348 q 957 360 973 379 q 984 393 997 393 q 1008 393 1008 381 z m 1057 384 q 1059 381 1051 367 q 1042 355 1039 352 l 1021 336 q 1011 325 1008 313 q 1009 331 1021 345 q 1027 351 1030 356 q 1033 360 1036 366 q 1038 367 1039 372 l 1039 367 q 1039 367 1038 364 q 1041 367 1047 379 q 1047 381 1048 382 q 1048 382 1048 384 q 1048 391 1041 388 q 1041 388 1029 379 q 1026 372 1020 366 q 1015 361 1009 354 q 1002 345 1000 340 q 999 339 993 327 q 993 330 992 334 q 991 337 993 340 q 996 351 1006 361 l 1015 372 q 1023 382 1023 388 q 1023 390 1022 392 q 1021 393 1021 394 q 1030 391 1030 385 q 1039 393 1050 393 q 1056 390 1057 384 z m 1116 405 l 1093 405 q 1092 402 1084 393 q 1075 384 1063 367 q 1060 367 1057 360 q 1051 352 1051 345 q 1051 340 1054 340 q 1062 340 1075 355 l 1077 357 q 1078 358 1078 359 q 1078 360 1080 361 q 1080 354 1069 345 q 1062 339 1051 339 q 1044 342 1042 348 q 1042 351 1048 363 l 1066 384 l 1083 405 l 1057 408 q 1051 409 1042 409 l 1029 409 q 1011 409 993 402 l 991 402 q 1006 417 1038 417 q 1039 417 1050 414 q 1062 412 1083 409 l 1087 408 q 1092 415 1096 420 q 1099 426 1102 430 q 1105 429 1105 423 q 1105 418 1102 415 l 1096 406 l 1108 405 l 1117 405 l 1119 405 l 1123 405 z m 1126 385 q 1126 381 1116 376 l 1114 375 q 1119 379 1119 387 l 1119 393 l 1114 393 q 1107 393 1105 387 q 1105 384 1110 361 q 1111 340 1086 340 q 1072 340 1069 349 q 1068 351 1068 354 q 1068 366 1086 369 l 1092 367 l 1089 367 q 1083 367 1080 364 q 1075 357 1075 354 q 1075 342 1087 342 q 1099 342 1099 358 q 1099 366 1098 370 q 1096 375 1096 381 q 1096 396 1110 396 q 1113 396 1114 395 q 1116 394 1119 394 q 1125 391 1125 390 q 1126 388 1126 385 z"}}}
